<?xml version="1.0" encoding="UTF-8" standalone="no"?>
<!DOCTYPE svg PUBLIC "-//W3C//DTD SVG 1.1//EN" "http://www.w3.org/Graphics/SVG/1.1/DTD/svg11.dtd">
<!-- Created with Vectornator (http://vectornator.io/) -->
<svg height="100%" stroke-miterlimit="10" style="fill-rule:nonzero;clip-rule:evenodd;stroke-linecap:round;stroke-linejoin:round;" version="1.1" viewBox="0 0 736.03 117.98" width="100%" xml:space="preserve" xmlns="http://www.w3.org/2000/svg" xmlns:vectornator="http://vectornator.io" xmlns:xlink="http://www.w3.org/1999/xlink">
<defs/>
<g id="Layer-1" vectornator:layerName="Layer 1">
<g opacity="1" vectornator:layerName="imboxsoft">
<g opacity="0" vectornator:layerName="path">
<clipPath clip-rule="evenodd" id="ClipPath">
<path d="M16.3198 102.597L16.3538 23.574C16.3548 22.5968 32.3328 16.5101 32.3328 16.5101C33.2608 16.2027 34.0128 16.7457 34.0128 17.7229L34.0128 102.597C34.0128 103.574 33.2208 104.366 32.2428 104.366L18.0888 104.366C17.1118 104.366 16.3198 103.574 16.3198 102.597Z"/>
</clipPath>
<g clip-path="url(#ClipPath)">
<path d="M16.3198 102.597L16.3538 23.574C16.3548 22.5968 32.3328 16.5101 32.3328 16.5101C33.2608 16.2027 34.0128 16.7457 34.0128 17.7229L34.0128 102.597C34.0128 103.574 33.2208 104.366 32.2428 104.366L18.0888 104.366C17.1118 104.366 16.3198 103.574 16.3198 102.597Z" fill="none" opacity="1" stroke="#212a3b" stroke-linecap="butt" stroke-linejoin="round" stroke-width="35.3282" vectornator:layerName="path"/>
</g>
</g>
<g opacity="1" vectornator:layerName="path">
<clipPath clip-rule="evenodd" id="ClipPath_2">
<path d="M55.3968 15.766L69.3878 15.766C70.0288 15.766 70.8038 16.218 71.1198 16.7756L97.4188 63.186C97.7348 63.743 98.2478 63.744 98.5648 63.186L124.953 16.7748C125.27 16.2177 126.046 15.766 126.687 15.766L140.289 15.766C140.93 15.766 141.449 16.2856 141.449 16.9265L141.449 103.206C141.449 103.847 140.93 104.366 140.289 104.366L124.913 104.366C124.272 104.366 123.753 103.847 123.753 103.206L123.753 55.262C123.753 54.621 123.49 54.55 123.167 55.103L104.391 87.197C104.067 87.751 103.285 88.199 102.644 88.199L93.3608 88.199C92.7198 88.199 91.9398 87.75 91.6178 87.195L72.9988 55.105C72.6768 54.551 72.4158 54.621 72.4158 55.262L72.4158 103.206C72.4158 103.847 71.8968 104.366 71.2558 104.366L55.3968 104.366C54.7558 104.366 54.2368 103.847 54.2368 103.206L54.2368 16.9265C54.2368 16.2856 54.7558 15.766 55.3968 15.766Z"/>
</clipPath>
<g clip-path="url(#ClipPath_2)">
<path d="M55.3968 15.766L69.3878 15.766C70.0288 15.766 70.8038 16.218 71.1198 16.7756L97.4188 63.186C97.7348 63.743 98.2478 63.744 98.5648 63.186L124.953 16.7748C125.27 16.2177 126.046 15.766 126.687 15.766L140.289 15.766C140.93 15.766 141.449 16.2856 141.449 16.9265L141.449 103.206C141.449 103.847 140.93 104.366 140.289 104.366L124.913 104.366C124.272 104.366 123.753 103.847 123.753 103.206L123.753 55.262C123.753 54.621 123.49 54.55 123.167 55.103L104.391 87.197C104.067 87.751 103.285 88.199 102.644 88.199L93.3608 88.199C92.7198 88.199 91.9398 87.75 91.6178 87.195L72.9988 55.105C72.6768 54.551 72.4158 54.621 72.4158 55.262L72.4158 103.206C72.4158 103.847 71.8968 104.366 71.2558 104.366L55.3968 104.366C54.7558 104.366 54.2368 103.847 54.2368 103.206L54.2368 16.9265C54.2368 16.2856 54.7558 15.766 55.3968 15.766Z" fill="none" opacity="1" stroke="#212a3b" stroke-linecap="butt" stroke-linejoin="round" stroke-width="35.3282" vectornator:layerName="path"/>
</g>
</g>
<g opacity="0" vectornator:layerName="path">
<clipPath clip-rule="evenodd" id="ClipPath_3">
<path d="M411.532 89.129L422.18 76.608C422.531 77.311 423.823 78.584 424.589 79.379C426.588 81.451 428.909 83.509 433.225 86.122C437.541 88.736 439.51 89.187 442.769 89.187C446.354 89.187 450.294 88.543 452.861 86.245C455.427 83.947 457.085 82.15 457.085 78.941C457.085 76.169 456.429 75.018 454.351 72.975C452.273 70.933 446.343 69.215 443.777 68.267C441.21 67.318 431.563 63.62 427.448 60.395C423.333 57.171 420.519 55.138 418.278 51.6C416.038 48.062 415.124 43.8203 415.124 39.5892C415.124 33.0967 417.69 27.5343 422.824 22.902C427.957 18.2697 432.102 15.4164 440.884 15.4164C443.102 15.4164 446.966 15.2323 450.992 15.9536C453.045 16.3215 456.725 17.5291 457.588 17.8713C468.472 22.1869 474.652 28.3564 474.652 28.3564L463.85 41.8496C463.85 41.8496 460.626 38.1449 455.659 35.732C450.692 33.3191 448.942 32.4857 443.981 32.1979C439.021 31.9102 435.816 34.5808 435.816 34.5808C435.816 34.5808 433.127 36.2432 433.127 40.3256C433.128 44.408 438.062 47.386 438.062 47.386C438.062 47.386 440.914 48.954 442.095 49.465C443.277 49.976 444.886 50.559 446.923 51.216C448.96 51.872 450.304 52.31 450.956 52.529C465.622 58 474.652 66.006 474.652 78.042C474.652 85.556 471.698 91.976 465.791 97.301C459.884 102.626 452.548 104.947 444.155 104.947C436.089 104.947 427.963 103.554 422.097 98.594C416.23 93.633 418.416 95.376 411.532 89.129Z"/>
</clipPath>
<g clip-path="url(#ClipPath_3)">
<path d="M411.532 89.129L422.18 76.608C422.531 77.311 423.823 78.584 424.589 79.379C426.588 81.451 428.909 83.509 433.225 86.122C437.541 88.736 439.51 89.187 442.769 89.187C446.354 89.187 450.294 88.543 452.861 86.245C455.427 83.947 457.085 82.15 457.085 78.941C457.085 76.169 456.429 75.018 454.351 72.975C452.273 70.933 446.343 69.215 443.777 68.267C441.21 67.318 431.563 63.62 427.448 60.395C423.333 57.171 420.519 55.138 418.278 51.6C416.038 48.062 415.124 43.8203 415.124 39.5892C415.124 33.0967 417.69 27.5343 422.824 22.902C427.957 18.2697 432.102 15.4164 440.884 15.4164C443.102 15.4164 446.966 15.2323 450.992 15.9536C453.045 16.3215 456.725 17.5291 457.588 17.8713C468.472 22.1869 474.652 28.3564 474.652 28.3564L463.85 41.8496C463.85 41.8496 460.626 38.1449 455.659 35.732C450.692 33.3191 448.942 32.4857 443.981 32.1979C439.021 31.9102 435.816 34.5808 435.816 34.5808C435.816 34.5808 433.127 36.2432 433.127 40.3256C433.128 44.408 438.062 47.386 438.062 47.386C438.062 47.386 440.914 48.954 442.095 49.465C443.277 49.976 444.886 50.559 446.923 51.216C448.96 51.872 450.304 52.31 450.956 52.529C465.622 58 474.652 66.006 474.652 78.042C474.652 85.556 471.698 91.976 465.791 97.301C459.884 102.626 452.548 104.947 444.155 104.947C436.089 104.947 427.963 103.554 422.097 98.594C416.23 93.633 418.416 95.376 411.532 89.129Z" fill="none" opacity="1" stroke="#212a3b" stroke-linecap="butt" stroke-linejoin="round" stroke-width="35.3282" vectornator:layerName="path"/>
</g>
</g>
<path d="M442.075 82.939L433.296 92.99C442.701 101.063 453.943 105.099 467.021 105.099C487.243 104.857 497.577 96.3 498.021 79.427C498.021 73.171 496.063 67.681 492.148 62.959C488.192 58.155 482.077 55.188 473.802 54.058C469.604 53.533 466.294 53.069 463.872 52.666C459.513 51.858 456.344 50.405 454.366 48.306C452.389 46.2476 451.4 43.9469 451.4 41.4039C451.48 37.1656 452.954 33.9768 455.82 31.8375C458.564 29.7789 461.995 28.7496 466.113 28.7496C474.064 28.9111 481.35 31.1715 487.97 35.5308L495.417 24.5113C487.304 18.6584 477.758 15.6109 466.779 15.3687C457.656 15.4495 450.613 17.831 445.648 22.5133C440.521 27.2359 437.958 33.4521 437.958 41.1617C437.958 47.58 439.997 53.029 444.074 57.509C448.029 61.869 453.801 64.674 461.39 65.925C465.628 66.531 469.523 67.076 473.075 67.56C480.825 68.892 484.66 72.848 484.579 79.427C484.418 87.46 478.605 91.557 467.142 91.718C457.454 91.638 449.099 88.711 442.075 82.939Z" fill="#212a3b" fill-rule="nonzero" opacity="0" stroke="none" vectornator:layerName="Text 1"/>
<path d="M437.862 49.322C432.717 49.322 429.567 45.857 429.567 41.447C429.567 33.992 435.027 32.837 441.852 32.837L471.987 32.837L471.987 15.407L435.027 15.407C420.957 15.407 411.717 27.377 411.717 40.607C411.717 59.192 423.372 66.752 441.222 66.752L451.827 66.752C458.442 66.752 463.587 70.742 463.587 77.567C463.587 84.812 457.707 88.172 450.567 88.172L414.552 88.172L414.552 104.762L455.292 104.762C469.887 104.762 479.862 93.002 479.862 77.567C479.862 61.187 468.837 49.322 453.927 49.322L437.862 49.322Z" fill="#212a3b" fill-rule="nonzero" opacity="1" stroke="none" vectornator:layerName="path"/>
<g opacity="1" vectornator:layerName="path">
<clipPath clip-rule="evenodd" id="ClipPath_4">
<path d="M648.581 69.993L611.416 69.993C610.512 69.993 609.779 70.726 609.779 71.63L609.779 103.497C609.779 104.401 609.046 105.134 608.142 105.134L593.731 105.134C592.827 105.134 592.094 104.401 592.094 103.497L592.094 55.26C592.094 54.356 592.827 53.623 593.731 53.623L609.779 53.623L648.581 53.623C649.485 53.623 650.218 54.356 650.218 55.26L650.218 68.356C650.218 69.26 649.485 69.993 648.581 69.993Z"/>
</clipPath>
<g clip-path="url(#ClipPath_4)">
<path d="M648.581 69.993L611.416 69.993C610.512 69.993 609.779 70.726 609.779 71.63L609.779 103.497C609.779 104.401 609.046 105.134 608.142 105.134L593.731 105.134C592.827 105.134 592.094 104.401 592.094 103.497L592.094 55.26C592.094 54.356 592.827 53.623 593.731 53.623L609.779 53.623L648.581 53.623C649.485 53.623 650.218 54.356 650.218 55.26L650.218 68.356C650.218 69.26 649.485 69.993 648.581 69.993Z" fill="none" opacity="1" stroke="#212a3b" stroke-linecap="butt" stroke-linejoin="round" stroke-width="35.3282" vectornator:layerName="path"/>
</g>
</g>
<g opacity="1" vectornator:layerName="path">
<clipPath clip-rule="evenodd" id="ClipPath_5">
<path d="M648.597 31.7825L593.715 31.6289C592.82 31.6264 592.094 30.8987 592.094 30.0035L592.094 17.0372C592.094 16.1421 592.82 15.4164 593.715 15.4164L609.779 15.4164L648.597 15.4164C649.492 15.4164 650.218 16.1421 650.218 17.0372L650.218 30.1663C650.218 31.0614 649.492 31.785 648.597 31.7825Z"/>
</clipPath>
<g clip-path="url(#ClipPath_5)">
<path d="M648.597 31.7825L593.715 31.6289C592.82 31.6264 592.094 30.8987 592.094 30.0035L592.094 17.0372C592.094 16.1421 592.82 15.4164 593.715 15.4164L609.779 15.4164L648.597 15.4164C649.492 15.4164 650.218 16.1421 650.218 17.0372L650.218 30.1663C650.218 31.0614 649.492 31.785 648.597 31.7825Z" fill="none" opacity="1" stroke="#298199" stroke-linecap="butt" stroke-linejoin="round" stroke-width="35.3282" vectornator:layerName="path"/>
</g>
</g>
<g opacity="1" vectornator:layerName="path">
<clipPath clip-rule="evenodd" id="ClipPath_6">
<path d="M723.131 32.972L702.274 32.972C701.334 32.972 700.572 33.734 700.572 34.6739L700.572 103.245C700.572 104.185 699.81 104.947 698.87 104.947L684.484 104.947C683.544 104.947 682.782 104.185 682.782 103.245L682.782 34.6739C682.782 33.734 682.02 32.972 681.08 32.972L660.468 32.972C659.528 32.972 658.766 32.2101 658.766 31.2702L658.766 17.4679C658.766 16.528 659.528 15.7682 660.468 15.7709L723.131 15.9487C724.071 15.9514 724.833 16.7155 724.833 17.6554L724.833 31.2702C724.833 32.2101 724.071 32.972 723.131 32.972Z"/>
</clipPath>
<g clip-path="url(#ClipPath_6)">
<path d="M723.131 32.972L702.274 32.972C701.334 32.972 700.572 33.734 700.572 34.6739L700.572 103.245C700.572 104.185 699.81 104.947 698.87 104.947L684.484 104.947C683.544 104.947 682.782 104.185 682.782 103.245L682.782 34.6739C682.782 33.734 682.02 32.972 681.08 32.972L660.468 32.972C659.528 32.972 658.766 32.2101 658.766 31.2702L658.766 17.4679C658.766 16.528 659.528 15.7682 660.468 15.7709L723.131 15.9487C724.071 15.9514 724.833 16.7155 724.833 17.6554L724.833 31.2702C724.833 32.2101 724.071 32.972 723.131 32.972Z" fill="none" opacity="1" stroke="#212a3b" stroke-linecap="butt" stroke-linejoin="round" stroke-width="35.3282" vectornator:layerName="path"/>
</g>
</g>
<g opacity="1" vectornator:layerName="path">
<clipPath clip-rule="evenodd" id="ClipPath_7">
<path d="M235.609 60.066C235.609 35.4068 255.599 15.4164 280.259 15.4164C304.918 15.4164 324.908 35.4068 324.908 60.066C324.908 84.725 304.918 104.716 280.259 104.716C255.599 104.716 235.609 84.725 235.609 60.066Z"/>
</clipPath>
<g clip-path="url(#ClipPath_7)">
<path d="M235.609 60.066C235.609 35.4068 255.599 15.4164 280.259 15.4164C304.918 15.4164 324.908 35.4068 324.908 60.066C324.908 84.725 304.918 104.716 280.259 104.716C255.599 104.716 235.609 84.725 235.609 60.066Z" fill="none" opacity="1" stroke="#212a3b" stroke-linecap="butt" stroke-linejoin="round" stroke-width="35.3282" vectornator:layerName="path"/>
</g>
</g>
<g opacity="1" vectornator:layerName="path">
<clipPath clip-rule="evenodd" id="ClipPath_8">
<path d="M487.327 60.066C487.327 35.4068 507.318 15.4164 531.977 15.4164C556.636 15.4164 576.627 35.4068 576.627 60.066C576.627 84.725 556.636 104.716 531.977 104.716C507.318 104.716 487.327 84.725 487.327 60.066Z"/>
</clipPath>
<g clip-path="url(#ClipPath_8)">
<path d="M487.327 60.066C487.327 35.4068 507.318 15.4164 531.977 15.4164C556.636 15.4164 576.627 35.4068 576.627 60.066C576.627 84.725 556.636 104.716 531.977 104.716C507.318 104.716 487.327 84.725 487.327 60.066Z" fill="none" opacity="1" stroke="#212a3b" stroke-linecap="butt" stroke-linejoin="round" stroke-width="35.3282" vectornator:layerName="path"/>
</g>
</g>
<g opacity="1" vectornator:layerName="path">
<clipPath clip-rule="evenodd" id="ClipPath_9">
<path d="M394.201 84.738L405.744 103.193C406.35 104.162 405.915 104.947 404.772 104.947L388.224 104.947C387.081 104.947 385.642 104.176 385.008 103.225L372.67 84.706C372.036 83.755 372.449 82.984 373.591 82.984L391.035 82.984C392.178 82.984 393.595 83.769 394.201 84.738Z"/>
</clipPath>
<g clip-path="url(#ClipPath_9)">
<path d="M394.201 84.738L405.744 103.193C406.35 104.162 405.915 104.947 404.772 104.947L388.224 104.947C387.081 104.947 385.642 104.176 385.008 103.225L372.67 84.706C372.036 83.755 372.449 82.984 373.591 82.984L391.035 82.984C392.178 82.984 393.595 83.769 394.201 84.738Z" fill="none" opacity="1" stroke="#298199" stroke-linecap="butt" stroke-linejoin="round" stroke-width="35.3282" vectornator:layerName="path"/>
</g>
</g>
<g opacity="1" vectornator:layerName="path">
<clipPath clip-rule="evenodd" id="ClipPath_10">
<path d="M326.083 102.663L353.858 62.388C354.507 61.448 354.529 59.908 353.907 58.95L326.794 17.1518C326.172 16.1934 326.594 15.4164 327.736 15.4164L344.596 15.4164C345.739 15.4164 347.173 16.1906 347.8 17.1455L365.322 43.8286C365.949 44.7835 366.964 44.7824 367.589 43.826L385.024 17.148C385.649 16.1917 387.081 15.4164 388.224 15.4164L404.772 15.4164C405.915 15.4164 406.322 16.1835 405.682 17.1297L347.824 102.653C347.184 103.599 345.739 104.366 344.596 104.366L326.977 104.366C325.835 104.366 325.434 103.604 326.083 102.663Z"/>
</clipPath>
<g clip-path="url(#ClipPath_10)">
<path d="M326.083 102.663L353.858 62.388C354.507 61.448 354.529 59.908 353.907 58.95L326.794 17.1518C326.172 16.1934 326.594 15.4164 327.736 15.4164L344.596 15.4164C345.739 15.4164 347.173 16.1906 347.8 17.1455L365.322 43.8286C365.949 44.7835 366.964 44.7824 367.589 43.826L385.024 17.148C385.649 16.1917 387.081 15.4164 388.224 15.4164L404.772 15.4164C405.915 15.4164 406.322 16.1835 405.682 17.1297L347.824 102.653C347.184 103.599 345.739 104.366 344.596 104.366L326.977 104.366C325.835 104.366 325.434 103.604 326.083 102.663Z" fill="none" opacity="1" stroke="#212a3b" stroke-linecap="butt" stroke-linejoin="round" stroke-width="35.3282" vectornator:layerName="path"/>
</g>
</g>
<g opacity="1" vectornator:layerName="path">
<clipPath clip-rule="evenodd" id="ClipPath_11">
<path d="M192.647 15.875L161.227 15.9645C161.227 15.9645 161.227 20.9666 161.227 25.2442C161.227 29.5217 161.227 33.0617 161.227 33.0617L161.289 66.444C161.289 66.876 161.64 67.228 162.072 67.231L198.226 67.435C201.812 67.435 204.522 68.032 207.088 70.329C209.655 72.627 209.983 74.609 209.983 77.819C209.983 81.029 208.7 83.763 206.134 86.024C203.567 88.286 201.006 88.202 197.421 88.202L162.02 88.291C161.589 88.292 161.238 88.643 161.238 89.075L161.228 103.593C161.228 104.025 161.577 104.374 162.009 104.373L196.018 104.285C204.411 104.285 212.479 102.39 218.427 97.064C224.375 91.739 227.348 85.333 227.348 77.819C227.348 73.442 226.236 69.326 224.036 65.496C221.836 61.666 218.863 58.517 215.115 56.037C218.863 51.66 220.754 46.629 220.754 40.939C220.754 34.0088 217.989 28.1028 212.489 23.2152C206.989 18.3276 200.387 15.875 192.647 15.875ZM178.894 33.0617L187.365 33.0617L191.483 33.0617L194.527 33.0617C197.04 33.0617 198.084 33.04 200.405 34.6133C202.738 36.1954 203.388 38.3128 203.388 40.939C203.388 42.8766 202.899 44.9537 201.807 46.459C201.378 47.051 201.002 47.516 200.405 48.04C198.286 49.901 195.58 50.577 192.647 50.577L178.894 50.518C178.777 50.517 178.683 50.422 178.683 50.305L178.683 33.2736C178.683 33.1566 178.777 33.0617 178.894 33.0617Z"/>
</clipPath>
<g clip-path="url(#ClipPath_11)">
<path d="M192.647 15.875L161.227 15.9645C161.227 15.9645 161.227 20.9666 161.227 25.2442C161.227 29.5217 161.227 33.0617 161.227 33.0617L161.289 66.444C161.289 66.876 161.64 67.228 162.072 67.231L198.226 67.435C201.812 67.435 204.522 68.032 207.088 70.329C209.655 72.627 209.983 74.609 209.983 77.819C209.983 81.029 208.7 83.763 206.134 86.024C203.567 88.286 201.006 88.202 197.421 88.202L162.02 88.291C161.589 88.292 161.238 88.643 161.238 89.075L161.228 103.593C161.228 104.025 161.577 104.374 162.009 104.373L196.018 104.285C204.411 104.285 212.479 102.39 218.427 97.064C224.375 91.739 227.348 85.333 227.348 77.819C227.348 73.442 226.236 69.326 224.036 65.496C221.836 61.666 218.863 58.517 215.115 56.037C218.863 51.66 220.754 46.629 220.754 40.939C220.754 34.0088 217.989 28.1028 212.489 23.2152C206.989 18.3276 200.387 15.875 192.647 15.875ZM178.894 33.0617L187.365 33.0617L191.483 33.0617L194.527 33.0617C197.04 33.0617 198.084 33.04 200.405 34.6133C202.738 36.1954 203.388 38.3128 203.388 40.939C203.388 42.8766 202.899 44.9537 201.807 46.459C201.378 47.051 201.002 47.516 200.405 48.04C198.286 49.901 195.58 50.577 192.647 50.577L178.894 50.518C178.777 50.517 178.683 50.422 178.683 50.305L178.683 33.2736C178.683 33.1566 178.777 33.0617 178.894 33.0617Z" fill="none" opacity="1" stroke="#212a3b" stroke-linecap="butt" stroke-linejoin="round" stroke-width="35.3282" vectornator:layerName="path"/>
</g>
</g>
<g opacity="1" vectornator:layerName="path">
<clipPath clip-rule="evenodd" id="ClipPath_12">
<path d="M16.5738 102.994L16.8918 18.5227C16.8978 17.0538 18.0928 15.8684 19.5618 15.8751L31.8568 15.9307C33.3258 15.9373 34.5168 17.1335 34.5168 18.6024L34.5168 102.994C34.5168 104.463 33.3258 105.653 31.8568 105.653L19.2228 105.653C17.7538 105.653 16.5678 104.463 16.5738 102.994Z"/>
</clipPath>
<g clip-path="url(#ClipPath_12)">
<path d="M16.5738 102.994L16.8918 18.5227C16.8978 17.0538 18.0928 15.8684 19.5618 15.8751L31.8568 15.9307C33.3258 15.9373 34.5168 17.1335 34.5168 18.6024L34.5168 102.994C34.5168 104.463 33.3258 105.653 31.8568 105.653L19.2228 105.653C17.7538 105.653 16.5678 104.463 16.5738 102.994Z" fill="none" opacity="1" stroke="#212a3b" stroke-linecap="butt" stroke-linejoin="round" stroke-width="35.3282" vectornator:layerName="path"/>
</g>
</g>
</g>
</g>
</svg>
