<?xml version="1.0" encoding="UTF-8" standalone="no"?>
<!DOCTYPE svg PUBLIC "-//W3C//DTD SVG 1.1//EN" "http://www.w3.org/Graphics/SVG/1.1/DTD/svg11.dtd">
<!-- Created with Vectornator (http://vectornator.io/) -->
<svg height="100%" stroke-miterlimit="10" style="fill-rule:nonzero;clip-rule:evenodd;stroke-linecap:round;stroke-linejoin:round;" version="1.1" viewBox="0 0 151.06 158.004" width="100%" xml:space="preserve" xmlns="http://www.w3.org/2000/svg" xmlns:vectornator="http://vectornator.io" xmlns:xlink="http://www.w3.org/1999/xlink">
<defs>
<path d="M31.8335 14.4498C33.4733 9.17597 39.0778 6.23004 44.3516 7.86984L142.026 38.2402C147.3 39.88 150.246 45.4846 148.606 50.7584L119.225 145.25C117.585 150.524 111.981 153.47 106.707 151.83L9.03255 121.46C3.75876 119.82 0.812826 114.216 2.45263 108.942L31.8335 14.4498Z" id="Fill"/>
<path d="M13.3521 30.6701C13.3521 25.1473 17.8292 20.6701 23.3521 20.6701L127.96 20.6701C133.483 20.6701 137.96 25.1473 137.96 30.6701L137.96 132.964C137.96 138.487 133.483 142.964 127.96 142.964L23.3521 142.964C17.8292 142.964 13.3521 138.487 13.3521 132.964L13.3521 30.6701Z" id="Fill_2"/>
<path d="M51.7305 131.176C51.7305 125.765 56.1167 121.379 61.5273 121.379C66.9379 121.379 71.3241 125.765 71.3241 131.176C71.3241 136.586 66.9379 140.972 61.5273 140.972C56.1167 140.972 51.7305 136.586 51.7305 131.176Z" id="Fill_3"/>
<path d="M114.055 16.6701C114.055 8.66069 120.548 2.16777 128.557 2.16777C136.567 2.16777 143.06 8.66069 143.06 16.6701C143.06 24.6795 136.567 31.1725 128.557 31.1725C120.548 31.1725 114.055 24.6795 114.055 16.6701Z" id="Fill_4"/>
<path d="M43.4644 150.571C43.4644 147.662 45.8221 145.305 48.7305 145.305C51.6389 145.305 53.9966 147.662 53.9966 150.571C53.9966 153.479 51.6389 155.837 48.7305 155.837C45.8221 155.837 43.4644 153.479 43.4644 150.571Z" id="Fill_5"/>
<path d="M106.043 91.9401L111.055 100.059C111.318 100.485 111.13 100.831 110.633 100.831L103.448 100.831C102.952 100.831 102.327 100.491 102.052 100.073L96.6941 91.9259C96.419 91.5076 96.5982 91.1686 97.0943 91.1686L104.669 91.1686C105.165 91.1686 105.78 91.514 106.043 91.9401Z" id="Fill_6"/>
<path d="M76.4653 99.826L88.5258 82.1078C88.8075 81.6941 88.8169 81.0169 88.547 80.5952L76.774 62.2071C76.504 61.7855 76.6873 61.4436 77.1834 61.4436L84.5041 61.4436C85.0001 61.4436 85.623 61.7842 85.8953 62.2043L93.5037 73.9429C93.776 74.363 94.2167 74.3625 94.4881 73.9418L102.058 62.2054C102.33 61.7847 102.952 61.4436 103.448 61.4436L110.633 61.4436C111.13 61.4436 111.306 61.7811 111.028 62.1974L85.9055 99.8214C85.6276 100.238 85.0001 100.575 84.5041 100.575L76.8536 100.575C76.3575 100.575 76.1837 100.24 76.4653 99.826Z" id="Fill_7"/>
<path d="M65.3981 61.3345L51.7553 61.3739C51.7553 61.3739 51.7553 63.5745 51.7553 65.4563C51.7553 67.3381 51.7553 68.8954 51.7553 68.8954L51.782 83.5814C51.7823 83.7713 51.9346 83.9261 52.122 83.9272L67.8209 84.0172C69.3776 84.0173 70.5545 84.2796 71.6689 85.2905C72.7833 86.3014 72.9256 87.1732 72.9256 88.5853C72.9256 89.9974 72.3687 91.2002 71.2543 92.1951C70.1399 93.19 69.0278 93.1533 67.4711 93.1533L52.0997 93.1924C51.9122 93.1929 51.7601 93.3473 51.76 93.5372L51.7556 99.924C51.7554 100.114 51.9073 100.268 52.0948 100.267L66.8622 100.229C70.5062 100.229 74.0096 99.3947 76.5922 97.0519C77.3993 96.3198 78.0803 95.5413 78.6351 94.7159C79.8558 92.9001 80.4661 90.8578 80.4661 88.5853C80.4661 86.6597 79.9832 84.8489 79.028 83.164C78.0727 81.4792 76.7815 80.094 75.1541 79.0029C76.7815 77.0773 77.6028 74.8641 77.6028 72.3608C77.6028 69.3121 76.402 66.7139 74.0139 64.5637C71.6259 62.4135 68.7591 61.3345 65.3981 61.3345ZM59.4267 68.8954L63.1049 68.8954L64.8928 68.8954L66.2144 68.8954C67.3059 68.8954 67.7591 68.8859 68.7667 69.578C69.7799 70.274 70.0623 71.2055 70.0623 72.3608C70.0623 73.2132 69.8497 74.127 69.3757 74.7893C69.1894 75.0495 69.0262 75.2541 68.7667 75.485C67.8469 76.3033 66.6718 76.6007 65.3981 76.6007L59.4267 76.5749C59.3758 76.5747 59.3347 76.5327 59.3347 76.4813L59.3347 68.9886C59.3347 68.9372 59.3758 68.8954 59.4267 68.8954Z" id="Fill_8"/>
<path d="M42.2808 99.7696L42.419 62.6084C42.4214 61.9622 42.9404 61.4407 43.5782 61.4437L48.917 61.4681C49.5548 61.4711 50.0719 61.9973 50.0719 62.6435L50.0719 99.7696C50.0719 100.416 49.5548 100.94 48.917 100.94L43.4313 100.94C42.7935 100.94 42.2784 100.416 42.2808 99.7696Z" id="Fill_9"/>
</defs>
<g id="Layer-1" vectornator:layerName="Layer 1">
<g opacity="1" vectornator:layerName="Group 7">
<g opacity="1" vectornator:layerName="Group 2">
<g opacity="1" vectornator:layerName="Rectangle 2">
<use fill="#52b2bf" fill-rule="nonzero" stroke="none" xlink:href="#Fill"/>
<mask height="144.868" id="StrokeMask" maskUnits="userSpaceOnUse" width="147.061" x="1.99901" y="7.41622">
<rect fill="#000000" height="144.868" stroke="none" width="147.061" x="1.99901" y="7.41622"/>
<use fill="#ffffff" fill-rule="evenodd" stroke="none" xlink:href="#Fill"/>
</mask>
<use fill="none" mask="url(#StrokeMask)" stroke="#52b2bf" stroke-linecap="round" stroke-linejoin="round" stroke-width="46.224" xlink:href="#Fill"/>
</g>
<g opacity="0.504731" vectornator:layerName="Rectangle 1">
<use fill="#005074" fill-rule="nonzero" stroke="none" xlink:href="#Fill_2"/>
<mask height="122.294" id="StrokeMask_2" maskUnits="userSpaceOnUse" width="124.608" x="13.3521" y="20.6701">
<rect fill="#000000" height="122.294" stroke="none" width="124.608" x="13.3521" y="20.6701"/>
<use fill="#ffffff" fill-rule="evenodd" stroke="none" xlink:href="#Fill_2"/>
</mask>
<use fill="none" mask="url(#StrokeMask_2)" stroke="#005074" stroke-linecap="round" stroke-linejoin="round" stroke-width="53.02" xlink:href="#Fill_2"/>
</g>
<g opacity="1" vectornator:layerName="Oval 2">
<use fill="#7ea7b9" fill-rule="nonzero" stroke="none" xlink:href="#Fill_3"/>
<mask height="19.5936" id="StrokeMask_3" maskUnits="userSpaceOnUse" width="19.5936" x="51.7305" y="121.379">
<rect fill="#000000" height="19.5936" stroke="none" width="19.5936" x="51.7305" y="121.379"/>
<use fill="#ffffff" fill-rule="evenodd" stroke="none" xlink:href="#Fill_3"/>
</mask>
<use fill="none" mask="url(#StrokeMask_3)" stroke="#7ea7b9" stroke-linecap="round" stroke-linejoin="round" stroke-width="43.42" xlink:href="#Fill_3"/>
</g>
<g opacity="0.504731" vectornator:layerName="Oval 1">
<use fill="#005074" fill-rule="nonzero" stroke="none" xlink:href="#Fill_4"/>
<mask height="29.0047" id="StrokeMask_4" maskUnits="userSpaceOnUse" width="29.0047" x="114.055" y="2.16777">
<rect fill="#000000" height="29.0047" stroke="none" width="29.0047" x="114.055" y="2.16777"/>
<use fill="#ffffff" fill-rule="evenodd" stroke="none" xlink:href="#Fill_4"/>
</mask>
<use fill="none" mask="url(#StrokeMask_4)" stroke="#005074" stroke-linecap="round" stroke-linejoin="round" stroke-width="53.02" xlink:href="#Fill_4"/>
</g>
<g opacity="0.503271" vectornator:layerName="Oval 3">
<use fill="#005074" fill-rule="nonzero" stroke="none" xlink:href="#Fill_5"/>
<mask height="10.5322" id="StrokeMask_5" maskUnits="userSpaceOnUse" width="10.5322" x="43.4644" y="145.305">
<rect fill="#000000" height="10.5322" stroke="none" width="10.5322" x="43.4644" y="145.305"/>
<use fill="#ffffff" fill-rule="evenodd" stroke="none" xlink:href="#Fill_5"/>
</mask>
<use fill="none" mask="url(#StrokeMask_5)" stroke="#005074" stroke-linecap="round" stroke-linejoin="round" stroke-width="37.1887" xlink:href="#Fill_5"/>
</g>
</g>
<g opacity="1">
<g opacity="1" vectornator:layerName="Curve">
<use fill="#ffffff" fill-rule="nonzero" stroke="none" xlink:href="#Fill_6"/>
<mask height="9.66195" id="StrokeMask_6" maskUnits="userSpaceOnUse" width="14.609" x="96.5651" y="91.1686">
<rect fill="#000000" height="9.66195" stroke="none" width="14.609" x="96.5651" y="91.1686"/>
<use fill="#ffffff" fill-rule="evenodd" stroke="none" xlink:href="#Fill_6"/>
</mask>
<use fill="none" mask="url(#StrokeMask_6)" stroke="#ffffff" stroke-linecap="butt" stroke-linejoin="round" stroke-width="16.1375" xlink:href="#Fill_6"/>
</g>
<g opacity="1" vectornator:layerName="Curve">
<use fill="#212a3b" fill-rule="nonzero" stroke="none" xlink:href="#Fill_7"/>
<mask height="39.1315" id="StrokeMask_7" maskUnits="userSpaceOnUse" width="34.8294" x="76.3305" y="61.4436">
<rect fill="#000000" height="39.1315" stroke="none" width="34.8294" x="76.3305" y="61.4436"/>
<use fill="#ffffff" fill-rule="evenodd" stroke="none" xlink:href="#Fill_7"/>
</mask>
<use fill="none" mask="url(#StrokeMask_7)" stroke="#ffffff" stroke-linecap="butt" stroke-linejoin="round" stroke-width="16.1375" xlink:href="#Fill_7"/>
</g>
<g opacity="1">
<use fill="#212a3b" fill-rule="nonzero" stroke="none" xlink:href="#Fill_8"/>
<mask height="38.9325" id="StrokeMask_8" maskUnits="userSpaceOnUse" width="28.7108" x="51.7553" y="61.3345">
<rect fill="#000000" height="38.9325" stroke="none" width="28.7108" x="51.7553" y="61.3345"/>
<use fill="#ffffff" fill-rule="evenodd" stroke="none" xlink:href="#Fill_8"/>
</mask>
<use fill="none" mask="url(#StrokeMask_8)" stroke="#ffffff" stroke-linecap="butt" stroke-linejoin="round" stroke-width="16.1375" xlink:href="#Fill_8"/>
</g>
<g opacity="1" vectornator:layerName="Curve 1">
<use fill="#212a3b" fill-rule="nonzero" stroke="none" xlink:href="#Fill_9"/>
<mask height="39.496" id="StrokeMask_9" maskUnits="userSpaceOnUse" width="7.79113" x="42.2808" y="61.4436">
<rect fill="#000000" height="39.496" stroke="none" width="7.79113" x="42.2808" y="61.4436"/>
<use fill="#ffffff" fill-rule="evenodd" stroke="none" xlink:href="#Fill_9"/>
</mask>
<use fill="none" mask="url(#StrokeMask_9)" stroke="#ffffff" stroke-linecap="butt" stroke-linejoin="round" stroke-width="16.1375" xlink:href="#Fill_9"/>
</g>
</g>
</g>
</g>
</svg>
