<?xml version="1.0" encoding="UTF-8"?><svg xmlns="http://www.w3.org/2000/svg" viewBox="0 0 2000 2000"><g id="Layer_2"><rect x="262.29" y="1529.33" width="723.91" height="375.56" fill="#e59cac"/><path d="M246.89,1876.73s14.94,93.05,31.12,93.67c16.8,0,33.29-93.67,33.29-93.67h-64.41Z" stroke="#000" stroke-miterlimit="10"/><path d="M938.28,1876.73s14.94,93.05,31.12,93.67c16.8,0,33.29-93.67,33.29-93.67h-64.41Z" stroke="#000" stroke-miterlimit="10"/><path d="M1534.46,1876.73s14.94,93.05,31.12,93.67c16.8,0,33.29-93.67,33.29-93.67h-64.41Z" stroke="#000" stroke-miterlimit="10"/><polygon points="1619.09 1904.89 954 1904.89 954 1424.47 1661.1 1424.47 1619.09 1904.89" fill="#ba5868"/><polygon points="1161.23 1404.86 175.48 1404.86 175.48 1146.14 1161.23 1143.02 1161.23 1404.86" fill="#ba5868"/><path d="M1589.22,1314.25s-784.12,207.43-765.45-53.41,197.89-707.77,271.64-744.17,747.85-30.8,773.92-11.2-280.11,808.78-280.11,808.78Z" fill="#ef6c7c"/><path d="M1561.22,1221.44h206.3s193.05-397.04,202.07-444.18-18.64-261.52-100.25-270.86c-99.56-10.27-308.12,715.04-308.12,715.04Z" fill="#ba5868"/><path d="M217.11,1904.89h120v-353.33h608.89l-15.56,353.33h122.22l42.22-424.44s102.28,56.5,173.33,40c34.43-10.57,130.57-191.66,74.72-267.3-56.62-42.64-106.12-95.15-214.63-97.5s-155.65,207.02-155.65,207.02c-13.54-12.41-608.16-24.55-652.93,6.67,0,0-29.91-198.3-120.36-221.29-16.89-5.95-124.24-7.82-142.07,24.71-57.3,38.41-37.57,301.04,29.8,333.55,31.9,36.24,87.91-30.97,102.84-16.03s27.16,414.61,27.16,414.61Z" fill="#ef6c7c"/><ellipse cx="125.07" cy="1332.05" rx="40.61" ry="60.21" transform="translate(-332.85 74.95) rotate(-14.65)" fill="#ef8b9c"/></g><g id="Layer_12"><rect x="470.39" y="1196.47" width="603.56" height="159.16" fill="#0d202d"/><path d="M1401.38,1355.63h-567c-26.48,0-114.64-106.6-9.33-145.66,138.89-47.34,576.33-23.57,576.33-23.57v169.23Z" fill="#112d44"/><path d="M463.92,1977.55l-63.23-96.44s340.02-634.02,392.09-648.14c32.27-22.99,120.61-1.63,105.98,87.19-13.17,19.6-434.84,657.39-434.84,657.39Z" fill="#112d44"/><path d="M386.91,1971.03c37.34,36.39,53.21-29.79,53.21-29.79,0,0-103.01-172.79-117.62-167.66-25.2,15.4,27.07,161.05,64.41,197.44Z"/><path d="M508.73,1903.34l-86.24-86.81s-24.48-525.69-6.74-587.51,113.19-24.92,133.66,10.01-40.67,664.32-40.67,664.32Z" fill="#112d44"/><path d="M453.69,1893.1c37.34,36.39,33.15-9.73,33.15-9.73,0,0-44.64-182.03-115.58-182.34s45.09,155.68,82.43,192.07Z"/></g><g id="Layer_4"><g id="Layer_7"><polygon points="1405.68 1234.87 966.52 1186.04 1076.75 656.66 1192.22 584.19 1447.36 563.34 1566.24 648.26 1405.68 1234.87" fill="#112d44"/></g><g id="Layer_8"><path d="M1227.97,557.74s-45.17,52.28-48.03,70.52c-21.4,299.14-80.81,514.77-80.81,514.77,0,0,29.55,12.68,40.35-8.22,50.08-227.95,204.25-564,227.58-564.93s-139.09-12.14-139.09-12.14Z" fill="#6cddcf"/></g><g id="r-arm"><path d="M1034.13,724.83c-13.69,60.36-34.15,263.14-64.73,269.3s77.39,61.77,77.39,61.77c0,0,38.04-332.27,45.21-386.46,6.22-41.94-44.17-1.87-57.87,55.39Z" fill="#6cddcf"/><path d="M945.13,1049.68s-21.38-46.21,8.45-64.41c29.83-18.2,73.73-3.04,89.12,21.35s11.21,69.67-19.33,71.84-78.24-28.78-78.24-28.78Z" fill="#0d202d"/><path d="M881.65,1107.55c13.54-28.94,63.48-114.35,105.02-113.42s54.06,59.67,39.97,76.13-40.9,50.26-50.23,53.99-108.28,12.23-94.75-16.7Z" fill="#efb6b6"/><path d="M855.52,1104.75c-10.27,0-17.27,60.68-.93,63.38,22.4,2.43,55.07,2.43,76.54,2.43,13.54,0,84.95-60.68,68.87-63.48-40.87-5.6-129.08-1.87-144.48-2.33Z" fill="#efb6b6"/></g><g id="l-arm"><path d="M1490.28,636.15c-15.71,119.48-138.15,363.85-138.15,363.85l124.15,69.28s127.89-220.55,120.42-323.11c.31-153.9-106.42-124.96-106.42-110.02Z" fill="#6cddcf"/><path d="M1352.12,977.8c32.67-25.67,134.42-22.4,136.29,58.81.05,72.81-31.72,82.77-52.73,81.12-53.68-7.38-97.56-39.59-114.36-51.72-16.8-13.54-1.87-62.54,30.8-88.21Z" fill="#0d202d"/><path d="M1130.89,1119.93c118.55-17.97,188.05-110.68,253.59-115.68,76.54,0,80.9,76.39,36.41,112.48-23.34,24.27-188.25,40.29-304.93,40.29-15.25,0-34.54-32.05,14.94-37.1Z" fill="#efb6b6"/><path d="M1147.69,1117.89c-42.01,5.53-65.34-20.61-94.75-20.61s-57.88,7.47-74.68,13.07-85.36,58.31-34.54,58.34,33.14.47,56.94-2.33,35.18-22.64,40.61-22.64c8.4-.7,20.27,9.07,46.08,13.29s63.15-2.06,70.14-2.89,21-29.3-9.8-36.23Z" fill="#efb6b6"/></g></g><g id="Layer_13"><rect x="530.87" y="1172.39" width="543.07" height="24.08" fill="#667275"/><path d="M818.16,1195.75h-395.14c-9.36,0-17.61-6.14-20.3-15.1l-94.64-315.6c-4.08-13.59,6.1-27.27,20.3-27.27h391.85c9.28,0,17.48,6.04,20.24,14.91l97.93,315.6c4.23,13.64-5.96,27.47-20.24,27.47Z" fill="#bec9cc"/><path d="M580.14,1017.66c.93,18.72-6.07,32.02-19.14,32.02-15.17,0-28.94-13.07-30.13-32.02,0-18.71,2.13-32.16,14.73-33.89,20.77-1.07,33.14,16.23,34.54,33.89Z" fill="#eaeaea"/></g><g id="Layer_14"><path d="M1828.66,1522.01c-16.34,0-595.64-1.88-595.64-1.88l-104.34-364.42s583.76,1.32,664.98,3.19,119.34,112.25,120.32,146.55-26.97,202.56-85.32,216.57Z" fill="#ba5868"/><path d="M1094.89,1480.44c17.09,8.57,102.28,56.5,173.33,40,34.43-10.57,130.57-191.66,74.72-267.3-56.62-42.64-106.12-95.15-214.63-97.5-100.11-.02-158.15,177.25-143.23,215.33,23.52,53.49,92.72,100.9,109.81,109.47Z" fill="#ef6c7c"/><ellipse cx="1202.53" cy="1346.05" rx="54.61" ry="41.31" transform="translate(-504.91 1931.35) rotate(-67.14)" fill="#ef8b9c"/></g><g id="Layer_10"><polygon points="1445.85 537.35 1353.29 570.26 1353.29 494.26 1412.93 494.26 1445.85 537.35" fill="#0d202d"/><polygon points="1204.63 583.18 1143.79 626.5 1146.26 593.13 1184.72 557.74 1204.63 583.18" fill="#0d202d"/></g><g id="Layer_11"><path d="M1177.99,653.97s-2.29-41.47-5.4-48-10.58-9.02-19.6-7.16-9.02,27.58-9.02,27.58c0,0-3.6-31.63,2.8-38.3s22.15-31.41,35.48-34.22,79.96-19.77,79.96-19.77c0,0-49.16,39.52-63.16,59.74s-21.04,60.14-21.04,60.14Z" fill="#658ba5"/></g><g id="Layer_3"><path d="M1433.33,598.81c-19.9,9.84-218.43,67.68-205.83,15.87,6.73-24.74.68-195.1.68-195.1,0,0,107.54-39.27,117.37-36.9,3.77-.1,45.31,176.92,87.78,216.13Z" fill="#cc9696"/><path id="base-hair" d="M1085.53,404.84s-43.58-63.1-46.18-114.22,66.44-67.63,66.44-67.63l26.29,130.88-46.56,50.97Z" fill="#3a2a28"/><path id="face" d="M1052.5,280.46l15.68,75.39,21.25,76.33s1.81,4.06,14.04,61.4c2.3,11.81,55.11,89.56,118.69,82.76,117.46-12.92,134.5-152.49,134.5-152.49l12.25-99.04-13.15-111.9-134.03-153.29-151.25,48.69-18,172.14Z" fill="#efb6b6"/><g id="nose"><path d="M1118.21,323.4c14.44,27.11,20.34,58.42,17.48,88.97-.7,7.52-2.05,14.95-3.91,22.28s-3.97,14.76-2.49,22.4c2.37,12.21,14.24,21.42,26.65,18.92,6.93-1.4,4-12-2.92-10.61-5.08,1.02-9.84-3.03-11.91-7.36-3.1-6.48-.36-13.94,1.28-20.44,3.33-13.14,5.01-26.73,5-40.29,0-27.59-6.71-55.07-19.68-79.43-3.33-6.25-12.83-.7-9.5,5.55h0Z" fill="#cc9696"/></g><g id="mouth"><path d="M1158.53,507.53c24.4-.61,47.05-9.97,65.94-25.2,5.51-4.44-2.31-12.18-7.78-7.78-16.53,13.32-36.87,21.45-58.16,21.98-7.07.18-7.09,11.18,0,11h0Z" fill="#cc9696"/></g><ellipse id="r-eye" cx="1110.06" cy="378.92" rx="12.2" ry="21.24" transform="translate(-61.67 325.5) rotate(-16.24)"/><polygon id="r-eyebrow" points="1044.99 330.61 1087.27 327.59 1116.33 309.5 1067.42 305.78 1044.99 330.61" fill="#3a2a28"/><ellipse id="l-eye" cx="1191.09" cy="365.41" rx="11.52" ry="24.26" transform="translate(-54.4 396.62) rotate(-18.49)"/><polygon id="l-eyebrow" points="1145.02 299.85 1184.97 266.56 1237.15 278.17 1190.5 292.63 1145.02 299.85" fill="#3a2a28"/><path d="M1286.96,69.25c-44.23-30.08-89.71-43.1-100.08,10.23-21.23-4.86-143.34-49.61-123.22,55.88-20.4-7.01-82.64,11.38-103.46,49.99,2.37-50,47.45-98.98,67.17-89.69-21.06-121.25,108.82-68.76,127.78-62.56,36.43-48.17,93.13-7.9,131.8,36.15Z" fill="#5b3b39"/><path d="M1408.33,189.41c0,18.28-31.89,129.82-34.94,121.28-.97-2.7-2.97-.91-5.62,2.85-5.74,8.12-14.51,25.42-22.34,26.31s-30.48-46.89-45.17-86.07c-6.89-18.38-12.03-34.87-13.05-43.55-22.88,43.42-77.4,32.43-90.21,26.01-38.84,56.39-86.54,26.37-86.54,26.37,2.1,17.87-93.13,78.63-112.91-8.42-28.96-18.36-38.54-43.72-37.34-68.83,20.82-38.62,83.05-57,103.46-49.99-20.12-105.49,101.99-60.74,123.22-55.88,10.37-53.33,55.85-40.3,100.08-10.23,22.88,26.06,39.46,39.06,41.78,50.22,47.33-19.99,79.6,51.65,79.6,69.93Z" fill="#3a2a28"/><path id="l-ear" d="M1332,324.28s5.51-30.55,40.98-34.58c35.47-4.03,42.18,33.74,39.39,50.65-18.48,69.3-59.95,75.69-60.77,86.5l-33.09-66.38,13.49-36.18Z" fill="#efb6b6"/><path d="M1349.95,389.39c1.41-12.64,4.19-26.67,13.06-36.37,8.95-9.79,21.62-10.16,33.68-6.75,6.82,1.93,9.74-8.68,2.92-10.61-15.19-4.29-31.73-3.24-43.35,8.5-11.84,11.96-15.51,29.11-17.31,45.24-.78,7.02,10.22,6.97,11,0h0Z" fill="#cc9696"/><path d="M1381.57,378.92c-.45-13.66-7.26-27.09-19.51-33.77-6.22-3.39-11.78,6.11-5.55,9.5,8.84,4.82,13.74,14.37,14.06,24.27.23,7.06,11.23,7.09,11,0h0Z" fill="#cc9696"/></g><g id="Layer_15"><polygon points="1318.02 647.34 1347.18 599.28 1417 555.4 1460.4 601.37 1419.8 661.82 1318.02 647.34" fill="#112d44"/></g><g id="Layer_9"><path d="M1359.28,568c10.07-5.47,31.11-16.22,48.38-29.81s5.27-43.93,5.27-43.93c0,0,30.26,23.33,34.43,33.14s2.77,40.14.91,48.08-55.54,76.08-55.54,76.08c0,0-12.29-57.72-22.87-59.43s-48.46,48.5-48.46,48.5c0,0,27.81-67.15,37.88-72.61Z" fill="#658ba5"/></g></svg>