<?xml version="1.0" encoding="UTF-8" standalone="no"?>
<!DOCTYPE svg PUBLIC "-//W3C//DTD SVG 1.1//EN" "http://www.w3.org/Graphics/SVG/1.1/DTD/svg11.dtd">
<!-- Created with Vectornator (http://vectornator.io/) -->
<svg height="100%" stroke-miterlimit="10" style="fill-rule:nonzero;clip-rule:evenodd;stroke-linecap:round;stroke-linejoin:round;" version="1.1" viewBox="0 0 736.03 117.98" width="100%" xml:space="preserve" xmlns="http://www.w3.org/2000/svg" xmlns:xlink="http://www.w3.org/1999/xlink">
<defs>
<path d="M723.131 32.972L702.274 32.972C701.334 32.972 700.572 33.734 700.572 34.6739L700.572 103.245C700.572 104.185 699.81 104.947 698.87 104.947L684.484 104.947C683.544 104.947 682.782 104.185 682.782 103.245L682.782 34.6739C682.782 33.734 682.02 32.972 681.08 32.972L660.468 32.972C659.528 32.972 658.766 32.2101 658.766 31.2702L658.766 17.4679C658.766 16.528 659.528 15.7682 660.468 15.7709L723.131 15.9487C724.071 15.9514 724.833 16.7155 724.833 17.6554L724.833 31.2702C724.833 32.2101 724.071 32.972 723.131 32.972Z" id="Fill"/>
<path d="M648.581 69.993L611.416 69.993C610.512 69.993 609.779 70.726 609.779 71.63L609.779 103.497C609.779 104.401 609.046 105.134 608.142 105.134L593.731 105.134C592.827 105.134 592.094 104.401 592.094 103.497L592.094 55.26C592.094 54.356 592.827 53.623 593.731 53.623L609.779 53.623L648.581 53.623C649.485 53.623 650.218 54.356 650.218 55.26L650.218 68.356C650.218 69.26 649.485 69.993 648.581 69.993Z" id="Fill_2"/>
<path d="M648.597 31.7825L593.715 31.6289C592.82 31.6264 592.094 30.8987 592.094 30.0035L592.094 17.0372C592.094 16.1421 592.82 15.4164 593.715 15.4164L609.779 15.4164L648.597 15.4164C649.492 15.4164 650.218 16.1421 650.218 17.0372L650.218 30.1663C650.218 31.0614 649.492 31.785 648.597 31.7825Z" id="Fill_3"/>
<path d="M394.201 84.738L405.744 103.193C406.35 104.162 405.915 104.947 404.772 104.947L388.224 104.947C387.081 104.947 385.642 104.176 385.008 103.225L372.67 84.706C372.036 83.755 372.449 82.984 373.591 82.984L391.035 82.984C392.178 82.984 393.595 83.769 394.201 84.738Z" id="Fill_4"/>
<path d="M326.083 102.663L353.858 62.388C354.507 61.448 354.529 59.908 353.907 58.95L326.794 17.1518C326.172 16.1934 326.594 15.4164 327.736 15.4164L344.596 15.4164C345.739 15.4164 347.173 16.1906 347.8 17.1455L365.322 43.8286C365.949 44.7835 366.964 44.7824 367.589 43.826L385.024 17.148C385.649 16.1917 387.081 15.4164 388.224 15.4164L404.772 15.4164C405.915 15.4164 406.322 16.1835 405.682 17.1297L347.824 102.653C347.184 103.599 345.739 104.366 344.596 104.366L326.977 104.366C325.835 104.366 325.434 103.604 326.083 102.663Z" id="Fill_5"/>
<path d="M192.647 15.875L161.227 15.9645C161.227 15.9645 161.227 20.9666 161.227 25.2442C161.227 29.5217 161.227 33.0617 161.227 33.0617L161.289 66.444C161.289 66.876 161.64 67.228 162.072 67.231L198.226 67.435C201.812 67.435 204.522 68.032 207.088 70.329C209.655 72.627 209.983 74.609 209.983 77.819C209.983 81.029 208.7 83.763 206.134 86.024C203.567 88.286 201.006 88.202 197.421 88.202L162.02 88.291C161.589 88.292 161.238 88.643 161.238 89.075L161.228 103.593C161.228 104.025 161.577 104.374 162.009 104.373L196.018 104.285C204.411 104.285 212.479 102.39 218.427 97.064C224.375 91.739 227.348 85.333 227.348 77.819C227.348 73.442 226.236 69.326 224.036 65.496C221.836 61.666 218.863 58.517 215.115 56.037C218.863 51.66 220.754 46.629 220.754 40.939C220.754 34.0088 217.989 28.1028 212.489 23.2152C206.989 18.3276 200.387 15.875 192.647 15.875ZM178.894 33.0617L187.365 33.0617L191.483 33.0617L194.527 33.0617C197.04 33.0617 198.084 33.04 200.405 34.6133C202.738 36.1954 203.388 38.3128 203.388 40.939C203.388 42.8766 202.899 44.9537 201.807 46.459C201.378 47.051 201.002 47.516 200.405 48.04C198.286 49.901 195.58 50.577 192.647 50.577L178.894 50.518C178.777 50.517 178.683 50.422 178.683 50.305L178.683 33.2736C178.683 33.1566 178.777 33.0617 178.894 33.0617Z" id="Fill_6"/>
<path d="M55.3968 15.766L69.3878 15.766C70.0288 15.766 70.8038 16.218 71.1198 16.7756L97.4188 63.186C97.7348 63.743 98.2478 63.744 98.5648 63.186L124.953 16.7748C125.27 16.2177 126.046 15.766 126.687 15.766L140.289 15.766C140.93 15.766 141.449 16.2856 141.449 16.9265L141.449 103.206C141.449 103.847 140.93 104.366 140.289 104.366L124.913 104.366C124.272 104.366 123.753 103.847 123.753 103.206L123.753 55.262C123.753 54.621 123.49 54.55 123.167 55.103L104.391 87.197C104.067 87.751 103.285 88.199 102.644 88.199L93.3608 88.199C92.7198 88.199 91.9398 87.75 91.6178 87.195L72.9988 55.105C72.6768 54.551 72.4158 54.621 72.4158 55.262L72.4158 103.206C72.4158 103.847 71.8968 104.366 71.2558 104.366L55.3968 104.366C54.7558 104.366 54.2368 103.847 54.2368 103.206L54.2368 16.9265C54.2368 16.2856 54.7558 15.766 55.3968 15.766Z" id="Fill_7"/>
<path d="M16.5738 102.994L16.8918 18.5227C16.8978 17.0538 18.0928 15.8684 19.5618 15.8751L31.8568 15.9307C33.3258 15.9373 34.5168 17.1335 34.5168 18.6024L34.5168 102.994C34.5168 104.463 33.3258 105.653 31.8568 105.653L19.2228 105.653C17.7538 105.653 16.5678 104.463 16.5738 102.994Z" id="Fill_8"/>
</defs>
<g id="classic" visibility="hidden">
<g opacity="1">
<g opacity="1">
<clipPath clip-rule="nonzero" id="ClipPath">
<path d="M723.131 32.972L702.274 32.972C701.334 32.972 700.572 33.734 700.572 34.6739L700.572 103.245C700.572 104.185 699.81 104.947 698.87 104.947L684.484 104.947C683.544 104.947 682.782 104.185 682.782 103.245L682.782 34.6739C682.782 33.734 682.02 32.972 681.08 32.972L660.468 32.972C659.528 32.972 658.766 32.2101 658.766 31.2702L658.766 17.4679C658.766 16.528 659.528 15.7682 660.468 15.7709L723.131 15.9487C724.071 15.9514 724.833 16.7155 724.833 17.6554L724.833 31.2702C724.833 32.2101 724.071 32.972 723.131 32.972Z"/>
</clipPath>
<g clip-path="url(#ClipPath)">
<path d="M723.131 32.972L702.274 32.972C701.334 32.972 700.572 33.734 700.572 34.6739L700.572 103.245C700.572 104.185 699.81 104.947 698.87 104.947L684.484 104.947C683.544 104.947 682.782 104.185 682.782 103.245L682.782 34.6739C682.782 33.734 682.02 32.972 681.08 32.972L660.468 32.972C659.528 32.972 658.766 32.2101 658.766 31.2702L658.766 17.4679C658.766 16.528 659.528 15.7682 660.468 15.7709L723.131 15.9487C724.071 15.9514 724.833 16.7155 724.833 17.6554L724.833 31.2702C724.833 32.2101 724.071 32.972 723.131 32.972Z" fill="none" opacity="1" stroke="#212a3b" stroke-linecap="butt" stroke-linejoin="round" stroke-width="35.3282"/>
</g>
</g>
<g opacity="1">
<clipPath clip-rule="nonzero" id="ClipPath_2">
<path d="M648.581 69.993L611.416 69.993C610.512 69.993 609.779 70.726 609.779 71.63L609.779 103.497C609.779 104.401 609.046 105.134 608.142 105.134L593.731 105.134C592.827 105.134 592.094 104.401 592.094 103.497L592.094 55.26C592.094 54.356 592.827 53.623 593.731 53.623L609.779 53.623L648.581 53.623C649.485 53.623 650.218 54.356 650.218 55.26L650.218 68.356C650.218 69.26 649.485 69.993 648.581 69.993Z"/>
</clipPath>
<g clip-path="url(#ClipPath_2)">
<path d="M648.581 69.993L611.416 69.993C610.512 69.993 609.779 70.726 609.779 71.63L609.779 103.497C609.779 104.401 609.046 105.134 608.142 105.134L593.731 105.134C592.827 105.134 592.094 104.401 592.094 103.497L592.094 55.26C592.094 54.356 592.827 53.623 593.731 53.623L609.779 53.623L648.581 53.623C649.485 53.623 650.218 54.356 650.218 55.26L650.218 68.356C650.218 69.26 649.485 69.993 648.581 69.993Z" fill="none" opacity="1" stroke="#212a3b" stroke-linecap="butt" stroke-linejoin="round" stroke-width="35.3282"/>
</g>
</g>
<g opacity="1">
<clipPath clip-rule="nonzero" id="ClipPath_3">
<path d="M648.597 31.7825L593.715 31.6289C592.82 31.6264 592.094 30.8987 592.094 30.0035L592.094 17.0372C592.094 16.1421 592.82 15.4164 593.715 15.4164L609.779 15.4164L648.597 15.4164C649.492 15.4164 650.218 16.1421 650.218 17.0372L650.218 30.1663C650.218 31.0614 649.492 31.785 648.597 31.7825Z"/>
</clipPath>
<g clip-path="url(#ClipPath_3)">
<path d="M648.597 31.7825L593.715 31.6289C592.82 31.6264 592.094 30.8987 592.094 30.0035L592.094 17.0372C592.094 16.1421 592.82 15.4164 593.715 15.4164L609.779 15.4164L648.597 15.4164C649.492 15.4164 650.218 16.1421 650.218 17.0372L650.218 30.1663C650.218 31.0614 649.492 31.785 648.597 31.7825Z" fill="none" opacity="1" stroke="#298199" stroke-linecap="butt" stroke-linejoin="round" stroke-width="35.3282"/>
</g>
</g>
<g opacity="1">
<clipPath clip-rule="nonzero" id="ClipPath_4">
<path d="M487.327 60.066C487.327 35.4068 507.318 15.4164 531.977 15.4164C556.636 15.4164 576.627 35.4068 576.627 60.066C576.627 84.725 556.636 104.716 531.977 104.716C507.318 104.716 487.327 84.725 487.327 60.066Z"/>
</clipPath>
<g clip-path="url(#ClipPath_4)">
<path d="M487.327 60.066C487.327 35.4068 507.318 15.4164 531.977 15.4164C556.636 15.4164 576.627 35.4068 576.627 60.066C576.627 84.725 556.636 104.716 531.977 104.716C507.318 104.716 487.327 84.725 487.327 60.066Z" fill="none" opacity="1" stroke="#212a3b" stroke-linecap="butt" stroke-linejoin="round" stroke-width="35.3282"/>
</g>
</g>
<path d="M437.862 49.322C432.717 49.322 429.567 45.857 429.567 41.447C429.567 33.992 435.027 32.837 441.852 32.837L471.987 32.837L471.987 15.407L435.027 15.407C420.957 15.407 411.717 27.377 411.717 40.607C411.717 59.192 423.372 66.752 441.222 66.752L451.827 66.752C458.442 66.752 463.587 70.742 463.587 77.567C463.587 84.812 457.707 88.172 450.567 88.172L414.552 88.172L414.552 104.762L455.292 104.762C469.887 104.762 479.862 93.002 479.862 77.567C479.862 61.187 468.837 49.322 453.927 49.322L437.862 49.322Z" fill="#212a3b" fill-rule="nonzero" opacity="1" stroke="none"/>
<g opacity="1">
<clipPath clip-rule="nonzero" id="ClipPath_5">
<path d="M394.201 84.738L405.744 103.193C406.35 104.162 405.915 104.947 404.772 104.947L388.224 104.947C387.081 104.947 385.642 104.176 385.008 103.225L372.67 84.706C372.036 83.755 372.449 82.984 373.591 82.984L391.035 82.984C392.178 82.984 393.595 83.769 394.201 84.738Z"/>
</clipPath>
<g clip-path="url(#ClipPath_5)">
<path d="M394.201 84.738L405.744 103.193C406.35 104.162 405.915 104.947 404.772 104.947L388.224 104.947C387.081 104.947 385.642 104.176 385.008 103.225L372.67 84.706C372.036 83.755 372.449 82.984 373.591 82.984L391.035 82.984C392.178 82.984 393.595 83.769 394.201 84.738Z" fill="none" opacity="1" stroke="#298199" stroke-linecap="butt" stroke-linejoin="round" stroke-width="35.3282"/>
</g>
</g>
<g opacity="1">
<clipPath clip-rule="nonzero" id="ClipPath_6">
<path d="M326.083 102.663L353.858 62.388C354.507 61.448 354.529 59.908 353.907 58.95L326.794 17.1518C326.172 16.1934 326.594 15.4164 327.736 15.4164L344.596 15.4164C345.739 15.4164 347.173 16.1906 347.8 17.1455L365.322 43.8286C365.949 44.7835 366.964 44.7824 367.589 43.826L385.024 17.148C385.649 16.1917 387.081 15.4164 388.224 15.4164L404.772 15.4164C405.915 15.4164 406.322 16.1835 405.682 17.1297L347.824 102.653C347.184 103.599 345.739 104.366 344.596 104.366L326.977 104.366C325.835 104.366 325.434 103.604 326.083 102.663Z"/>
</clipPath>
<g clip-path="url(#ClipPath_6)">
<path d="M326.083 102.663L353.858 62.388C354.507 61.448 354.529 59.908 353.907 58.95L326.794 17.1518C326.172 16.1934 326.594 15.4164 327.736 15.4164L344.596 15.4164C345.739 15.4164 347.173 16.1906 347.8 17.1455L365.322 43.8286C365.949 44.7835 366.964 44.7824 367.589 43.826L385.024 17.148C385.649 16.1917 387.081 15.4164 388.224 15.4164L404.772 15.4164C405.915 15.4164 406.322 16.1835 405.682 17.1297L347.824 102.653C347.184 103.599 345.739 104.366 344.596 104.366L326.977 104.366C325.835 104.366 325.434 103.604 326.083 102.663Z" fill="none" opacity="1" stroke="#212a3b" stroke-linecap="butt" stroke-linejoin="round" stroke-width="35.3282"/>
</g>
</g>
<g opacity="1">
<clipPath clip-rule="nonzero" id="ClipPath_7">
<path d="M235.609 60.066C235.609 35.4068 255.599 15.4164 280.259 15.4164C304.918 15.4164 324.908 35.4068 324.908 60.066C324.908 84.725 304.918 104.716 280.259 104.716C255.599 104.716 235.609 84.725 235.609 60.066Z"/>
</clipPath>
<g clip-path="url(#ClipPath_7)">
<path d="M235.609 60.066C235.609 35.4068 255.599 15.4164 280.259 15.4164C304.918 15.4164 324.908 35.4068 324.908 60.066C324.908 84.725 304.918 104.716 280.259 104.716C255.599 104.716 235.609 84.725 235.609 60.066Z" fill="none" opacity="1" stroke="#212a3b" stroke-linecap="butt" stroke-linejoin="round" stroke-width="35.3282"/>
</g>
</g>
<g opacity="1">
<clipPath clip-rule="nonzero" id="ClipPath_8">
<path d="M192.647 15.875L161.227 15.9645C161.227 15.9645 161.227 20.9666 161.227 25.2442C161.227 29.5217 161.227 33.0617 161.227 33.0617L161.289 66.444C161.289 66.876 161.64 67.228 162.072 67.231L198.226 67.435C201.812 67.435 204.522 68.032 207.088 70.329C209.655 72.627 209.983 74.609 209.983 77.819C209.983 81.029 208.7 83.763 206.134 86.024C203.567 88.286 201.006 88.202 197.421 88.202L162.02 88.291C161.589 88.292 161.238 88.643 161.238 89.075L161.228 103.593C161.228 104.025 161.577 104.374 162.009 104.373L196.018 104.285C204.411 104.285 212.479 102.39 218.427 97.064C224.375 91.739 227.348 85.333 227.348 77.819C227.348 73.442 226.236 69.326 224.036 65.496C221.836 61.666 218.863 58.517 215.115 56.037C218.863 51.66 220.754 46.629 220.754 40.939C220.754 34.0088 217.989 28.1028 212.489 23.2152C206.989 18.3276 200.387 15.875 192.647 15.875ZM178.894 33.0617L187.365 33.0617L191.483 33.0617L194.527 33.0617C197.04 33.0617 198.084 33.04 200.405 34.6133C202.738 36.1954 203.388 38.3128 203.388 40.939C203.388 42.8766 202.899 44.9537 201.807 46.459C201.378 47.051 201.002 47.516 200.405 48.04C198.286 49.901 195.58 50.577 192.647 50.577L178.894 50.518C178.777 50.517 178.683 50.422 178.683 50.305L178.683 33.2736C178.683 33.1566 178.777 33.0617 178.894 33.0617Z"/>
</clipPath>
<g clip-path="url(#ClipPath_8)">
<path d="M192.647 15.875L161.227 15.9645C161.227 15.9645 161.227 20.9666 161.227 25.2442C161.227 29.5217 161.227 33.0617 161.227 33.0617L161.289 66.444C161.289 66.876 161.64 67.228 162.072 67.231L198.226 67.435C201.812 67.435 204.522 68.032 207.088 70.329C209.655 72.627 209.983 74.609 209.983 77.819C209.983 81.029 208.7 83.763 206.134 86.024C203.567 88.286 201.006 88.202 197.421 88.202L162.02 88.291C161.589 88.292 161.238 88.643 161.238 89.075L161.228 103.593C161.228 104.025 161.577 104.374 162.009 104.373L196.018 104.285C204.411 104.285 212.479 102.39 218.427 97.064C224.375 91.739 227.348 85.333 227.348 77.819C227.348 73.442 226.236 69.326 224.036 65.496C221.836 61.666 218.863 58.517 215.115 56.037C218.863 51.66 220.754 46.629 220.754 40.939C220.754 34.0088 217.989 28.1028 212.489 23.2152C206.989 18.3276 200.387 15.875 192.647 15.875ZM178.894 33.0617L187.365 33.0617L191.483 33.0617L194.527 33.0617C197.04 33.0617 198.084 33.04 200.405 34.6133C202.738 36.1954 203.388 38.3128 203.388 40.939C203.388 42.8766 202.899 44.9537 201.807 46.459C201.378 47.051 201.002 47.516 200.405 48.04C198.286 49.901 195.58 50.577 192.647 50.577L178.894 50.518C178.777 50.517 178.683 50.422 178.683 50.305L178.683 33.2736C178.683 33.1566 178.777 33.0617 178.894 33.0617Z" fill="none" opacity="1" stroke="#212a3b" stroke-linecap="butt" stroke-linejoin="round" stroke-width="35.3282"/>
</g>
</g>
<g opacity="1">
<clipPath clip-rule="nonzero" id="ClipPath_9">
<path d="M55.3968 15.766L69.3878 15.766C70.0288 15.766 70.8038 16.218 71.1198 16.7756L97.4188 63.186C97.7348 63.743 98.2478 63.744 98.5648 63.186L124.953 16.7748C125.27 16.2177 126.046 15.766 126.687 15.766L140.289 15.766C140.93 15.766 141.449 16.2856 141.449 16.9265L141.449 103.206C141.449 103.847 140.93 104.366 140.289 104.366L124.913 104.366C124.272 104.366 123.753 103.847 123.753 103.206L123.753 55.262C123.753 54.621 123.49 54.55 123.167 55.103L104.391 87.197C104.067 87.751 103.285 88.199 102.644 88.199L93.3608 88.199C92.7198 88.199 91.9398 87.75 91.6178 87.195L72.9988 55.105C72.6768 54.551 72.4158 54.621 72.4158 55.262L72.4158 103.206C72.4158 103.847 71.8968 104.366 71.2558 104.366L55.3968 104.366C54.7558 104.366 54.2368 103.847 54.2368 103.206L54.2368 16.9265C54.2368 16.2856 54.7558 15.766 55.3968 15.766Z"/>
</clipPath>
<g clip-path="url(#ClipPath_9)">
<path d="M55.3968 15.766L69.3878 15.766C70.0288 15.766 70.8038 16.218 71.1198 16.7756L97.4188 63.186C97.7348 63.743 98.2478 63.744 98.5648 63.186L124.953 16.7748C125.27 16.2177 126.046 15.766 126.687 15.766L140.289 15.766C140.93 15.766 141.449 16.2856 141.449 16.9265L141.449 103.206C141.449 103.847 140.93 104.366 140.289 104.366L124.913 104.366C124.272 104.366 123.753 103.847 123.753 103.206L123.753 55.262C123.753 54.621 123.49 54.55 123.167 55.103L104.391 87.197C104.067 87.751 103.285 88.199 102.644 88.199L93.3608 88.199C92.7198 88.199 91.9398 87.75 91.6178 87.195L72.9988 55.105C72.6768 54.551 72.4158 54.621 72.4158 55.262L72.4158 103.206C72.4158 103.847 71.8968 104.366 71.2558 104.366L55.3968 104.366C54.7558 104.366 54.2368 103.847 54.2368 103.206L54.2368 16.9265C54.2368 16.2856 54.7558 15.766 55.3968 15.766Z" fill="none" opacity="1" stroke="#212a3b" stroke-linecap="butt" stroke-linejoin="round" stroke-width="35.3282"/>
</g>
</g>
<g opacity="1">
<clipPath clip-rule="nonzero" id="ClipPath_10">
<path d="M16.5738 102.994L16.8918 18.5227C16.8978 17.0538 18.0928 15.8684 19.5618 15.8751L31.8568 15.9307C33.3258 15.9373 34.5168 17.1335 34.5168 18.6024L34.5168 102.994C34.5168 104.463 33.3258 105.653 31.8568 105.653L19.2228 105.653C17.7538 105.653 16.5678 104.463 16.5738 102.994Z"/>
</clipPath>
<g clip-path="url(#ClipPath_10)">
<path d="M16.5738 102.994L16.8918 18.5227C16.8978 17.0538 18.0928 15.8684 19.5618 15.8751L31.8568 15.9307C33.3258 15.9373 34.5168 17.1335 34.5168 18.6024L34.5168 102.994C34.5168 104.463 33.3258 105.653 31.8568 105.653L19.2228 105.653C17.7538 105.653 16.5678 104.463 16.5738 102.994Z" fill="none" opacity="1" stroke="#212a3b" stroke-linecap="butt" stroke-linejoin="round" stroke-width="35.3282"/>
</g>
</g>
</g>
</g>
<g id="white">
<g opacity="1">
<g opacity="1">
<use fill="#ffffff" fill-rule="nonzero" opacity="1" stroke="none" xlink:href="#Fill"/>
<clipPath clip-rule="nonzero" id="ClipPath_11">
<use xlink:href="#Fill"/>
</clipPath>
<g clip-path="url(#ClipPath_11)">
<path d="M723.131 32.972L702.274 32.972C701.334 32.972 700.572 33.734 700.572 34.6739L700.572 103.245C700.572 104.185 699.81 104.947 698.87 104.947L684.484 104.947C683.544 104.947 682.782 104.185 682.782 103.245L682.782 34.6739C682.782 33.734 682.02 32.972 681.08 32.972L660.468 32.972C659.528 32.972 658.766 32.2101 658.766 31.2702L658.766 17.4679C658.766 16.528 659.528 15.7682 660.468 15.7709L723.131 15.9487C724.071 15.9514 724.833 16.7155 724.833 17.6554L724.833 31.2702C724.833 32.2101 724.071 32.972 723.131 32.972Z" fill="#ffffff" fill-rule="nonzero" opacity="1" stroke="#ffffff" stroke-linecap="butt" stroke-linejoin="round" stroke-width="35.3282"/>
</g>
</g>
<g opacity="1">
<use fill="#ffffff" fill-rule="nonzero" opacity="1" stroke="none" xlink:href="#Fill_2"/>
<clipPath clip-rule="nonzero" id="ClipPath_12">
<use xlink:href="#Fill_2"/>
</clipPath>
<g clip-path="url(#ClipPath_12)">
<path d="M648.581 69.993L611.416 69.993C610.512 69.993 609.779 70.726 609.779 71.63L609.779 103.497C609.779 104.401 609.046 105.134 608.142 105.134L593.731 105.134C592.827 105.134 592.094 104.401 592.094 103.497L592.094 55.26C592.094 54.356 592.827 53.623 593.731 53.623L609.779 53.623L648.581 53.623C649.485 53.623 650.218 54.356 650.218 55.26L650.218 68.356C650.218 69.26 649.485 69.993 648.581 69.993Z" fill="#ffffff" fill-rule="nonzero" opacity="1" stroke="#ffffff" stroke-linecap="butt" stroke-linejoin="round" stroke-width="35.3282"/>
</g>
</g>
<g opacity="1">
<use fill="#ffffff" fill-rule="nonzero" opacity="1" stroke="none" xlink:href="#Fill_3"/>
<clipPath clip-rule="nonzero" id="ClipPath_13">
<use xlink:href="#Fill_3"/>
</clipPath>
<g clip-path="url(#ClipPath_13)">
<path d="M648.597 31.7825L593.715 31.6289C592.82 31.6264 592.094 30.8987 592.094 30.0035L592.094 17.0372C592.094 16.1421 592.82 15.4164 593.715 15.4164L609.779 15.4164L648.597 15.4164C649.492 15.4164 650.218 16.1421 650.218 17.0372L650.218 30.1663C650.218 31.0614 649.492 31.785 648.597 31.7825Z" fill="#ffffff" fill-rule="nonzero" opacity="1" stroke="#1cd8c6" stroke-linecap="butt" stroke-linejoin="round" stroke-width="35.3282"/>
</g>
</g>
<g opacity="1">
<clipPath clip-rule="nonzero" id="ClipPath_14">
<path d="M487.327 60.066C487.327 35.4068 507.318 15.4164 531.977 15.4164C556.636 15.4164 576.627 35.4068 576.627 60.066C576.627 84.725 556.636 104.716 531.977 104.716C507.318 104.716 487.327 84.725 487.327 60.066Z"/>
</clipPath>
<g clip-path="url(#ClipPath_14)">
<path d="M487.327 60.066C487.327 35.4068 507.318 15.4164 531.977 15.4164C556.636 15.4164 576.627 35.4068 576.627 60.066C576.627 84.725 556.636 104.716 531.977 104.716C507.318 104.716 487.327 84.725 487.327 60.066Z" fill="none" opacity="1" stroke="#ffffff" stroke-linecap="butt" stroke-linejoin="round" stroke-width="35.3282"/>
</g>
</g>
<path d="M437.862 49.322C432.717 49.322 429.567 45.857 429.567 41.447C429.567 33.992 435.027 32.837 441.852 32.837L471.987 32.837L471.987 15.407L435.027 15.407C420.957 15.407 411.717 27.377 411.717 40.607C411.717 59.192 423.372 66.752 441.222 66.752L451.827 66.752C458.442 66.752 463.587 70.742 463.587 77.567C463.587 84.812 457.707 88.172 450.567 88.172L414.552 88.172L414.552 104.762L455.292 104.762C469.887 104.762 479.862 93.002 479.862 77.567C479.862 61.187 468.837 49.322 453.927 49.322L437.862 49.322Z" fill="#ffffff" fill-rule="nonzero" opacity="1" stroke="none"/>
<g opacity="1">
<use fill="#ffffff" fill-rule="nonzero" opacity="1" stroke="none" xlink:href="#Fill_4"/>
<clipPath clip-rule="nonzero" id="ClipPath_15">
<use xlink:href="#Fill_4"/>
</clipPath>
<g clip-path="url(#ClipPath_15)">
<path d="M394.201 84.738L405.744 103.193C406.35 104.162 405.915 104.947 404.772 104.947L388.224 104.947C387.081 104.947 385.642 104.176 385.008 103.225L372.67 84.706C372.036 83.755 372.449 82.984 373.591 82.984L391.035 82.984C392.178 82.984 393.595 83.769 394.201 84.738Z" fill="#ffffff" fill-rule="nonzero" opacity="1" stroke="#1cd8c6" stroke-linecap="butt" stroke-linejoin="round" stroke-width="35.3282"/>
</g>
</g>
<g opacity="1">
<use fill="#ffffff" fill-rule="nonzero" opacity="1" stroke="none" xlink:href="#Fill_5"/>
<clipPath clip-rule="nonzero" id="ClipPath_16">
<use xlink:href="#Fill_5"/>
</clipPath>
<g clip-path="url(#ClipPath_16)">
<path d="M326.083 102.663L353.858 62.388C354.507 61.448 354.529 59.908 353.907 58.95L326.794 17.1518C326.172 16.1934 326.594 15.4164 327.736 15.4164L344.596 15.4164C345.739 15.4164 347.173 16.1906 347.8 17.1455L365.322 43.8286C365.949 44.7835 366.964 44.7824 367.589 43.826L385.024 17.148C385.649 16.1917 387.081 15.4164 388.224 15.4164L404.772 15.4164C405.915 15.4164 406.322 16.1835 405.682 17.1297L347.824 102.653C347.184 103.599 345.739 104.366 344.596 104.366L326.977 104.366C325.835 104.366 325.434 103.604 326.083 102.663Z" fill="#ffffff" fill-rule="nonzero" opacity="1" stroke="#ffffff" stroke-linecap="butt" stroke-linejoin="round" stroke-width="35.3282"/>
</g>
</g>
<g opacity="1">
<clipPath clip-rule="nonzero" id="ClipPath_17">
<path d="M235.609 60.066C235.609 35.4068 255.599 15.4164 280.259 15.4164C304.918 15.4164 324.908 35.4068 324.908 60.066C324.908 84.725 304.918 104.716 280.259 104.716C255.599 104.716 235.609 84.725 235.609 60.066Z"/>
</clipPath>
<g clip-path="url(#ClipPath_17)">
<path d="M235.609 60.066C235.609 35.4068 255.599 15.4164 280.259 15.4164C304.918 15.4164 324.908 35.4068 324.908 60.066C324.908 84.725 304.918 104.716 280.259 104.716C255.599 104.716 235.609 84.725 235.609 60.066Z" fill="none" opacity="1" stroke="#ffffff" stroke-linecap="butt" stroke-linejoin="round" stroke-width="35.3282"/>
</g>
</g>
<g opacity="1">
<use fill="#ffffff" fill-rule="nonzero" opacity="1" stroke="none" xlink:href="#Fill_6"/>
<clipPath clip-rule="nonzero" id="ClipPath_18">
<use xlink:href="#Fill_6"/>
</clipPath>
<g clip-path="url(#ClipPath_18)">
<path d="M192.647 15.875L161.227 15.9645C161.227 15.9645 161.227 20.9666 161.227 25.2442C161.227 29.5217 161.227 33.0617 161.227 33.0617L161.289 66.444C161.289 66.876 161.64 67.228 162.072 67.231L198.226 67.435C201.812 67.435 204.522 68.032 207.088 70.329C209.655 72.627 209.983 74.609 209.983 77.819C209.983 81.029 208.7 83.763 206.134 86.024C203.567 88.286 201.006 88.202 197.421 88.202L162.02 88.291C161.589 88.292 161.238 88.643 161.238 89.075L161.228 103.593C161.228 104.025 161.577 104.374 162.009 104.373L196.018 104.285C204.411 104.285 212.479 102.39 218.427 97.064C224.375 91.739 227.348 85.333 227.348 77.819C227.348 73.442 226.236 69.326 224.036 65.496C221.836 61.666 218.863 58.517 215.115 56.037C218.863 51.66 220.754 46.629 220.754 40.939C220.754 34.0088 217.989 28.1028 212.489 23.2152C206.989 18.3276 200.387 15.875 192.647 15.875ZM178.894 33.0617L187.365 33.0617L191.483 33.0617L194.527 33.0617C197.04 33.0617 198.084 33.04 200.405 34.6133C202.738 36.1954 203.388 38.3128 203.388 40.939C203.388 42.8766 202.899 44.9537 201.807 46.459C201.378 47.051 201.002 47.516 200.405 48.04C198.286 49.901 195.58 50.577 192.647 50.577L178.894 50.518C178.777 50.517 178.683 50.422 178.683 50.305L178.683 33.2736C178.683 33.1566 178.777 33.0617 178.894 33.0617Z" fill="#ffffff" fill-rule="nonzero" opacity="1" stroke="#ffffff" stroke-linecap="butt" stroke-linejoin="round" stroke-width="35.3282"/>
</g>
</g>
<g opacity="1">
<use fill="#ffffff" fill-rule="nonzero" opacity="1" stroke="none" xlink:href="#Fill_7"/>
<clipPath clip-rule="nonzero" id="ClipPath_19">
<use xlink:href="#Fill_7"/>
</clipPath>
<g clip-path="url(#ClipPath_19)">
<path d="M55.3968 15.766L69.3878 15.766C70.0288 15.766 70.8038 16.218 71.1198 16.7756L97.4188 63.186C97.7348 63.743 98.2478 63.744 98.5648 63.186L124.953 16.7748C125.27 16.2177 126.046 15.766 126.687 15.766L140.289 15.766C140.93 15.766 141.449 16.2856 141.449 16.9265L141.449 103.206C141.449 103.847 140.93 104.366 140.289 104.366L124.913 104.366C124.272 104.366 123.753 103.847 123.753 103.206L123.753 55.262C123.753 54.621 123.49 54.55 123.167 55.103L104.391 87.197C104.067 87.751 103.285 88.199 102.644 88.199L93.3608 88.199C92.7198 88.199 91.9398 87.75 91.6178 87.195L72.9988 55.105C72.6768 54.551 72.4158 54.621 72.4158 55.262L72.4158 103.206C72.4158 103.847 71.8968 104.366 71.2558 104.366L55.3968 104.366C54.7558 104.366 54.2368 103.847 54.2368 103.206L54.2368 16.9265C54.2368 16.2856 54.7558 15.766 55.3968 15.766Z" fill="#ffffff" fill-rule="nonzero" opacity="1" stroke="#ffffff" stroke-linecap="butt" stroke-linejoin="round" stroke-width="35.3282"/>
</g>
</g>
<g opacity="1">
<use fill="#ffffff" fill-rule="nonzero" opacity="1" stroke="none" xlink:href="#Fill_8"/>
<clipPath clip-rule="nonzero" id="ClipPath_20">
<use xlink:href="#Fill_8"/>
</clipPath>
<g clip-path="url(#ClipPath_20)">
<path d="M16.5738 102.994L16.8918 18.5227C16.8978 17.0538 18.0928 15.8684 19.5618 15.8751L31.8568 15.9307C33.3258 15.9373 34.5168 17.1335 34.5168 18.6024L34.5168 102.994C34.5168 104.463 33.3258 105.653 31.8568 105.653L19.2228 105.653C17.7538 105.653 16.5678 104.463 16.5738 102.994Z" fill="#ffffff" fill-rule="nonzero" opacity="1" stroke="#ffffff" stroke-linecap="butt" stroke-linejoin="round" stroke-width="35.3282"/>
</g>
</g>
</g>
</g>
</svg>
