<svg viewBox="0 0 3800 3000" fill="none" xmlns="http://www.w3.org/2000/svg">
<g id="hero-ilustration">
<path id="Vector" d="M3510.33 2109.53C3510.33 2270.3 3487.04 2425.63 3443.67 2572.33H318.19C274.82 2425.64 251.53 2270.3 251.53 2109.53C251.53 1209.63 981.04 480.12 1880.92 480.12C2780.82 480.12 3510.33 1209.63 3510.33 2109.53Z" fill="#E4EAF4"/>
<path id="Vector_2" d="M3363.83 2519.6C3363.83 2519.6 3341.78 2359.5 3385.69 2375.3C3429.61 2391.1 3409.45 2455.27 3363.83 2519.6Z" fill="#3A3A77"/>
<path id="Vector_3" d="M3360.93 2518.06C3360.93 2518.06 3450.73 2360.13 3512.69 2414.43C3574.65 2468.73 3360.93 2518.06 3360.93 2518.06Z" fill="#59599B"/>
<path id="Vector_4" opacity="0.5" d="M3509.25 2416.2C3507.45 2421.13 3504.51 2425.31 3499.19 2426.6C3492.54 2428.21 3485.31 2426.26 3478.62 2425.88C3471 2425.45 3463.69 2426.58 3456.78 2429.9C3450.11 2433.11 3444.39 2437.96 3438.75 2442.67C3433.09 2447.4 3427.33 2452.54 3420.71 2455.89C3414.43 2459.06 3406.99 2460.42 3400.09 2461.5C3400.08 2461.5 3400.08 2461.5 3400.07 2461.5C3431.08 2423.41 3474.92 2384.79 3510.34 2412.5C3510.05 2413.74 3509.69 2414.98 3509.25 2416.2Z" fill="#F2F8FF"/>
<path id="Vector_5" d="M3487.3 2605.06H2712.02L2723.14 2566.3L2749.3 2474.5C2767.83 2409.7 2832.2 2369.15 2898.69 2380.48L2932.25 2386.3C2934.79 2386.72 2937.23 2386.94 2939.66 2386.94C2954.48 2386.94 2968.56 2379.53 2976.93 2366.93C3034.53 2280.53 3164.76 2291.23 3207.54 2385.88L3213.26 2398.59C3223.35 2421.01 3249.68 2431.03 3272.12 2420.98L3305.59 2406C3325.18 2397.21 3346.99 2403.78 3359.06 2419.24C3363.51 2424.85 3366.68 2431.63 3367.96 2439.25L3372.93 2468.26C3374.2 2475.46 3376.96 2481.81 3380.87 2487.11C3381.61 2488.06 3382.35 2489.02 3383.09 2489.86C3389.87 2497.7 3399.08 2502.89 3409.14 2504.69C3411.68 2505.22 3414.43 2505.43 3417.08 2505.43C3425.48 2505.43 3433.99 2503.13 3441.72 2497.97C3459.15 2486.34 3482.52 2489.23 3497.34 2504.05L3519.83 2526.54C3548.8 2555.51 3528.28 2605.06 3487.3 2605.06Z" fill="#59599B"/>
<path id="Vector_6" opacity="0.2" d="M3517.64 2543.18C3513.1 2536.43 3510.36 2528.56 3505.48 2522.04C3495.39 2508.56 3476.9 2505.85 3461.18 2508.49C3450.6 2510.26 3440.63 2514.05 3429.74 2513.08C3421.25 2512.32 3412.8 2510.98 3404.55 2508.81C3388.35 2504.55 3371.94 2496.61 3362.85 2481.9C3353.81 2467.27 3358.12 2447.9 3347.42 2434.01C3335.92 2419.08 3316.12 2420.48 3300.16 2426.32C3291.22 2429.59 3283.28 2435.08 3274.31 2438.16C3263.78 2441.78 3252.47 2442.24 3241.64 2439.75C3236.03 2438.47 3230.61 2436.48 3225.45 2433.94C3222.26 2432.37 3219.34 2430.66 3217.08 2427.84C3213.37 2423.22 3211.98 2417.1 3212.19 2411.27C3212.32 2407.72 3213.11 2404.17 3214.46 2400.92C3225.29 2421.66 3250.49 2430.65 3272.12 2420.97L3305.59 2405.99C3325.18 2397.2 3346.99 2403.77 3359.06 2419.23C3363.51 2424.84 3366.68 2431.62 3367.96 2439.24L3372.93 2468.25C3374.2 2475.45 3376.96 2481.8 3380.87 2487.1C3381.61 2488.05 3382.35 2489.01 3383.09 2489.85C3389.87 2497.69 3399.08 2502.88 3409.14 2504.68C3411.68 2505.21 3414.43 2505.42 3417.08 2505.42C3425.48 2505.42 3433.99 2503.12 3441.72 2497.96C3459.15 2486.33 3482.52 2489.22 3497.34 2504.04L3519.83 2526.53C3528.01 2534.71 3532.24 2544.52 3533.18 2554.39C3526.71 2552.97 3521.47 2548.87 3517.64 2543.18Z" fill="#F2F8FF"/>
<path id="Vector_7" d="M3418.87 2605.06H2712.01L2723.13 2566.3C2758.07 2534.96 2806.35 2519.61 2855.48 2528.08L2881.63 2532.53L2895.71 2534.86C2898.78 2535.39 2901.85 2535.6 2904.82 2535.6C2911.38 2535.6 2917.84 2534.44 2923.88 2532.11C2934.05 2528.19 2942.94 2521.31 2949.29 2511.78C2958.18 2498.34 2968.67 2486.9 2980.1 2477.48C2984.55 2473.67 2989.1 2470.28 2993.86 2467.21C3019.59 2450.16 3049.13 2441.69 3078.78 2441.38C3096.14 2441.06 3113.4 2443.6 3129.92 2449C3170.05 2461.71 3205.62 2490.61 3225.42 2534.55L3232.3 2549.59C3244.48 2576.59 3276.13 2588.55 3303.03 2576.48L3323.36 2567.37L3342.95 2558.58C3351.85 2554.56 3361.17 2553.29 3370.06 2554.13C3393.14 2556.35 3413.47 2573.51 3417.71 2598.39L3418.87 2605.06Z" fill="#3A3A77"/>
<path id="Vector_8" d="M3319.83 2465.42C3319.83 2473.03 3313.66 2479.2 3306.05 2479.2C3298.44 2479.2 3292.27 2473.03 3292.27 2465.42C3292.27 2457.81 3298.44 2451.64 3306.05 2451.64C3313.66 2451.64 3319.83 2457.81 3319.83 2465.42ZM3137.29 2528.09C3137.29 2535.7 3131.12 2541.87 3123.51 2541.87C3115.9 2541.87 3109.73 2535.7 3109.73 2528.09C3109.73 2520.48 3115.9 2514.31 3123.51 2514.31C3131.12 2514.31 3137.29 2520.48 3137.29 2528.09ZM2844.88 2428.27C2844.88 2435.88 2838.71 2442.05 2831.1 2442.05C2823.49 2442.05 2817.32 2435.88 2817.32 2428.27C2817.32 2420.66 2823.49 2414.49 2831.1 2414.49C2838.71 2414.49 2844.88 2420.66 2844.88 2428.27Z" fill="#C0B7CC"/>
<path id="Vector_9" d="M3172.73 2398.14C3172.73 2404.34 3167.7 2409.37 3161.51 2409.37C3155.31 2409.37 3150.28 2404.34 3150.28 2398.14C3150.28 2391.94 3155.31 2386.91 3161.51 2386.91C3167.7 2386.91 3172.73 2391.94 3172.73 2398.14ZM2911.57 2508.04C2911.57 2514.24 2906.54 2519.26 2900.34 2519.26C2894.14 2519.26 2889.11 2514.23 2889.11 2508.04C2889.11 2501.84 2894.14 2496.81 2900.34 2496.81C2906.54 2496.82 2911.57 2501.84 2911.57 2508.04Z" fill="#DEEEFC"/>
<g id="Group">
<path id="Vector_10" d="M3322.52 2597.8C3322.52 2597.8 3260.37 2519.44 3288.74 2514.04C3317.11 2508.63 3326.57 2549.17 3322.52 2597.8Z" fill="#3A3A77"/>
<path id="Vector_11" opacity="0.15" d="M3320.52 2549.63C3317.62 2548.94 3315.81 2546.91 3314.57 2544.3C3312.07 2539.04 3312.26 2532.89 3309.39 2527.79C3307.94 2525.22 3305.7 2523.26 3303.04 2522.03C3300.41 2520.82 3297.48 2520.21 3294.98 2518.73C3292.56 2517.3 3292.12 2515.56 3293.99 2513.57C3308.83 2513.77 3317.6 2528.2 3321.31 2549.78C3321.05 2549.72 3320.78 2549.69 3320.52 2549.63Z" fill="#F2F8FF"/>
<path id="Vector_12" d="M3322.52 2597.8C3322.52 2597.8 3361.7 2492.42 3404.93 2519.44C3448.17 2546.47 3322.52 2597.8 3322.52 2597.8Z" fill="#DEEEFC"/>
<path id="Vector_13" opacity="0.2" d="M3403.17 2518.5C3402.72 2519.51 3401.71 2520.44 3400.93 2520.75C3399.21 2521.45 3396.98 2521.18 3395.15 2521.14C3391.13 2521.06 3387 2520.78 3383.04 2521.58C3378.77 2522.43 3374.7 2524.91 3371.19 2527.38C3364.74 2531.93 3360.57 2539.04 3353.94 2543.29C3352.87 2543.97 3351.34 2544.73 3349.62 2545.39C3364.17 2524.44 3383.18 2507.63 3403.17 2518.5Z" fill="#F2F8FF"/>
<path id="Vector_14" d="M3322.52 2597.8C3322.52 2597.8 3177.96 2580.23 3214.44 2557.27C3250.91 2534.3 3322.52 2597.8 3322.52 2597.8Z" fill="#C0B7CC"/>
<path id="Vector_15" opacity="0.2" d="M3274.24 2565.72C3269.98 2564.94 3266.85 2562.43 3263.23 2560.27C3259.8 2558.23 3256.09 2556.57 3252.17 2555.75C3246.63 2554.58 3241.05 2556 3235.48 2555.24C3233.54 2554.97 3231.25 2554.31 3230.52 2552.38C3244.96 2551.49 3261.65 2557.77 3276.84 2565.96C3275.97 2565.93 3275.11 2565.88 3274.24 2565.72Z" fill="#F2F8FF"/>
</g>
<g id="Group_2">
<path id="Vector_16" d="M3247.27 1172.23L3243.49 2489.34C3243.3 2558.92 3182.74 2614.82 3108.3 2614.71L1698.49 2613.15L727.96 2611.98C652.76 2611.87 592.43 2555.52 592.62 2485.62L596.42 1160.94C596.62 1090.92 657.28 1034.27 732.48 1034.59L2161.62 1041.17L2375.54 1042.11L3112.8 1045.53C3187.24 1045.87 3247.47 1102.65 3247.27 1172.23Z" fill="#6D60DA"/>
</g>
<g id="Group_3">
<path id="Vector_17" d="M1129.87 1958.66L1129.93 1937.2C1129.94 1934.12 1131.43 1931.89 1135.66 1931.9C1139.88 1931.92 1141.35 1934.15 1141.34 1937.23L1141.26 1964.01C1141.25 1967.83 1138.52 1969.31 1135.55 1969.3L1090.6 1969.19C1087.63 1969.18 1084.89 1967.68 1084.9 1963.87C1084.91 1960.04 1087.66 1958.55 1090.63 1958.56L1107.4 1958.61L1107.58 1897.19L1090.8 1897.14C1087.83 1897.14 1085.09 1895.64 1085.1 1891.82C1085.11 1888 1087.86 1886.52 1090.83 1886.52L1119.01 1886.6L1118.8 1958.63L1129.87 1958.66ZM1178.44 1958.79L1217.68 1958.89C1220.65 1958.9 1223.37 1960.4 1223.36 1964.22C1223.35 1968.04 1220.61 1969.52 1217.64 1969.51L1167 1969.38L1167.09 1934.75C1167.11 1926.78 1171.46 1922.75 1180.02 1922.78L1212.07 1922.87L1212.14 1897.48L1172.91 1897.37C1169.95 1897.36 1167.21 1895.87 1167.23 1892.04C1167.24 1888.22 1169.99 1886.73 1172.95 1886.74L1210.82 1886.85C1214.58 1886.86 1217.21 1887.4 1220.05 1889.85C1223.24 1892.62 1223.57 1895.49 1223.56 1899.31L1223.49 1921.09C1223.48 1924.91 1223.14 1927.78 1219.93 1930.53C1217.07 1932.96 1214.44 1933.49 1210.68 1933.48L1178.51 1933.39L1178.44 1958.79ZM1254.99 1897.6C1252.02 1897.59 1249.29 1896.1 1249.31 1892.27C1249.32 1888.44 1252.06 1886.96 1255.02 1886.97L1294.24 1887.08C1300.74 1887.1 1305.63 1891.68 1305.61 1897.73L1305.55 1918.12C1305.54 1922.37 1304.62 1925.45 1301.07 1928.41C1304.6 1931.4 1305.5 1934.48 1305.5 1938.72L1305.44 1959.11C1305.42 1965.16 1300.5 1969.72 1294.01 1969.7L1254.79 1969.6C1251.82 1969.6 1249.09 1968.1 1249.1 1964.28C1249.11 1960.46 1251.86 1958.97 1254.82 1958.97L1294.04 1959.08L1294.09 1941.45C1294.11 1935.5 1291.6 1933.68 1288.41 1933.68L1266.07 1933.62C1263.1 1933.61 1260.37 1932.12 1260.38 1928.3C1260.39 1924.47 1263.14 1922.99 1266.1 1923L1288.45 1923.06C1291.64 1923.07 1294.15 1921.28 1294.17 1915.33L1294.22 1897.7L1254.99 1897.6ZM1370.44 1932.33L1370.53 1901.64C1370.54 1898.98 1371.91 1896.33 1376.24 1896.34C1380.57 1896.35 1381.93 1899.01 1381.93 1901.67L1381.85 1932.35C1384.8 1932.36 1387.54 1933.85 1387.53 1937.68C1387.51 1941.5 1384.78 1942.98 1381.81 1942.97L1381.75 1964.64C1381.74 1968.04 1380.14 1969.94 1376.03 1969.93C1371.93 1969.92 1370.34 1968 1370.35 1964.61L1370.41 1942.94L1336.91 1942.85L1337.05 1892.51C1337.05 1889.85 1338.43 1887.21 1342.76 1887.21C1347.09 1887.23 1348.45 1889.88 1348.44 1892.54L1348.33 1932.26L1370.44 1932.33ZM1540.03 1959.75L1540.09 1938.31C1540.1 1935.24 1541.58 1933.01 1545.8 1933.02C1550.01 1933.03 1551.49 1935.26 1551.48 1938.34L1551.41 1965.09C1551.4 1968.9 1548.66 1970.38 1545.7 1970.38L1500.83 1970.26C1497.87 1970.25 1495.14 1968.76 1495.15 1964.94C1495.16 1961.12 1497.91 1959.63 1500.87 1959.65L1517.61 1959.7L1517.78 1898.34L1501.04 1898.29C1498.08 1898.28 1495.36 1896.79 1495.36 1892.97C1495.37 1889.15 1498.11 1887.66 1501.08 1887.68L1529.21 1887.76L1529 1959.73L1540.03 1959.75ZM1588.51 1959.87L1627.67 1959.98C1630.63 1959.99 1633.36 1961.48 1633.35 1965.3C1633.34 1969.12 1630.61 1970.6 1627.64 1970.59L1577.1 1970.46L1577.2 1935.86C1577.22 1927.9 1581.56 1923.88 1590.09 1923.91L1622.07 1923.99L1622.15 1898.63L1583 1898.52C1580.04 1898.5 1577.31 1897.02 1577.32 1893.19C1577.33 1889.37 1580.07 1887.89 1583.03 1887.9L1620.83 1888.01C1624.58 1888.02 1627.2 1888.56 1630.03 1891.01C1633.21 1893.78 1633.54 1896.64 1633.53 1900.47L1633.47 1922.22C1633.46 1926.04 1633.11 1928.9 1629.91 1931.65C1627.06 1934.09 1624.44 1934.61 1620.68 1934.6L1588.57 1934.51L1588.51 1959.87ZM1664.91 1898.75C1661.95 1898.74 1659.22 1897.25 1659.23 1893.42C1659.24 1889.61 1661.97 1888.13 1664.94 1888.14L1704.07 1888.25C1710.56 1888.27 1715.44 1892.84 1715.42 1898.9L1715.36 1919.27C1715.35 1923.52 1714.43 1926.59 1710.89 1929.55C1714.4 1932.53 1715.31 1935.61 1715.3 1939.85L1715.25 1960.22C1715.22 1966.27 1710.32 1970.82 1703.83 1970.8L1664.69 1970.7C1661.74 1970.68 1659.01 1969.2 1659.02 1965.38C1659.03 1961.56 1661.76 1960.08 1664.73 1960.09L1703.87 1960.2L1703.92 1942.58C1703.94 1936.64 1701.44 1934.83 1698.26 1934.82L1675.96 1934.77C1673 1934.76 1670.27 1933.26 1670.28 1929.44C1670.3 1925.62 1673.03 1924.15 1675.99 1924.15L1698.29 1924.22C1701.47 1924.23 1703.98 1922.43 1704 1916.48L1704.05 1898.87L1664.91 1898.75ZM1780.14 1933.44L1780.23 1902.78C1780.23 1900.13 1781.61 1897.48 1785.92 1897.49C1790.24 1897.51 1791.61 1900.16 1791.6 1902.81L1791.51 1933.47C1794.47 1933.47 1797.19 1934.97 1797.18 1938.79C1797.17 1942.6 1794.44 1944.08 1791.48 1944.07L1791.42 1965.72C1791.41 1969.12 1789.81 1971.02 1785.72 1971.01C1781.63 1971 1780.04 1969.09 1780.05 1965.69L1780.11 1944.05L1746.67 1943.96L1746.81 1893.67C1746.82 1891.02 1748.19 1888.37 1752.51 1888.38C1756.83 1888.39 1758.2 1891.05 1758.18 1893.7L1758.07 1933.37L1780.14 1933.44ZM1949.39 1960.83L1949.46 1939.41C1949.46 1936.33 1950.95 1934.11 1955.15 1934.12C1959.36 1934.13 1960.84 1936.36 1960.83 1939.44L1960.75 1966.16C1960.74 1969.98 1958 1971.45 1955.05 1971.45L1910.27 1971.33C1907.32 1971.32 1904.59 1969.83 1904.6 1966.01C1904.61 1962.19 1907.35 1960.71 1910.3 1960.72L1927.01 1960.76L1927.18 1899.47L1910.47 1899.42C1907.52 1899.41 1904.79 1897.92 1904.81 1894.11C1904.82 1890.29 1907.56 1888.82 1910.51 1888.82L1938.58 1888.89L1938.38 1960.79L1949.39 1960.83ZM1997.76 1960.96L2036.85 1961.07C2039.8 1961.08 2042.52 1962.57 2042.51 1966.38C2042.5 1970.2 2039.77 1971.67 2036.82 1971.67L1986.37 1971.53L1986.47 1936.96C1986.49 1929.01 1990.82 1924.99 1999.34 1925.02L2031.27 1925.11L2031.34 1899.77L1992.26 1899.66C1989.31 1899.65 1986.58 1898.16 1986.59 1894.34C1986.6 1890.52 1989.34 1889.05 1992.29 1889.06L2030.02 1889.17C2033.76 1889.18 2036.38 1889.72 2039.21 1892.16C2042.39 1894.94 2042.72 1897.79 2042.7 1901.61L2042.64 1923.34C2042.63 1927.16 2042.28 1930.02 2039.09 1932.77C2036.24 1935.2 2033.63 1935.72 2029.89 1935.7L1997.84 1935.62L1997.76 1960.96ZM2074.03 1899.89C2071.07 1899.88 2068.35 1898.39 2068.36 1894.57C2068.37 1890.75 2071.11 1889.28 2074.06 1889.29L2113.12 1889.39C2119.6 1889.41 2124.47 1893.98 2124.46 1900.03L2124.4 1920.38C2124.39 1924.62 2123.47 1927.69 2119.94 1930.65C2123.46 1933.63 2124.35 1936.7 2124.34 1940.94L2124.28 1961.29C2124.26 1967.34 2119.37 1971.88 2112.88 1971.86L2073.82 1971.76C2070.87 1971.75 2068.14 1970.26 2068.16 1966.44C2068.17 1962.62 2070.9 1961.14 2073.85 1961.15L2112.91 1961.26L2112.96 1943.66C2112.97 1937.72 2110.49 1935.91 2107.31 1935.9L2085.05 1935.84C2082.09 1935.83 2079.37 1934.34 2079.38 1930.52C2079.39 1926.7 2082.13 1925.23 2085.08 1925.24L2107.34 1925.3C2110.52 1925.31 2113.02 1923.51 2113.04 1917.58L2113.09 1899.99L2074.03 1899.89ZM2189.03 1934.56L2189.12 1903.93C2189.12 1901.28 2190.49 1898.63 2194.8 1898.64C2199.12 1898.66 2200.47 1901.31 2200.46 1903.96L2200.37 1934.59C2203.32 1934.6 2206.04 1936.09 2206.03 1939.9C2206.02 1943.71 2203.3 1945.19 2200.34 1945.19L2200.28 1966.81C2200.27 1970.2 2198.68 1972.1 2194.59 1972.1C2190.5 1972.09 2188.93 1970.17 2188.93 1966.78L2189 1945.16L2155.62 1945.07L2155.76 1894.83C2155.77 1892.18 2157.14 1889.53 2161.45 1889.54C2165.76 1889.56 2167.12 1892.21 2167.11 1894.87L2167 1934.5L2189.03 1934.56ZM2358.17 1890.09C2364.41 1890.1 2369.5 1894.89 2369.48 1900.72L2369.3 1961.95C2369.29 1967.88 2364.39 1972.53 2357.93 1972.52L2324.57 1972.43C2318.12 1972.41 2313.24 1967.74 2313.26 1961.8L2313.43 1900.56C2313.45 1894.73 2318.57 1889.98 2324.8 1890L2358.17 1890.09ZM2357.96 1961.92L2358.13 1900.68L2324.78 1900.59L2324.61 1961.83L2357.96 1961.92ZM2439.78 1890.32C2446.02 1890.34 2451.11 1895.12 2451.1 1900.95L2450.92 1962.17C2450.9 1968.1 2446.01 1972.75 2439.55 1972.73L2406.21 1972.64C2399.75 1972.62 2394.88 1967.95 2394.9 1962.02L2395.08 1900.79C2395.09 1894.96 2400.21 1890.21 2406.45 1890.23L2439.78 1890.32ZM2439.58 1962.14L2439.76 1900.91L2406.42 1900.82L2406.25 1962.05L2439.58 1962.14ZM2521.38 1890.56C2527.61 1890.58 2532.7 1895.35 2532.68 1901.18L2532.51 1962.39C2532.49 1968.32 2527.6 1972.97 2521.14 1972.95L2487.82 1972.86C2481.36 1972.84 2476.5 1968.17 2476.52 1962.24L2476.69 1901.02C2476.71 1895.19 2481.82 1890.45 2488.05 1890.46L2521.38 1890.56ZM2521.17 1962.36L2521.34 1901.14L2488.01 1901.04L2487.84 1962.26L2521.17 1962.36ZM2602.93 1890.78C2609.16 1890.8 2614.25 1895.58 2614.23 1901.4L2614.06 1962.6C2614.04 1968.53 2609.15 1973.17 2602.69 1973.16L2569.38 1973.07C2562.93 1973.05 2558.06 1968.38 2558.07 1962.45L2558.24 1901.25C2558.26 1895.43 2563.37 1890.68 2569.6 1890.69L2602.93 1890.78ZM2602.72 1962.58L2602.89 1901.37L2569.58 1901.28L2569.41 1962.48L2602.72 1962.58ZM2765.73 1963L2765.8 1941.62C2765.81 1938.55 2767.29 1936.33 2771.48 1936.34C2775.67 1936.35 2777.14 1938.58 2777.13 1941.65L2777.05 1968.32C2777.04 1972.13 2774.31 1973.6 2771.37 1973.6L2726.76 1973.48C2723.82 1973.47 2721.1 1971.98 2721.11 1968.18C2721.12 1964.37 2723.85 1962.89 2726.79 1962.9L2743.44 1962.94L2743.61 1901.76L2726.96 1901.71C2724.02 1901.7 2721.3 1900.21 2721.31 1896.4C2721.32 1892.58 2724.04 1891.11 2726.99 1891.12L2754.95 1891.2L2754.74 1962.96L2765.73 1963ZM2813.92 1963.14L2852.86 1963.24C2855.8 1963.25 2858.51 1964.74 2858.51 1968.55C2858.5 1972.35 2855.77 1973.83 2852.83 1973.82L2802.58 1973.69L2802.68 1939.19C2802.7 1931.26 2807.01 1927.24 2815.5 1927.27L2847.3 1927.35L2847.37 1902.06L2808.44 1901.95C2805.49 1901.94 2802.78 1900.46 2802.79 1896.65C2802.8 1892.84 2805.52 1891.36 2808.47 1891.37L2846.04 1891.48C2849.78 1891.49 2852.38 1892.02 2855.2 1894.47C2858.37 1897.23 2858.69 1900.08 2858.68 1903.89L2858.62 1925.59C2858.61 1929.4 2858.26 1932.25 2855.08 1934.99C2852.25 1937.42 2849.65 1937.94 2845.91 1937.93L2813.99 1937.84L2813.92 1963.14ZM2889.88 1902.18C2886.94 1902.17 2884.23 1900.69 2884.24 1896.87C2884.25 1893.06 2886.97 1891.59 2889.91 1891.6L2928.82 1891.71C2935.27 1891.73 2940.13 1896.29 2940.11 1902.32L2940.05 1922.63C2940.04 1926.86 2939.12 1929.92 2935.6 1932.88C2939.1 1935.85 2940 1938.91 2939.98 1943.14L2939.93 1963.46C2939.91 1969.49 2935.03 1974.03 2928.58 1974.01L2889.67 1973.91C2886.74 1973.9 2884.02 1972.41 2884.03 1968.61C2884.04 1964.8 2886.76 1963.33 2889.7 1963.33L2928.61 1963.43L2928.66 1945.87C2928.68 1939.95 2926.19 1938.14 2923.03 1938.13L2900.86 1938.07C2897.92 1938.06 2895.2 1936.57 2895.22 1932.77C2895.22 1928.95 2897.95 1927.49 2900.89 1927.5L2923.06 1927.55C2926.23 1927.56 2928.72 1925.77 2928.74 1919.85L2928.79 1902.29L2889.88 1902.18ZM3004.44 1936.77L3004.53 1906.2C3004.54 1903.55 3005.89 1900.92 3010.2 1900.93C3014.5 1900.94 3015.84 1903.59 3015.84 1906.24L3015.75 1936.8C3018.69 1936.81 3021.4 1938.3 3021.39 1942.11C3021.38 1945.92 3018.66 1947.39 3015.72 1947.38L3015.66 1968.96C3015.65 1972.35 3014.06 1974.24 3009.99 1974.23C3005.92 1974.22 3004.34 1972.31 3004.35 1968.92L3004.41 1947.34L2971.16 1947.25L2971.3 1897.1C2971.31 1894.46 2972.68 1891.82 2976.97 1891.83C2981.27 1891.84 2982.62 1894.49 2982.61 1897.13L2982.49 1936.7L3004.44 1936.77Z" fill="#2A2743"/>
</g>
<g id="Group_4">
<path id="Vector_18" d="M592.69 2350.91L3243.59 2355.41L3244.38 2078.45L593.49 2072.36L592.69 2350.91Z" fill="#2A2743"/>
</g>
<path id="Vector_19" opacity="0.25" d="M2439 1441.84C2437.55 1945.53 2139.62 2383.85 1698.48 2613.15L727.95 2611.98C652.75 2611.87 592.42 2555.52 592.61 2485.62L596.41 1160.94C596.61 1090.92 657.27 1034.27 732.47 1034.59L2161.61 1041.17L2375.53 1042.11C2417.31 1168.44 2439.4 1302.69 2439 1441.84Z" fill="#F2FAFF"/>
<path id="Vector_20" opacity="0.1" d="M2161.62 1041.19C2118.65 1749.17 1488.02 2309.71 717.16 2308.37C675.24 2308.25 633.97 2306.62 593.14 2303.04L596.42 1160.96C596.62 1090.94 657.28 1034.29 732.48 1034.61L2161.62 1041.19Z" fill="#F2FAFF"/>
<g id="Group_5">
<path id="Vector_21" d="M953.97 691.44C926.83 635.96 910.09 593.11 829.84 645.58C749.59 698.05 742.58 648.38 637.09 672.36C531.6 696.34 615.86 781.94 520.51 849.23C425.16 916.52 393.13 1044.06 494.58 1053.01C596.03 1061.96 648.02 903.17 728.92 960.09C809.82 1017.01 1034.68 856.45 953.97 691.44Z" fill="#33143F"/>
<path id="Vector_22" opacity="0.35" d="M953.97 691.44C949.1 681.49 944.57 671.95 939.94 663.29C936.38 661.71 932.73 660.35 929.01 659.2C912.94 654.2 895.29 652.66 878.74 656.11C870.88 657.75 863.18 660.63 856.49 665.12C848.81 670.28 842.7 677.97 837.7 685.65C832.37 693.85 828.04 702.87 825.24 712.26C822.85 720.26 823.59 729.12 824.39 737.31C825.24 745.98 826.6 754.61 827.06 763.32C827.46 770.8 827.26 778.59 824.59 785.68C819.62 798.85 807.09 806.12 794.72 811.25C781.35 816.78 767.15 819.97 753.83 825.62C747.96 828.11 741.43 831.06 737.42 836.24C734.64 839.83 733.83 844.23 733.3 848.63C731.72 861.69 729.85 875.44 721.15 885.92C712.02 896.92 697.87 901.29 684.22 903.36C670.14 905.5 655.18 904.23 641.58 908.98C630.96 912.69 623.73 920.91 617.1 929.63C612.21 936.05 607.66 942.73 602.61 949.03C597.22 955.75 591.43 962.15 585.23 968.13C560.42 992.02 527.56 1009.1 492.29 1004.8C468.96 1001.96 449.9 987.34 438.25 967.33C437.44 965.94 436.67 964.52 435.92 963.09C423.98 1008.86 439.85 1048.19 494.57 1053.02C596.01 1061.98 648.01 903.18 728.91 960.1C809.8 1017.02 1034.68 856.45 953.97 691.44Z" fill="#33143F"/>
<path id="Vector_23" d="M1071.29 889.61L1269.72 705.38L1243.37 422.39L1280.32 407.22C1280.32 407.22 1365.09 686.53 1331.07 788.08C1311.02 847.9 1138.38 985.89 1138.38 985.89L1071.29 889.61Z" fill="#FB8A77"/>
<path id="Vector_24" d="M741.38 1098.71L606.69 1263.23L378.98 1460.01L383.52 1421.98L513.24 1235.49L695.68 970.6L741.38 1098.71Z" fill="#FB8A77"/>
<path id="Vector_25" d="M447.31 2157.15C447.31 2157.15 445.24 2159.76 441.57 2158.39C437.9 2157.02 440.75 1984.4 446.49 1983.17C452.23 1981.93 454.52 1986.98 454.52 1986.98C454.52 1986.98 455.65 2144.89 447.31 2157.15Z" fill="#383B4B"/>
<path id="Vector_26" d="M556.58 1990.25L467.1 1998.31L457.47 2044.42L545.68 2042.42L556.58 1990.25Z" fill="#FB8A77"/>
<path id="Vector_27" d="M502.17 1981.61C475.66 1976.45 455.88 1975.58 450.72 1984.68C445.2 1993.68 444.16 2158.62 444.16 2158.62C444.16 2158.62 466.99 2177.9 473.61 2137.55C479.03 2106.37 497.31 2069.18 505.6 2053.85L505.95 2053.92C516.5 2050.31 526.78 2055.01 523.12 2049.89C520.84 2046.88 515.08 2044.95 508.82 2043.64C499.41 2034.78 498.27 2005.5 505.99 1998.03C506.01 1998.02 528.61 1987.12 502.17 1981.61Z" fill="#202234"/>
<path id="Vector_28" d="M469.71 2097.15C455.41 2123.94 473.62 2137.54 473.62 2137.54C479.04 2106.36 497.32 2069.17 505.61 2053.84L505.96 2053.91C496.19 2046.78 483.72 2071.77 469.71 2097.15ZM919.29 2229.65C919.29 2229.65 918.91 2232.96 915.07 2233.73C911.23 2234.5 822.69 2086.29 826.92 2082.22C831.14 2078.14 835.75 2081.22 835.75 2081.22C835.75 2081.22 919.91 2214.83 919.29 2229.65Z" fill="#383B4B"/>
<path id="Vector_29" d="M924.2 2030.22L852.4 2084.22L868.52 2128.48L942.43 2080.3L924.2 2030.22Z" fill="#FB8A77"/>
<path id="Vector_30" d="M873.41 2051.54C848.16 2061.12 830.89 2070.81 831.3 2081.26C831.36 2091.82 917.39 2232.54 917.39 2232.54C917.39 2232.54 946.96 2236.9 931.31 2199.11C919.49 2169.76 915.42 2128.51 914.39 2111.11L914.73 2110.99C921.8 2102.36 933 2100.94 927.2 2098.51C923.68 2097.15 917.76 2098.55 911.76 2100.74C899.1 2098.17 882.69 2073.88 885.33 2063.47C885.31 2063.47 898.78 2042.3 873.41 2051.54Z" fill="#202234"/>
<path id="Vector_31" d="M906.7 2166.85C908.66 2197.15 931.31 2199.12 931.31 2199.12C919.49 2169.77 915.42 2128.52 914.39 2111.12L914.73 2111C902.67 2110.08 905.24 2137.9 906.7 2166.85Z" fill="#383B4B"/>
<g id="Group_6">
<path id="Vector_32" d="M798.98 1397.61C798.98 1397.61 780.3 1400.71 835.5 1515.09C866.66 1579.66 975.15 1669.5 975.15 1669.5L1133.51 1799.38L898.89 2040.93L932.44 2096.98C932.44 2096.98 1307.08 1934.46 1336.97 1832.38C1388.63 1655.92 991.09 1257.5 948.47 1267.17C905.85 1276.84 798.98 1397.61 798.98 1397.61Z" fill="#1A2347"/>
</g>
<g id="Group_7" opacity="0.2">
<path id="Vector_33" opacity="0.2" d="M1070.53 1996.92C1078.3 1981.08 1083.35 1964.39 1086.69 1947.09C1089.95 1930.19 1090.45 1912.79 1095.29 1896.2C1102.02 1873.14 1115.3 1856.08 1133.63 1841.09C1147.21 1829.99 1165.96 1819.48 1170.29 1801.13C1176.42 1775.15 1156.84 1748.15 1143.49 1727.83C1128.66 1705.25 1113.17 1681.15 1111.82 1653.32C1111.16 1639.67 1114.85 1626.52 1117.69 1613.32C1121.12 1597.39 1120.58 1582.82 1114.81 1567.47C1104.98 1541.37 1091.91 1520.16 1098.45 1491.37C1103.65 1468.49 1116.62 1445.54 1134.56 1428.98C1049.56 1333.38 966.66 1263.03 948.47 1267.16C905.85 1276.84 798.98 1397.6 798.98 1397.6C798.98 1397.6 780.3 1400.7 835.5 1515.08C866.66 1579.65 975.15 1669.49 975.15 1669.49L1133.51 1799.38L898.89 2040.92L932.44 2096.97C932.44 2096.97 976.54 2077.84 1035.69 2048.58C1049.32 2032.75 1061.39 2015.56 1070.53 1996.92Z" fill="#231F20"/>
</g>
<g id="Group_8">
<path id="Vector_34" d="M783.52 1386.61C783.52 1386.61 766.01 1379.4 752.65 1505.7C745.1 1577 789.97 1710.52 789.97 1710.52L856.11 1904.36L529.42 1986.01L528.4 2051.32C528.4 2051.32 932.45 2110.62 1011.64 2039.61C1148.54 1916.86 1020.62 1368.76 979.3 1354.52C937.98 1340.29 783.52 1386.61 783.52 1386.61Z" fill="#232B57"/>
</g>
<g id="Group_9" opacity="0.2">
<path id="Vector_35" opacity="0.2" d="M856.11 1904.36L605.26 1967.05C674.21 1987.26 749.51 1979.26 817.65 1949.09C845.38 1936.81 873.8 1918.83 878.87 1886.61C883.46 1857.44 873.22 1826.2 866.89 1798.03C862.57 1778.78 858.16 1759.91 861.09 1740.08C864.18 1719.21 873.68 1699.88 876.67 1678.91C883.04 1634.29 847.81 1596.41 851.02 1551.32C855.62 1486.63 920.52 1408.99 989.65 1448.88C1007.12 1458.96 1020.54 1474.14 1031.7 1491.03C1012.85 1413.73 992 1358.89 979.31 1354.51C937.99 1340.27 783.53 1386.6 783.53 1386.6C783.53 1386.6 766.03 1379.39 752.66 1505.69C745.11 1576.99 789.98 1710.51 789.98 1710.51L856.11 1904.36Z" fill="#231F20"/>
</g>
<g id="Group_10">
<path id="Vector_36" d="M947.16 910.67C947.16 910.67 1028.28 891 1105.82 851.74C1105.82 851.74 1188.19 943.48 1180 979.49C1172.67 1011.71 1070.72 1053.85 1070.72 1053.85C1070.72 1053.85 931.65 967.35 947.16 910.67Z" fill="#FFCA1A"/>
<path id="Vector_37" opacity="0.1" d="M1165.8 957.26C1164.78 960.59 1163.74 963.95 1162.29 967.12C1160.39 971.27 1157.52 975.08 1154.28 978.27C1147.25 985.2 1137.79 988.44 1128.02 988.55C1117.73 988.67 1107.55 985.85 1098.03 982.13C1092.65 980.02 1087.4 977.54 1082.16 975.12C1076.05 972.3 1070 969.33 1064.01 966.27C1041.48 954.75 1019.67 941.76 996.48 931.56C984.97 926.49 973.12 922.15 960.92 919.04C956.04 917.79 951.12 916.75 946.17 915.9C939.92 972.51 1070.73 1053.86 1070.73 1053.86C1070.73 1053.86 1172.68 1011.72 1180.01 979.5C1182.2 969.87 1177.91 956.25 1170.45 941.46C1168.86 946.71 1167.41 952.01 1165.8 957.26Z" fill="#231F20"/>
<path id="Vector_38" d="M1142.63 1375.76C1154.64 1335.1 1086.75 1280.13 1066.58 1233.58C1025.62 1139.1 1117.96 1086.89 1079.86 1017.45C1041.76 948.09 1012.97 921.58 914.02 903.96C874.14 896.86 759.69 883.41 755.98 939.62C754.49 961.24 764.59 1030.52 775.63 1112.35C783.7 1171.83 792.22 1237.93 797.16 1297.15C803.12 1368.33 759.17 1389.43 747.72 1417.35C721.81 1480.87 1117.16 1461.97 1142.63 1375.76Z" fill="#FFCA1A"/>
<path id="Vector_39" d="M775.63 913.39C775.63 913.39 651.6 967.41 622.32 1070.29C622.32 1070.29 653.74 1163.89 695.34 1171.14L783.1 1106.79L775.63 913.39Z" fill="#FFCA1A"/>
</g>
<g id="Group_11">
<path id="Vector_40" d="M350.67 1489.49C350.67 1489.49 330.48 1462.91 345.03 1442.81C359.58 1422.71 370.78 1434.33 370.78 1434.33C370.78 1434.33 355.41 1465.51 357.12 1473.57C358.83 1481.62 359.26 1492.11 350.67 1489.49Z" fill="#ED7666"/>
<path id="Vector_41" d="M344.26 1497.29C344.26 1497.29 324.07 1470.71 338.62 1450.61C353.17 1430.51 364.37 1442.13 364.37 1442.13C364.37 1442.13 349 1473.32 350.71 1481.37C352.42 1489.42 352.85 1499.91 344.26 1497.29Z" fill="#FB8A77"/>
<path id="Vector_42" d="M335.44 1501.76C335.44 1501.76 315.25 1475.18 329.8 1455.08C344.35 1434.98 355.55 1446.6 355.55 1446.6C355.55 1446.6 340.18 1477.79 341.89 1485.84C343.6 1493.89 344.03 1504.38 335.44 1501.76Z" fill="#ED7666"/>
<path id="Vector_43" d="M434.81 1413.17C434.81 1413.17 421.24 1395.96 412.04 1392.71C412.04 1392.71 388.71 1420.67 378.14 1425.41C367.57 1430.15 345.64 1425.66 327.58 1441.47C317.96 1449.89 308.15 1459.71 306.49 1468.18C304.77 1476.94 308.64 1499.74 313.85 1501.37C319.07 1503.01 319.64 1487.9 320.73 1478.98C321.82 1470.06 327.82 1461.84 336.22 1457.98C344.62 1454.12 353.71 1462.92 353.71 1462.92C353.71 1462.92 334.33 1477.38 336.09 1482.34C337.85 1487.31 348.17 1479.16 359.99 1473.82C371.81 1468.48 393.2 1462.39 394.94 1451.62C396.68 1440.86 434.81 1413.17 434.81 1413.17Z" fill="#FB8A77"/>
<path id="Vector_44" opacity="0.2" d="M344.13 1480.6C344.2 1480.52 343.38 1476.47 341.31 1477.16C339.24 1477.84 336.36 1482.09 337.82 1482.29C339.29 1482.49 342.5 1482.42 344.13 1480.6ZM314.55 1501.03C314.74 1500.98 313.13 1496.11 311.96 1495.12C310.78 1494.14 309.97 1494.67 309.97 1494.67C309.97 1494.67 312.15 1501.68 314.55 1501.03Z" fill="white"/>
</g>
<g id="Group_12">
<path id="Vector_45" d="M837.06 757.56C845.22 810.08 894.4 846.04 946.92 837.88C999.44 829.72 1035.4 780.54 1027.24 728.02C1019.08 675.5 969.89 639.54 917.38 647.7C864.86 655.86 828.9 705.04 837.06 757.56Z" fill="#33143F"/>
<path id="Vector_46" d="M895.72 827.01L900.89 923.38C900.89 923.38 937.21 962.65 961.63 925.38L950.92 861.72L895.72 827.01Z" fill="#FB8A77"/>
<path id="Vector_47" opacity="0.15" d="M936.54 930.53C941.21 918.76 941.09 901.97 929.77 893.89C925.19 890.62 919.64 889 915.18 885.55C909.63 881.26 907.59 873.76 907.26 867.04C906.72 856.07 909.67 844.84 907.26 834.26L950.92 861.71L961.63 925.37C952.09 939.93 940.75 942.79 930.45 940.89C932.92 937.82 935.01 934.37 936.54 930.53Z" fill="#33133F"/>
<path id="Vector_48" d="M1006.28 709.94C1006.28 709.94 1035.3 861.67 975.44 875.87C915.59 890.07 879.1 830.41 879.1 830.41C879.1 830.41 869.01 839.05 864.62 828.31C860.23 817.56 843.88 799.96 856.02 790.45C868.15 780.94 874.3 792.51 874.3 792.51L861.49 759.12C861.49 759.11 996.92 660.23 1006.28 709.94Z" fill="#FB8A77"/>
<path id="Vector_49" opacity="0.05" d="M868.74 795.52C868.74 795.52 860.09 792.45 857.87 799.17C855.65 805.89 866.36 828.57 875.33 824.24C875.33 824.24 862.39 820.86 861.57 806.12C860.74 791.37 867.38 800.47 868.74 795.52ZM911.2 826.62C911.14 830.96 916.43 834.56 923 834.64C929.57 834.73 934.94 831.27 935 826.93C935.05 822.59 929.77 818.99 923.2 818.91C916.63 818.82 911.26 822.28 911.2 826.62ZM983.82 815.75C983.76 820.09 989.05 823.68 995.62 823.77C1002.19 823.86 1007.57 820.4 1007.62 816.06C1007.67 811.71 1002.39 808.12 995.82 808.04C989.25 807.95 983.88 811.4 983.82 815.75Z" fill="#33133F"/>
<path id="Vector_50" d="M976.96 779.86C977.73 779.74 978.36 779.14 978.48 778.33C978.57 777.73 980.85 763.78 999.13 762.71C1000.12 762.66 1000.89 761.8 1000.83 760.8C1000.77 759.8 999.92 759.04 998.92 759.1C977.64 760.31 974.92 777.65 974.89 777.82C974.75 778.81 975.44 779.72 976.42 779.86C976.6 779.89 976.78 779.89 976.96 779.86ZM938.2 785.89C938.5 785.84 938.68 785.81 938.74 785.8C939.72 785.61 940.36 784.66 940.17 783.68C939.98 782.7 939 782.07 938.05 782.25C937.92 782.27 925.51 784.57 912.88 777.74C912 777.26 910.9 777.59 910.42 778.47C909.94 779.35 910.27 780.45 911.15 780.92C923.58 787.65 935.52 786.31 938.2 785.89ZM961.67 819.56C966.71 818.78 969.06 815.62 969.19 815.44C969.68 814.76 969.64 813.84 969.1 813.21C965.69 809.21 966.37 796.89 966.93 792.48C967.05 791.49 966.35 790.58 965.36 790.46C964.36 790.34 963.46 791.04 963.33 792.03C963.12 793.69 961.54 807.49 965.38 814.18C964.05 815.25 961.14 816.81 956.25 815.77C955.27 815.56 954.31 816.18 954.1 817.16C953.89 818.14 954.52 819.1 955.5 819.31C957.88 819.82 959.93 819.84 961.67 819.56Z" fill="#33143F"/>
<path id="Vector_51" d="M982.31 790.43C983.18 796.01 986.97 800.05 990.79 799.46C994.61 798.87 997 793.87 996.13 788.29C995.26 782.71 991.47 778.67 987.65 779.26C983.83 779.85 981.44 784.85 982.31 790.43ZM920.12 800.09C920.99 805.67 924.78 809.71 928.6 809.12C932.42 808.53 934.81 803.53 933.94 797.95C933.07 792.37 929.28 788.33 925.46 788.92C921.64 789.51 919.25 794.51 920.12 800.09Z" fill="#33133F"/>
<path id="Vector_52" d="M949.62 841.94C950.8 845.59 965.14 849.77 968.94 849.31C979.65 848.02 988.06 840.65 986.88 837C985.7 833.35 971.38 837.21 967.74 838.39C964.08 839.57 948.43 838.29 949.62 841.94Z" fill="white"/>
<path id="Vector_53" d="M974.8 689.19C973.44 682.84 973.11 678.62 973.11 678.62C1036.97 674.42 1016.83 744.5 1016.83 744.5C993.26 736.96 982.26 715 977.22 698.48C963.89 724.28 929.85 777.2 870.83 787.6L846.74 758.68L974.8 689.19Z" fill="#33133F"/>
<path id="Vector_54" d="M965 680.73C978.43 683.11 988.51 695.32 996.03 705.8C1002.71 715.1 1009.28 725.24 1012.22 736.4C1014.53 745.14 1015.45 754.29 1015.55 763.32C1015.66 773.33 1014.34 783.25 1014.85 793.27C1015.49 805.74 1017.9 818.95 1026.89 828.24C1033.83 835.4 1043.35 839.33 1050.99 845.63C1053.23 847.48 1050.57 851.15 1048.32 849.29C1041.63 843.77 1033.66 840.09 1027.03 834.51C1019.01 827.76 1014.39 818.7 1012.19 808.53C1008.38 790.95 1012.07 773.32 1010.71 755.64C1010.02 746.57 1008.67 736.95 1004.75 728.65C1002.92 724.77 1000.61 721.04 998.35 717.4C994.27 710.83 989.76 704.47 984.58 698.73C979.25 692.83 972.59 686.68 964.49 685.24C961.63 684.73 962.12 680.22 965 680.73ZM921.66 692.08C895.36 705.42 885.97 735.62 882.09 762.86C878.24 789.9 879.72 817.1 878.13 844.26C877.7 851.59 877.69 862.22 871.89 867.71C869.77 869.72 866.93 866.19 869.03 864.19C873.7 859.77 873.33 848.92 873.66 843.09C874.36 830.57 874.21 818.02 874.5 805.5C875.17 777.02 876.69 746.43 889.3 720.33C895.96 706.54 906.02 694.93 919.79 687.95C922.4 686.63 924.25 690.77 921.66 692.08Z" fill="#33143F"/>
</g>
<g id="Group_13">
<path id="Vector_55" d="M1291.83 415.67C1291.08 411.17 1290.08 406.7 1288.78 402.6L1288.79 402.59C1288.78 402.58 1288.78 402.58 1288.79 402.55C1288.74 402.34 1288.51 401.25 1288.15 399.66L1288.14 399.65C1287.85 398.39 1287.45 396.85 1286.97 395.22C1286.97 395.22 1282.79 376.55 1277.12 375.56C1271.45 374.56 1269.53 378.45 1269.53 378.45C1269.53 378.45 1266.46 373.79 1261.14 375.05C1255.82 376.31 1255.14 380.26 1255.14 380.26C1255.14 380.26 1252.43 375.89 1246.38 377.3C1240.33 378.71 1238.82 384.17 1238.82 384.17C1238.82 384.17 1234.31 377.83 1227.81 384.92C1221.34 391.98 1226.86 404.94 1227.03 405.52C1227.66 407.98 1228.4 410.34 1229.2 412.58C1229.43 413.19 1229.54 413.85 1229.88 414.4C1253.94 454.06 1258.31 530.84 1265.95 533.92C1265.95 533.92 1304.08 534.66 1306.07 525.41C1304.76 516.72 1285.74 442.34 1285.74 442.34C1285.74 442.34 1294.64 432.55 1291.83 415.67Z" fill="#FB8A77"/>
<path id="Vector_56" opacity="0.2" d="M1288.78 402.6L1288.79 402.59C1288.78 402.58 1288.78 402.58 1288.79 402.55C1288.74 402.34 1288.51 401.25 1288.15 399.66L1288.14 399.65C1287.85 398.39 1287.45 396.85 1286.97 395.22C1286.97 395.22 1282.79 376.55 1277.12 375.56C1271.45 374.56 1269.53 378.45 1269.53 378.45C1269.53 378.45 1266.46 373.79 1261.14 375.05C1255.82 376.31 1255.14 380.26 1255.14 380.26C1255.14 380.26 1252.43 375.89 1246.38 377.3C1240.33 378.71 1238.82 384.17 1238.82 384.17C1238.82 384.17 1234.31 377.83 1227.81 384.92C1225.48 387.46 1224.72 390.76 1224.69 393.97C1226.95 391.15 1230.23 388.7 1233.74 388.01C1234.64 387.83 1235.58 387.78 1236.49 387.94C1237.53 388.12 1238.49 388.59 1239.51 388.86C1241.71 389.45 1243.51 388.04 1245.31 386.93C1247.64 385.5 1250.04 384.34 1252.82 384.35C1254.91 384.35 1256.91 384.98 1258.92 385.45C1261.03 385.95 1263.19 386.13 1265.25 385.32C1267.22 384.55 1269.05 383.77 1271.2 383.77C1274.93 383.76 1277.88 386.11 1279.88 389.07C1281.26 391.12 1282.18 393.43 1283.13 395.7C1284.38 398.66 1285.57 401.64 1286.76 404.62C1288.8 409.72 1290.87 414.75 1292.28 420.07C1292.2 418.66 1292.07 417.21 1291.82 415.68C1291.08 411.17 1290.08 406.71 1288.78 402.6Z" fill="white"/>
<path id="Vector_57" opacity="0.1" d="M1239.33 430.33C1239.33 430.33 1233.07 417.44 1239.21 414.44C1245.35 411.45 1248.49 425.08 1264.72 422.15C1287.18 418.09 1280.78 400.46 1281.96 398.08C1283.15 395.7 1280.78 390.53 1280.78 390.53C1280.78 390.53 1279.82 396.14 1275.34 397.33C1270.85 398.52 1258.34 401.56 1250.04 403.38C1243.65 394.83 1226.22 392.87 1225.51 399.1C1224.8 405.32 1233.93 428.94 1239.33 430.33Z" fill="#231F20"/>
<path id="Vector_58" d="M1275.88 397.11C1276.95 396.68 1278.03 396.25 1279.08 395.78C1278.01 396.04 1276.94 396.32 1275.88 396.6C1275.44 393.7 1274.71 390.8 1273.74 387.88C1272.74 384.89 1271.42 381.88 1269.68 378.97C1271.21 381.92 1272.28 384.9 1273.04 387.83C1273.79 390.76 1274.29 393.69 1274.47 396.47V396.49C1274.48 396.63 1274.55 396.78 1274.65 396.91C1273.03 397.34 1271.4 397.77 1269.78 398.18C1267.79 398.66 1265.81 399.15 1263.83 399.62C1263.14 396.76 1262.19 393.92 1260.99 391.07C1259.69 388 1258.06 384.94 1255.98 382.01C1257.84 385 1259.2 388.05 1260.24 391.07C1261.26 394.06 1262.01 397.07 1262.41 399.95C1261.76 400.1 1261.12 400.26 1260.48 400.4C1257.37 401.11 1254.25 401.71 1251.11 402.24C1250.4 402.36 1249.69 402.43 1248.98 402.53C1248 399.56 1246.71 396.64 1245.15 393.73C1243.57 390.81 1241.66 387.91 1239.32 385.2C1241.45 387.99 1243.09 390.89 1244.4 393.8C1245.7 396.7 1246.74 399.64 1247.42 402.49L1247.43 402.52C1247.45 402.59 1247.49 402.66 1247.53 402.73C1247.15 402.78 1246.76 402.85 1246.38 402.89C1244.8 403.1 1243.21 403.22 1241.6 403.25C1244.79 403.74 1248.05 403.58 1251.25 403.3C1254.47 403.02 1257.64 402.45 1260.79 401.76C1263.94 401.07 1267.04 400.21 1270.1 399.21L1274.65 397.62C1274.89 397.52 1275.12 397.43 1275.36 397.33C1275.59 397.37 1275.8 397.29 1275.88 397.11Z" fill="#E57263"/>
<path id="Vector_59" d="M1250.4 404.12C1248.12 400.54 1227.14 398.76 1227.14 398.76C1220.05 401.82 1219.83 422.79 1221.77 425.82C1228.74 439.35 1238.87 446.86 1243.67 446.37C1242.54 438.87 1238.67 429.11 1235.08 420.24C1235.33 416.52 1236.35 411.37 1240.15 411.21C1246.09 410.95 1252.68 407.7 1250.4 404.12Z" fill="#FB8A77"/>
<path id="Vector_60" opacity="0.2" d="M1226.05 415.41C1227.86 413.21 1226.05 404.37 1228.81 403.7C1242.41 400.39 1238.27 407.2 1246.11 409.16C1246.47 409.25 1246.79 409.45 1247.15 409.55C1250.01 408.21 1251.74 406.23 1250.4 404.12C1248.12 400.54 1227.14 398.76 1227.14 398.76C1220.45 401.65 1219.87 420.5 1221.46 425.14C1221.17 420.2 1222.9 419.25 1226.05 415.41Z" fill="white"/>
<path id="Vector_61" opacity="0.2" d="M1243.67 402.12C1243.67 402.12 1249.22 402.53 1250.21 404.54C1251.21 406.55 1248.31 406.34 1246.5 405.9C1244.69 405.46 1243.32 404.67 1243.32 404.67L1243.67 402.12Z" fill="white"/>
<path id="Vector_62" opacity="0.1" d="M1283.66 443.73C1280.32 448.36 1271.31 450.41 1262.88 451.44C1256.48 452.22 1250.52 449.98 1246 447.36C1246.74 448.28 1247.5 449.19 1248.35 450.05C1250.55 452.28 1259.59 462.44 1267.79 460.68C1280.6 457.93 1281.61 446.15 1283.73 444.25C1283.71 444.08 1283.69 443.9 1283.66 443.73Z" fill="#231F20"/>
</g>
<path id="Vector_63" opacity="0.1" d="M847.37 1183.14C845 1175.51 834.15 1089.65 841.17 1071.72C848.2 1053.79 932.18 1126.47 992.61 1102.39C1053.04 1078.31 1053.28 1035.17 1065.73 1050.63C1078.18 1066.09 1035.16 1100.95 1042.95 1165.18C1050.74 1229.41 1032.92 1156.11 982.1 1154.36C931.28 1152.6 875.5 1273.51 847.37 1183.14Z" fill="#231F20"/>
</g>
<g id="Group_14">
<path id="Vector_64" d="M1242.72 2522.04C1242.72 2522.04 1225.04 2393.69 1260.24 2406.35C1295.45 2419.02 1279.29 2470.46 1242.72 2522.04Z" fill="#3A3A77"/>
<path id="Vector_65" d="M1240.4 2520.8C1240.4 2520.8 1312.4 2394.19 1362.06 2437.72C1411.73 2481.26 1240.4 2520.8 1240.4 2520.8Z" fill="#59599B"/>
<path id="Vector_66" opacity="0.5" d="M1359.3 2439.14C1357.86 2443.09 1355.5 2446.45 1351.23 2447.48C1345.9 2448.77 1340.1 2447.2 1334.74 2446.9C1328.63 2446.56 1322.77 2447.46 1317.23 2450.12C1311.88 2452.69 1307.3 2456.58 1302.78 2460.36C1298.25 2464.15 1293.63 2468.28 1288.32 2470.96C1283.29 2473.5 1277.32 2474.59 1271.79 2475.46C1271.78 2475.46 1271.78 2475.46 1271.77 2475.46C1296.63 2444.92 1331.78 2413.96 1360.17 2436.17C1359.94 2437.18 1359.65 2438.17 1359.3 2439.14Z" fill="#F2F8FF"/>
<g id="Group_15">
<path id="Vector_67" d="M1341.7 2590.55H720.16L729.07 2559.48L750.04 2485.89C764.89 2433.94 816.5 2401.43 869.81 2410.51L896.72 2415.18C898.76 2415.52 900.71 2415.69 902.66 2415.69C914.54 2415.69 925.83 2409.75 932.54 2399.65C978.72 2330.38 1083.13 2338.96 1117.42 2414.84L1122.01 2425.03C1130.1 2443 1151.21 2451.03 1169.19 2442.98L1196.02 2430.97C1211.72 2423.93 1229.21 2429.19 1238.89 2441.58C1242.46 2446.08 1245 2451.51 1246.02 2457.62L1250.01 2480.88C1251.03 2486.65 1253.24 2491.75 1256.38 2495.99C1256.97 2496.75 1257.57 2497.52 1258.16 2498.19C1263.59 2504.47 1270.98 2508.63 1279.04 2510.08C1281.07 2510.5 1283.28 2510.67 1285.41 2510.67C1292.14 2510.67 1298.97 2508.82 1305.16 2504.69C1319.13 2495.36 1337.87 2497.69 1349.75 2509.57L1367.78 2527.6C1391.01 2550.83 1374.55 2590.55 1341.7 2590.55Z" fill="#59599B"/>
<path id="Vector_68" opacity="0.2" d="M1366.03 2540.95C1362.39 2535.54 1360.2 2529.23 1356.28 2524C1348.19 2513.19 1333.37 2511.02 1320.76 2513.13C1312.28 2514.55 1304.28 2517.59 1295.55 2516.81C1288.74 2516.2 1281.97 2515.13 1275.35 2513.39C1262.36 2509.97 1249.21 2503.61 1241.92 2491.82C1234.67 2480.09 1238.12 2464.56 1229.55 2453.43C1220.33 2441.46 1204.46 2442.59 1191.66 2447.27C1184.49 2449.89 1178.13 2454.29 1170.93 2456.77C1162.49 2459.67 1153.42 2460.04 1144.74 2458.05C1140.25 2457.02 1135.89 2455.43 1131.76 2453.39C1129.2 2452.13 1126.86 2450.76 1125.05 2448.5C1122.08 2444.79 1120.96 2439.89 1121.13 2435.21C1121.23 2432.37 1121.86 2429.52 1122.95 2426.91C1131.63 2443.53 1151.83 2450.74 1169.17 2442.98L1196 2430.97C1211.7 2423.92 1229.19 2429.19 1238.87 2441.58C1242.44 2446.08 1244.98 2451.51 1246 2457.62L1249.99 2480.88C1251.01 2486.65 1253.22 2491.75 1256.36 2495.99C1256.95 2496.75 1257.55 2497.52 1258.14 2498.19C1263.57 2504.47 1270.96 2508.63 1279.02 2510.08C1281.05 2510.5 1283.26 2510.67 1285.39 2510.67C1292.12 2510.67 1298.95 2508.82 1305.14 2504.69C1319.11 2495.36 1337.85 2497.69 1349.73 2509.57L1367.76 2527.6C1374.31 2534.16 1377.71 2542.02 1378.46 2549.94C1373.3 2548.8 1369.1 2545.51 1366.03 2540.95Z" fill="#F2F8FF"/>
<path id="Vector_69" d="M1286.85 2590.55H720.16L729.07 2559.48C757.08 2534.35 795.79 2522.05 835.18 2528.84L856.14 2532.4L867.43 2534.27C869.89 2534.69 872.35 2534.86 874.73 2534.86C879.99 2534.86 885.17 2533.93 890.01 2532.06C898.16 2528.92 905.29 2523.4 910.38 2515.76C917.51 2504.98 925.92 2495.81 935.08 2488.26C938.64 2485.2 942.29 2482.49 946.11 2480.03C966.74 2466.36 990.42 2459.57 1014.19 2459.32C1028.11 2459.07 1041.95 2461.1 1055.19 2465.43C1087.36 2475.62 1115.88 2498.79 1131.75 2534.02L1137.27 2546.08C1147.03 2567.73 1172.41 2577.32 1193.97 2567.64L1210.27 2560.34L1225.97 2553.3C1233.1 2550.07 1240.57 2549.06 1247.7 2549.74C1266.21 2551.52 1282.5 2565.27 1285.9 2585.22L1286.85 2590.55Z" fill="#3A3A77"/>
<path id="Vector_70" d="M1207.44 2478.61C1207.44 2484.71 1202.49 2489.66 1196.39 2489.66C1190.29 2489.66 1185.34 2484.71 1185.34 2478.61C1185.34 2472.51 1190.29 2467.56 1196.39 2467.56C1202.5 2467.56 1207.44 2472.5 1207.44 2478.61ZM1061.1 2528.85C1061.1 2534.95 1056.15 2539.9 1050.05 2539.9C1043.95 2539.9 1039 2534.95 1039 2528.85C1039 2522.75 1043.95 2517.8 1050.05 2517.8C1056.16 2517.8 1061.1 2522.75 1061.1 2528.85ZM826.67 2448.82C826.67 2454.92 821.72 2459.87 815.62 2459.87C809.52 2459.87 804.57 2454.92 804.57 2448.82C804.57 2442.72 809.51 2437.77 815.62 2437.77C821.73 2437.77 826.67 2442.72 826.67 2448.82Z" fill="#C0B7CC"/>
<path id="Vector_71" d="M1089.51 2424.66C1089.51 2429.63 1085.48 2433.66 1080.51 2433.66C1075.54 2433.66 1071.51 2429.63 1071.51 2424.66C1071.51 2419.69 1075.54 2415.66 1080.51 2415.66C1085.48 2415.66 1089.51 2419.69 1089.51 2424.66ZM880.14 2512.78C880.14 2517.75 876.11 2521.78 871.14 2521.78C866.17 2521.78 862.14 2517.75 862.14 2512.78C862.14 2507.81 866.17 2503.78 871.14 2503.78C876.11 2503.78 880.14 2507.81 880.14 2512.78Z" fill="#DEEEFC"/>
<g id="Group_16">
<path id="Vector_72" d="M1209.6 2584.74C1209.6 2584.74 1159.77 2521.92 1182.52 2517.59C1205.26 2513.25 1212.85 2545.75 1209.6 2584.74Z" fill="#3A3A77"/>
<path id="Vector_73" opacity="0.15" d="M1208 2546.12C1205.68 2545.57 1204.23 2543.94 1203.23 2541.84C1201.23 2537.63 1201.38 2532.69 1199.08 2528.6C1197.92 2526.54 1196.12 2524.97 1193.99 2523.98C1191.88 2523.01 1189.53 2522.52 1187.53 2521.34C1185.59 2520.19 1185.24 2518.8 1186.74 2517.2C1198.64 2517.36 1205.67 2528.93 1208.64 2546.23C1208.42 2546.19 1208.2 2546.17 1208 2546.12Z" fill="#F2F8FF"/>
<path id="Vector_74" d="M1209.6 2584.74C1209.6 2584.74 1241.01 2500.25 1275.67 2521.92C1310.33 2543.58 1209.6 2584.74 1209.6 2584.74Z" fill="#DEEEFC"/>
<path id="Vector_75" opacity="0.2" d="M1274.26 2521.16C1273.9 2521.97 1273.09 2522.71 1272.47 2522.97C1271.09 2523.53 1269.3 2523.32 1267.84 2523.29C1264.62 2523.23 1261.31 2523 1258.13 2523.64C1254.71 2524.32 1251.44 2526.31 1248.63 2528.29C1243.46 2531.94 1240.12 2537.63 1234.8 2541.04C1233.94 2541.59 1232.72 2542.2 1231.34 2542.72C1242.99 2525.92 1258.23 2512.44 1274.26 2521.16Z" fill="#F2F8FF"/>
<path id="Vector_76" d="M1209.6 2584.74C1209.6 2584.74 1093.7 2570.66 1122.95 2552.25C1152.19 2533.83 1209.6 2584.74 1209.6 2584.74Z" fill="#C0B7CC"/>
<path id="Vector_77" opacity="0.2" d="M1170.9 2559.02C1167.49 2558.39 1164.98 2556.38 1162.07 2554.65C1159.32 2553.01 1156.34 2551.69 1153.2 2551.03C1148.75 2550.09 1144.28 2551.23 1139.82 2550.62C1138.26 2550.41 1136.43 2549.87 1135.84 2548.33C1147.42 2547.61 1160.8 2552.65 1172.97 2559.22C1172.28 2559.18 1171.59 2559.15 1170.9 2559.02Z" fill="#F2F8FF"/>
</g>
</g>
</g>
<path id="SMART STUDENT CARD" opacity="0.7" d="M1515.78 1315.01C1509.06 1315.01 1503.01 1313.86 1497.63 1311.55C1492.26 1309.15 1488.03 1305.79 1484.96 1301.47C1481.89 1297.15 1480.35 1292.11 1480.35 1286.35H1497.92C1498.3 1290.67 1499.98 1294.22 1502.96 1297.01C1506.03 1299.79 1510.3 1301.18 1515.78 1301.18C1521.44 1301.18 1525.86 1299.84 1529.02 1297.15C1532.19 1294.37 1533.78 1290.82 1533.78 1286.5C1533.78 1283.14 1532.77 1280.4 1530.75 1278.29C1528.83 1276.18 1526.38 1274.54 1523.41 1273.39C1520.53 1272.24 1516.5 1270.99 1511.31 1269.65C1504.78 1267.92 1499.46 1266.19 1495.33 1264.46C1491.3 1262.64 1487.84 1259.86 1484.96 1256.11C1482.08 1252.37 1480.64 1247.38 1480.64 1241.14C1480.64 1235.38 1482.08 1230.34 1484.96 1226.02C1487.84 1221.7 1491.87 1218.38 1497.06 1216.08C1502.24 1213.78 1508.24 1212.62 1515.06 1212.62C1524.75 1212.62 1532.67 1215.07 1538.82 1219.97C1545.06 1224.77 1548.51 1231.39 1549.18 1239.84H1531.04C1530.75 1236.19 1529.02 1233.07 1525.86 1230.48C1522.69 1227.89 1518.51 1226.59 1513.33 1226.59C1508.62 1226.59 1504.78 1227.79 1501.81 1230.19C1498.83 1232.59 1497.34 1236.05 1497.34 1240.56C1497.34 1243.63 1498.26 1246.18 1500.08 1248.19C1502 1250.11 1504.4 1251.65 1507.28 1252.8C1510.16 1253.95 1514.1 1255.2 1519.09 1256.54C1525.71 1258.37 1531.09 1260.19 1535.22 1262.02C1539.44 1263.84 1542.99 1266.67 1545.87 1270.51C1548.85 1274.26 1550.34 1279.3 1550.34 1285.63C1550.34 1290.72 1548.94 1295.52 1546.16 1300.03C1543.47 1304.54 1539.49 1308.19 1534.21 1310.98C1529.02 1313.66 1522.88 1315.01 1515.78 1315.01ZM1675.11 1213.92V1314H1658.7V1245.46L1628.17 1314H1616.79L1586.12 1245.46V1314H1569.71V1213.92H1587.42L1622.55 1292.4L1657.55 1213.92H1675.11ZM1757.03 1293.55H1715.12L1707.92 1314H1690.79L1726.64 1213.78H1745.65L1781.51 1314H1764.23L1757.03 1293.55ZM1752.42 1280.16L1736.15 1233.65L1719.73 1280.16H1752.42ZM1849.08 1314L1826.04 1273.97H1813.51V1314H1797.1V1213.92H1831.66C1839.34 1213.92 1845.82 1215.26 1851.1 1217.95C1856.47 1220.64 1860.46 1224.24 1863.05 1228.75C1865.74 1233.26 1867.08 1238.3 1867.08 1243.87C1867.08 1250.4 1865.16 1256.35 1861.32 1261.73C1857.58 1267.01 1851.77 1270.61 1843.9 1272.53L1868.66 1314H1849.08ZM1813.51 1260.86H1831.66C1837.8 1260.86 1842.41 1259.33 1845.48 1256.26C1848.65 1253.18 1850.23 1249.06 1850.23 1243.87C1850.23 1238.69 1848.7 1234.66 1845.62 1231.78C1842.55 1228.8 1837.9 1227.31 1831.66 1227.31H1813.51V1260.86ZM1952.74 1213.92V1227.31H1926.1V1314H1909.68V1227.31H1882.9V1213.92H1952.74ZM2039.74 1315.01C2033.02 1315.01 2026.98 1313.86 2021.6 1311.55C2016.22 1309.15 2012 1305.79 2008.93 1301.47C2005.86 1297.15 2004.32 1292.11 2004.32 1286.35H2021.89C2022.27 1290.67 2023.95 1294.22 2026.93 1297.01C2030 1299.79 2034.27 1301.18 2039.74 1301.18C2045.41 1301.18 2049.82 1299.84 2052.99 1297.15C2056.16 1294.37 2057.74 1290.82 2057.74 1286.5C2057.74 1283.14 2056.74 1280.4 2054.72 1278.29C2052.8 1276.18 2050.35 1274.54 2047.38 1273.39C2044.5 1272.24 2040.46 1270.99 2035.28 1269.65C2028.75 1267.92 2023.42 1266.19 2019.3 1264.46C2015.26 1262.64 2011.81 1259.86 2008.93 1256.11C2006.05 1252.37 2004.61 1247.38 2004.61 1241.14C2004.61 1235.38 2006.05 1230.34 2008.93 1226.02C2011.81 1221.7 2015.84 1218.38 2021.02 1216.08C2026.21 1213.78 2032.21 1212.62 2039.02 1212.62C2048.72 1212.62 2056.64 1215.07 2062.78 1219.97C2069.02 1224.77 2072.48 1231.39 2073.15 1239.84H2055.01C2054.72 1236.19 2052.99 1233.07 2049.82 1230.48C2046.66 1227.89 2042.48 1226.59 2037.3 1226.59C2032.59 1226.59 2028.75 1227.79 2025.78 1230.19C2022.8 1232.59 2021.31 1236.05 2021.31 1240.56C2021.31 1243.63 2022.22 1246.18 2024.05 1248.19C2025.97 1250.11 2028.37 1251.65 2031.25 1252.8C2034.13 1253.95 2038.06 1255.2 2043.06 1256.54C2049.68 1258.37 2055.06 1260.19 2059.18 1262.02C2063.41 1263.84 2066.96 1266.67 2069.84 1270.51C2072.82 1274.26 2074.3 1279.3 2074.3 1285.63C2074.3 1290.72 2072.91 1295.52 2070.13 1300.03C2067.44 1304.54 2063.46 1308.19 2058.18 1310.98C2052.99 1313.66 2046.85 1315.01 2039.74 1315.01ZM2158.33 1213.92V1227.31H2131.69V1314H2115.28V1227.31H2088.49V1213.92H2158.33ZM2191.23 1213.92V1277.71C2191.23 1285.3 2193.2 1291.01 2197.13 1294.85C2201.16 1298.69 2206.73 1300.61 2213.84 1300.61C2221.04 1300.61 2226.6 1298.69 2230.54 1294.85C2234.57 1291.01 2236.59 1285.3 2236.59 1277.71V1213.92H2253V1277.42C2253 1285.58 2251.23 1292.5 2247.68 1298.16C2244.12 1303.82 2239.37 1308.05 2233.42 1310.83C2227.47 1313.62 2220.89 1315.01 2213.69 1315.01C2206.49 1315.01 2199.92 1313.62 2193.96 1310.83C2188.11 1308.05 2183.45 1303.82 2180 1298.16C2176.54 1292.5 2174.81 1285.58 2174.81 1277.42V1213.92H2191.23ZM2307.07 1213.92C2317.72 1213.92 2327.03 1215.98 2335 1220.11C2343.07 1224.14 2349.26 1230 2353.58 1237.68C2357.99 1245.26 2360.2 1254.14 2360.2 1264.32C2360.2 1274.5 2357.99 1283.33 2353.58 1290.82C2349.26 1298.3 2343.07 1304.06 2335 1308.1C2327.03 1312.03 2317.72 1314 2307.07 1314H2274.38V1213.92H2307.07ZM2307.07 1300.61C2318.78 1300.61 2327.75 1297.44 2333.99 1291.1C2340.23 1284.77 2343.35 1275.84 2343.35 1264.32C2343.35 1252.7 2340.23 1243.63 2333.99 1237.1C2327.75 1230.58 2318.78 1227.31 2307.07 1227.31H2290.79V1300.61H2307.07ZM2392.89 1227.17V1256.54H2427.45V1269.94H2392.89V1300.61H2431.77V1314H2376.47V1213.78H2431.77V1227.17H2392.89ZM2534.21 1314H2517.8L2468.4 1239.26V1314H2451.99V1213.78H2468.4L2517.8 1288.37V1213.78H2534.21V1314ZM2620.42 1213.92V1227.31H2593.78V1314H2577.37V1227.31H2550.58V1213.92H2620.42ZM2668.98 1263.74C2668.98 1253.95 2671.24 1245.17 2675.75 1237.39C2680.36 1229.62 2686.55 1223.57 2694.33 1219.25C2702.2 1214.83 2710.79 1212.62 2720.1 1212.62C2730.76 1212.62 2740.22 1215.26 2748.47 1220.54C2756.82 1225.73 2762.87 1233.12 2766.62 1242.72H2746.89C2744.3 1237.44 2740.7 1233.5 2736.09 1230.91C2731.48 1228.32 2726.15 1227.02 2720.1 1227.02C2713.48 1227.02 2707.58 1228.51 2702.39 1231.49C2697.21 1234.46 2693.13 1238.74 2690.15 1244.3C2687.27 1249.87 2685.83 1256.35 2685.83 1263.74C2685.83 1271.14 2687.27 1277.62 2690.15 1283.18C2693.13 1288.75 2697.21 1293.07 2702.39 1296.14C2707.58 1299.12 2713.48 1300.61 2720.1 1300.61C2726.15 1300.61 2731.48 1299.31 2736.09 1296.72C2740.7 1294.13 2744.3 1290.19 2746.89 1284.91H2766.62C2762.87 1294.51 2756.82 1301.9 2748.47 1307.09C2740.22 1312.27 2730.76 1314.86 2720.1 1314.86C2710.7 1314.86 2702.1 1312.7 2694.33 1308.38C2686.55 1303.97 2680.36 1297.87 2675.75 1290.1C2671.24 1282.32 2668.98 1273.54 2668.98 1263.74ZM2846.17 1293.55H2804.26L2797.06 1314H2779.93L2815.78 1213.78H2834.79L2870.65 1314H2853.37L2846.17 1293.55ZM2841.56 1280.16L2825.29 1233.65L2808.87 1280.16H2841.56ZM2938.22 1314L2915.18 1273.97H2902.65V1314H2886.24V1213.92H2920.8C2928.48 1213.92 2934.96 1215.26 2940.24 1217.95C2945.61 1220.64 2949.6 1224.24 2952.19 1228.75C2954.88 1233.26 2956.22 1238.3 2956.22 1243.87C2956.22 1250.4 2954.3 1256.35 2950.46 1261.73C2946.72 1267.01 2940.91 1270.61 2933.04 1272.53L2957.81 1314H2938.22ZM2902.65 1260.86H2920.8C2926.94 1260.86 2931.55 1259.33 2934.62 1256.26C2937.79 1253.18 2939.37 1249.06 2939.37 1243.87C2939.37 1238.69 2937.84 1234.66 2934.77 1231.78C2931.69 1228.8 2927.04 1227.31 2920.8 1227.31H2902.65V1260.86ZM3009.91 1213.92C3020.57 1213.92 3029.88 1215.98 3037.85 1220.11C3045.91 1224.14 3052.1 1230 3056.42 1237.68C3060.84 1245.26 3063.05 1254.14 3063.05 1264.32C3063.05 1274.5 3060.84 1283.33 3056.42 1290.82C3052.1 1298.3 3045.91 1304.06 3037.85 1308.1C3029.88 1312.03 3020.57 1314 3009.91 1314H2977.22V1213.92H3009.91ZM3009.91 1300.61C3021.62 1300.61 3030.6 1297.44 3036.84 1291.1C3043.08 1284.77 3046.2 1275.84 3046.2 1264.32C3046.2 1252.7 3043.08 1243.63 3036.84 1237.1C3030.6 1230.58 3021.62 1227.31 3009.91 1227.31H2993.64V1300.61H3009.91Z" fill="#2A2743"/>
</g>
</svg>
