<?xml version="1.0" encoding="UTF-8"?>
<svg id="Layer_2_copy_3" xmlns="http://www.w3.org/2000/svg" width="848.525" height="371.521" version="1.1" viewBox="0 0 848.525 371.521">
  <!-- Generator: Adobe Illustrator 29.1.0, SVG Export Plug-In . SVG Version: 2.1.0 Build 142)  -->
  <polygon points="12.1 13.372 217.405 279.676 292.634 279.676 86.113 13.372 12.1 13.372" fill="#fff"/>
  <path d="M805.956,235.476l-17.42-22.462c-21.368,25.566-54.836,42.414-92.71,43.578v.07h-31.244v-58.497h40.208v-.033c20.606,1.48,38.671-14.274,45.253-34.755l-52.893-68.205h-32.567v-41.995l-8.712-11.234v214.719h-72.409V37.292h68.803l-18.547-23.916H158.506l207.61,266.3h341.3s57.59,0,57.59,0h0s75.23,0,75.23,0l-34.28-44.2ZM458.885,30.544c40.464,2.414,75.713,22.923,96.766,53.039l-48.598,35.575c-9.675-16.065-27.453-27.311-48.168-28.908V30.544ZM222.497,85.546l37.103-48.638h76.117l-74.921,98.1-38.299-49.462ZM449.217,90.214c-31.578,2.187-56.475,26.772-56.475,56.799s24.897,54.612,56.475,56.799v63.065c-67.604-1.812-121.818-54.065-121.818-118.265s54.214-116.452,121.818-118.265v59.866ZM458.885,266.682v-62.906c20.844-1.607,38.71-12.985,48.343-29.209l52.474,32.88c-20.387,33.478-57.635,56.659-100.818,59.235Z" fill="#fff"/>
  <polygon points="335.717 36.908 259.6 36.908 222.497 85.546 260.796 135.008 335.717 36.908" fill="none" stroke="#fff" stroke-miterlimit="10" stroke-width="10"/>
  <polygon points="91.965 256.662 167.887 256.662 217.405 191.824 178.933 142.655 91.965 256.662" fill="none" stroke="#fff" stroke-miterlimit="10" stroke-width="10"/>
  <g>
    <path d="M392.742,147.013c0-30.028,24.897-54.612,56.475-56.799V30.348c-67.604,1.812-121.818,54.065-121.818,118.265s54.214,116.452,121.818,118.265v-63.065c-31.578-2.187-56.475-26.772-56.475-56.799Z" fill="none" stroke="#fff" stroke-miterlimit="10" stroke-width="10"/>
    <path d="M458.885,203.776v62.906c43.183-2.576,80.43-25.758,100.818-59.235l-52.474-32.88c-9.634,16.225-27.499,27.602-48.343,29.209Z" fill="none" stroke="#fff" stroke-miterlimit="10" stroke-width="10"/>
    <path d="M458.885,30.544v59.706c20.716,1.597,38.493,12.843,48.168,28.908l48.598-35.575c-21.053-30.116-56.302-50.625-96.766-53.039Z" fill="none" stroke="#fff" stroke-miterlimit="10" stroke-width="10"/>
  </g>
  <g>
    <polygon points="583.46 37.292 583.46 102.742 583.46 191.222 583.46 256.662 655.869 256.662 655.869 37.292 583.46 37.292" fill="none" stroke="#fff" stroke-miterlimit="10" stroke-width="10"/>
    <path d="M697.458,37.292h-32.877v57.88h40.208v.033c26.585-1.857,47.911,23.62,47.911,51.466s-21.948,53.326-47.911,51.461v.033h-40.208v58.497h31.244v-.07c65.089-2,117.174-50.31,117.174-109.61s-50.453-107.69-115.542-109.69Z" fill="none" stroke="#fff" stroke-miterlimit="10" stroke-width="10"/>
  </g>
  <g>
    <path d="M54.126,353.524l4.9-24.5h3.5l-4.9,24.5h-3.5Z" fill="#fff"/>
    <path d="M70.226,353.524l4.9-24.5h2.87l11.76,20.23-1.05-.14,3.99-20.09h3.5l-4.9,24.5h-2.87l-11.76-20.23,1.05.14-3.99,20.09h-3.5Z" fill="#fff"/>
    <path d="M103.896,353.524l4.9-24.5h2.87l11.76,20.23-1.05-.14,3.99-20.09h3.5l-4.9,24.5h-2.87l-11.76-20.23,1.05.14-3.99,20.09h-3.5Z" fill="#fff"/>
    <path d="M149.361,353.804c-2.427,0-4.504-.431-6.23-1.295-1.727-.863-3.039-2.07-3.938-3.623-.898-1.551-1.347-3.354-1.347-5.407,0-2.03.35-3.938,1.05-5.723.7-1.785,1.703-3.354,3.01-4.708,1.306-1.353,2.87-2.409,4.69-3.167,1.82-.758,3.861-1.137,6.125-1.137,2.45,0,4.538.432,6.265,1.295,1.726.863,3.039,2.071,3.938,3.623.898,1.552,1.347,3.354,1.347,5.407,0,2.03-.35,3.938-1.05,5.723-.7,1.785-1.704,3.354-3.01,4.708-1.307,1.354-2.876,2.41-4.708,3.167-1.832.758-3.879,1.137-6.142,1.137ZM149.676,350.689c1.68,0,3.208-.297,4.585-.893,1.376-.595,2.543-1.423,3.5-2.485.957-1.062,1.691-2.281,2.205-3.658.513-1.376.77-2.835.77-4.375,0-1.47-.315-2.759-.945-3.867s-1.563-1.978-2.8-2.608c-1.237-.63-2.753-.945-4.55-.945-1.703,0-3.237.297-4.603.893-1.365.595-2.532,1.423-3.5,2.485-.968,1.062-1.709,2.281-2.222,3.658-.514,1.377-.77,2.835-.77,4.375,0,1.47.32,2.759.962,3.867.642,1.109,1.575,1.978,2.8,2.608,1.225.63,2.748.945,4.568.945Z" fill="#fff"/>
    <path d="M178.516,353.524l-5.88-24.5h3.605l5.355,22.61h-2.17l14.56-22.61h3.64l-15.68,24.5h-3.43Z" fill="#fff"/>
    <path d="M196.611,353.524l16.03-24.5h3.465l6.195,24.5h-3.465l-5.46-22.61h1.4l-14.385,22.61h-3.78ZM202.561,347.399l1.54-2.8h13.755l.49,2.8h-15.785Z" fill="#fff"/>
    <path d="M234.832,353.524l4.27-21.455h-8.365l.595-3.045h20.265l-.63,3.045h-8.365l-4.305,21.455h-3.465Z" fill="#fff"/>
    <path d="M255.761,353.524l4.9-24.5h3.5l-4.9,24.5h-3.5Z" fill="#fff"/>
    <path d="M283.656,353.804c-2.427,0-4.504-.431-6.23-1.295-1.727-.863-3.039-2.07-3.938-3.623-.898-1.551-1.347-3.354-1.347-5.407,0-2.03.35-3.938,1.05-5.723.7-1.785,1.703-3.354,3.01-4.708,1.306-1.353,2.87-2.409,4.69-3.167,1.82-.758,3.861-1.137,6.125-1.137,2.45,0,4.538.432,6.265,1.295,1.726.863,3.039,2.071,3.938,3.623.898,1.552,1.347,3.354,1.347,5.407,0,2.03-.35,3.938-1.05,5.723-.7,1.785-1.704,3.354-3.01,4.708-1.307,1.354-2.876,2.41-4.708,3.167-1.832.758-3.879,1.137-6.142,1.137ZM283.971,350.689c1.68,0,3.208-.297,4.585-.893,1.376-.595,2.543-1.423,3.5-2.485.957-1.062,1.691-2.281,2.205-3.658.513-1.376.77-2.835.77-4.375,0-1.47-.315-2.759-.945-3.867s-1.563-1.978-2.8-2.608c-1.237-.63-2.753-.945-4.55-.945-1.703,0-3.237.297-4.603.893-1.365.595-2.532,1.423-3.5,2.485-.968,1.062-1.709,2.281-2.222,3.658-.514,1.377-.77,2.835-.77,4.375,0,1.47.32,2.759.962,3.867.642,1.109,1.575,1.978,2.8,2.608,1.225.63,2.748.945,4.568.945Z" fill="#fff"/>
    <path d="M306.511,353.524l4.9-24.5h2.87l11.76,20.23-1.05-.14,3.99-20.09h3.5l-4.9,24.5h-2.87l-11.76-20.23,1.05.14-3.99,20.09h-3.5Z" fill="#fff"/>
    <path d="M354.846,353.524l4.9-24.5h3.5l-4.9,24.5h-3.5Z" fill="#fff"/>
    <path d="M370.946,353.524l4.899-24.5h2.87l11.76,20.23-1.05-.14,3.99-20.09h3.5l-4.9,24.5h-2.87l-11.76-20.23,1.05.14-3.989,20.09h-3.5Z" fill="#fff"/>
    <path d="M422.78,353.524h-3.5l4.899-24.5h3.5l-4.899,24.5ZM439.37,342.604h-14.7l.595-3.045h14.7l-.595,3.045ZM441.75,329.024h3.5l-4.9,24.5h-3.5l4.9-24.5Z" fill="#fff"/>
    <path d="M452.95,353.524l4.899-24.5h9.59c2.474,0,4.585.415,6.335,1.243s3.086,1.989,4.008,3.482c.922,1.494,1.383,3.267,1.383,5.32,0,2.147-.362,4.113-1.085,5.897-.724,1.785-1.756,3.313-3.098,4.585-1.342,1.272-2.946,2.252-4.812,2.94-1.867.689-3.955,1.033-6.265,1.033h-10.955ZM457.045,350.479h6.965c2.427,0,4.503-.484,6.23-1.453,1.727-.968,3.056-2.298,3.989-3.99s1.4-3.611,1.4-5.758c0-1.47-.315-2.748-.945-3.833s-1.581-1.919-2.853-2.502c-1.271-.583-2.853-.875-4.742-.875h-6.37l-3.675,18.41Z" fill="#fff"/>
    <path d="M487.11,353.524l4.899-24.5h9.59c2.474,0,4.585.415,6.335,1.243s3.086,1.989,4.008,3.482c.922,1.494,1.383,3.267,1.383,5.32,0,2.147-.362,4.113-1.085,5.897-.724,1.785-1.756,3.313-3.098,4.585-1.342,1.272-2.946,2.252-4.812,2.94-1.867.689-3.955,1.033-6.265,1.033h-10.956ZM491.205,350.479h6.965c2.427,0,4.503-.484,6.23-1.453,1.727-.968,3.056-2.298,3.989-3.99s1.4-3.611,1.4-5.758c0-1.47-.315-2.748-.945-3.833s-1.581-1.919-2.853-2.502c-1.271-.583-2.853-.875-4.742-.875h-6.371l-3.675,18.41Z" fill="#fff"/>
    <path d="M540.799,353.524l4.271-21.455h-8.365l.595-3.045h20.266l-.63,3.045h-8.365l-4.305,21.455h-3.466Z" fill="#fff"/>
    <path d="M565.825,350.479h14.315l-.596,3.045h-17.814l4.899-24.5h17.29l-.595,3.045h-13.825l-3.675,18.41ZM567.714,339.594h12.601l-.596,2.975h-12.6l.595-2.975Z" fill="#fff"/>
    <path d="M602.365,353.804c-2.474,0-4.579-.431-6.317-1.295-1.738-.863-3.068-2.07-3.99-3.623-.922-1.551-1.383-3.354-1.383-5.407,0-2.03.351-3.938,1.051-5.723.699-1.785,1.709-3.354,3.027-4.708,1.317-1.353,2.893-2.409,4.725-3.167,1.832-.758,3.902-1.137,6.213-1.137,2.029,0,3.826.327,5.39.98s2.765,1.598,3.605,2.835l-2.521,2.17c-.724-.933-1.645-1.645-2.765-2.135-1.12-.49-2.438-.735-3.955-.735-1.75,0-3.319.297-4.708.893-1.388.595-2.572,1.423-3.552,2.485-.98,1.062-1.728,2.281-2.24,3.658-.514,1.377-.771,2.835-.771,4.375,0,1.47.321,2.759.963,3.867.642,1.109,1.587,1.978,2.835,2.608,1.248.63,2.794.945,4.638.945,1.493,0,2.864-.245,4.112-.735,1.248-.49,2.351-1.213,3.308-2.17l2.03,2.31c-1.12,1.237-2.521,2.165-4.2,2.783-1.68.619-3.512.927-5.495.927Z" fill="#fff"/>
    <path d="M624.45,353.524h-3.5l4.899-24.5h3.5l-4.899,24.5ZM641.04,342.604h-14.7l.595-3.045h14.7l-.595,3.045ZM643.42,329.024h3.5l-4.9,24.5h-3.5l4.9-24.5Z" fill="#fff"/>
    <path d="M654.62,353.524l4.899-24.5h2.87l11.76,20.23-1.05-.14,3.99-20.09h3.5l-4.9,24.5h-2.87l-11.76-20.23,1.05.14-3.989,20.09h-3.5Z" fill="#fff"/>
    <path d="M700.085,353.804c-2.428,0-4.504-.431-6.23-1.295-1.727-.863-3.039-2.07-3.938-3.623-.898-1.551-1.348-3.354-1.348-5.407,0-2.03.351-3.938,1.051-5.723.699-1.785,1.702-3.354,3.01-4.708,1.307-1.353,2.87-2.409,4.689-3.167,1.82-.758,3.862-1.137,6.125-1.137,2.45,0,4.538.432,6.266,1.295,1.727.863,3.039,2.071,3.938,3.623.897,1.552,1.348,3.354,1.348,5.407,0,2.03-.351,3.938-1.051,5.723-.699,1.785-1.703,3.354-3.01,4.708-1.307,1.354-2.876,2.41-4.707,3.167-1.832.758-3.88,1.137-6.143,1.137ZM700.399,350.689c1.681,0,3.208-.297,4.585-.893,1.377-.595,2.543-1.423,3.5-2.485.957-1.062,1.691-2.281,2.205-3.658.514-1.376.771-2.835.771-4.375,0-1.47-.315-2.759-.945-3.867s-1.563-1.978-2.8-2.608c-1.237-.63-2.754-.945-4.55-.945-1.704,0-3.238.297-4.603.893-1.365.595-2.532,1.423-3.5,2.485-.969,1.062-1.71,2.281-2.223,3.658-.514,1.377-.771,2.835-.771,4.375,0,1.47.321,2.759.963,3.867.642,1.109,1.575,1.978,2.8,2.608,1.226.63,2.748.945,4.567.945Z" fill="#fff"/>
    <path d="M722.939,353.524l4.899-24.5h3.5l-4.305,21.455h13.3l-.595,3.045h-16.8Z" fill="#fff"/>
    <path d="M760.32,353.804c-2.428,0-4.504-.431-6.23-1.295-1.727-.863-3.039-2.07-3.938-3.623-.898-1.551-1.348-3.354-1.348-5.407,0-2.03.351-3.938,1.051-5.723.699-1.785,1.702-3.354,3.01-4.708,1.307-1.353,2.87-2.409,4.689-3.167,1.82-.758,3.862-1.137,6.125-1.137,2.45,0,4.538.432,6.266,1.295,1.727.863,3.039,2.071,3.938,3.623.897,1.552,1.348,3.354,1.348,5.407,0,2.03-.351,3.938-1.051,5.723-.699,1.785-1.703,3.354-3.01,4.708-1.307,1.354-2.876,2.41-4.707,3.167-1.832.758-3.88,1.137-6.143,1.137ZM760.634,350.689c1.681,0,3.208-.297,4.585-.893,1.377-.595,2.543-1.423,3.5-2.485.957-1.062,1.691-2.281,2.205-3.658.514-1.376.771-2.835.771-4.375,0-1.47-.315-2.759-.945-3.867s-1.563-1.978-2.8-2.608c-1.237-.63-2.754-.945-4.55-.945-1.704,0-3.238.297-4.603.893-1.365.595-2.532,1.423-3.5,2.485-.969,1.062-1.71,2.281-2.223,3.658-.514,1.377-.771,2.835-.771,4.375,0,1.47.321,2.759.963,3.867.642,1.109,1.575,1.978,2.8,2.608,1.226.63,2.748.945,4.567.945Z" fill="#fff"/>
    <path d="M795.144,353.804c-2.427,0-4.51-.431-6.247-1.295-1.739-.863-3.08-2.07-4.025-3.623-.945-1.551-1.418-3.354-1.418-5.407,0-2.03.351-3.938,1.051-5.723.699-1.785,1.709-3.354,3.027-4.708,1.317-1.353,2.904-2.409,4.76-3.167,1.855-.758,3.938-1.137,6.247-1.137,2.146,0,4.02.327,5.618.98,1.598.653,2.875,1.587,3.832,2.8l-2.52,2.135c-.817-.956-1.814-1.662-2.993-2.117-1.178-.455-2.537-.683-4.077-.683-1.75,0-3.325.297-4.725.893-1.4.595-2.603,1.412-3.605,2.45s-1.773,2.252-2.31,3.64c-.537,1.389-.806,2.865-.806,4.428,0,1.47.321,2.759.963,3.867.642,1.109,1.598,1.978,2.87,2.608,1.271.63,2.853.945,4.742.945,1.377,0,2.654-.233,3.833-.7,1.178-.466,2.292-1.143,3.342-2.03l1.365,2.8c-1.189.957-2.561,1.704-4.112,2.24s-3.156.805-4.812.805ZM800.849,350.234l1.785-9.1h3.359l-1.925,9.625-3.22-.525Z" fill="#fff"/>
    <path d="M821.709,353.524l1.89-9.45.42,2.31-7.069-17.36h3.465l5.915,14.56-1.96.035,11.76-14.595h3.71l-13.93,17.395,1.189-2.345-1.89,9.45h-3.5Z" fill="#fff"/>
  </g>
</svg>