<?xml version="1.0" encoding="UTF-8"?><svg id="full-body" xmlns="http://www.w3.org/2000/svg" viewBox="0 0 2000 2000"><rect id="r-upperarm" x="776.78" y="591.64" width="200.91" height="703.63" rx="92.12" ry="92.12" transform="translate(1105.3 -324.47) rotate(53.11)" fill="#f45b69"/><path id="r-forearm" d="M728.46,1149.41c0,54.72-135.61,130.48-181.44,45.95-45.82-84.54-74.85-420.56-88.18-478.8-10.32-58.24,101.05-156.57,156.52-35.67-26.87,175.58,117,371.09,113.1,468.52Z" fill="#efb6b6"/><g id="r-hand"><path d="M351.45,550.96c45.07,0,138.57-2.68,176.24-1.34,37.67,1.34,67.95,32.44,85.43,87.29.88,11.52,18.5,161.37-61.72,168.9-80.22,7.53-214.42,3.68-252.42.84-38.01-2.84-34.31-43.98-34.31-43.98,0,0-49.33,11.17-50.9-40.9-46.64-18.63-22.66-67.83,6.05-67.64,0,0-5.94-6.17-9.97-17.69-7.74-13.04,5.01-35.07,25.54-35.4,20.53-.33,116.06-1.58,116.06-1.58,0,0-56.51-45.82,0-48.49Z" fill="#efb6b6"/><g id="Layer_6"><path d="M356.92,640.16c7.99,28.91,24.7,54.87,47.79,74.01,2.95,2.45,7.22-1.78,4.24-4.24-22.35-18.53-38.51-43.37-46.25-71.36-1.03-3.72-6.82-2.14-5.79,1.6h0Z" fill="#cc9696"/><path d="M218.59,727.36c1-14.6,15.53-22.01,28.28-24.44,14.87-2.83,30.63-2.83,45.72-3.5,31.28-1.39,62.62-1.39,93.9-.1,3.86.16,3.85-5.84,0-6-35.24-1.46-70.54-1.26-105.76.69-23.56,1.3-65.9.82-68.14,33.35-.27,3.85,5.74,3.84,6,0h0Z" fill="#cc9696"/><path d="M218.25,657.44c47.65,1.53,95.34,1.63,142.99.3,3.85-.11,3.87-6.11,0-6-47.66,1.33-95.34,1.23-142.99-.3-3.86-.12-3.86,5.88,0,6h0Z" fill="#cc9696"/><path d="M266.85,768.11c5.18-8.72,15.03-12.42,24.36-14.99,11.36-3.13,23.09-4.51,34.85-4.94,22.54-.82,44.98,1.84,67.5,2.12,11.01.14,20.71-2.07,30.25-7.64s18.68-12.49,27.88-18.83c18.34-12.63,36.71-27.87,57.7-35.86,23.53-8.95,49.3-7.7,73.99-6.51,3.86.19,3.85-5.82,0-6-22.34-1.07-45.29-2.09-67.08,3.95-22.31,6.18-40.88,20.81-59.65,33.74-9.72,6.7-19.39,13.49-29.19,20.08-10.74,7.22-20.8,11.23-33.9,11.07-23.44-.29-46.81-3.16-70.28-2.01-12.56.62-25.21,2.32-37.23,6.08-9.68,3.03-19.04,7.71-24.37,16.71-1.97,3.33,3.21,6.35,5.18,3.03h0Z" fill="#cc9696"/><path d="M348.71,604.07c42.72-1.64,85.51,1.05,127.67,8.14,3.78.64,5.4-5.15,1.6-5.79-42.7-7.19-86-10.02-129.26-8.36-3.85.15-3.87,6.15,0,6h0Z" fill="#cc9696"/><path d="M448.33,607.04c10.7-4.33,21.22-9.08,31.53-14.27,3.45-1.74.41-6.92-3.03-5.18-9.85,4.96-19.87,9.53-30.09,13.67-3.53,1.43-1.99,7.24,1.6,5.79h0Z" fill="#cc9696"/></g></g><path id="torso" d="M1724.77,1505.13h-506.69s-194.65-682.27-194.65-701.34c0-165.55,136.45-127.42,294.98-145.48,168.37,4.35,373.25,0,406.36,145.48v701.34Z" fill="#562228"/><path id="hips" d="M1724.77,1487.07h-617.05l18.56,393.81s531.77-3.45,548.82-14.49c76.02-26.14,49.67-379.32,49.67-379.32Z" fill="#0b1c28"/><path id="r-upper-leg" d="M1365.97,1896.42h0c-79.32,34.13-283.05,30.11-292.36-64.42l-264.46-658.61c-39.87-75.44-11.03-168.92,64.42-208.79h0c75.44-39.87,168.92-11.03,208.79,64.42l348.04,658.61c39.87,75.44,11.03,168.92-64.42,208.79Z" fill="#0b1c28"/><rect id="r-ankle" x="830.8" y="1681.72" width="156.52" height="120.4" fill="#cc9696"/><path id="r-shoe" d="M812.74,1762.49h189.62l21.08,218.23h-413.88s7.77-117.39,36.62-117.39c217.48-19.57,166.56-100.84,166.56-100.84Z"/><path id="r-lower-leg" d="M1042.14,1729.88h-250.93v-654.18c0-11.54,16.53-110.68,124.89-110.68s126.04,98.14,126.04,110.68v654.18Z" fill="#112d44"/><path id="l-upper-leg" d="M1657.68,1893.2h0c-104.48,49.39-293.54,30.05-283.57-36.97l-273.25-686.06c-39.87-75.44-11.03-168.92,64.42-208.79h0c75.44-39.87,168.92-11.03,208.79,64.42l321.62,658.61c39.87,75.44,25.59,177.91-38,208.79Z" fill="#112d44"/><rect id="l-ankle" x="1130.12" y="1681.72" width="156.52" height="120.4" fill="#cc9696"/><path id="l-shoe" d="M1112.78,1762.49h189.62l21.08,218.23h-413.88s7.77-117.39,36.62-117.39c217.48-19.57,166.56-100.84,166.56-100.84Z"/><g id="show-shine"><path d="M913.82,1958.57c2.2-17.67,4.72-35.19,9.23-52.44,1.18-4.53,2.44-9.03,3.71-13.54,1.17-4.15,2.24-8.36,3.59-12.46.65-1.97,1.19-3.37,2.12-5.14.4-.76.83-1.5,1.31-2.22.21-.32.44-.64.67-.95.25-.34-.06.06.2-.26.12-.15.25-.3.38-.45.5-.58,1.03-1.13,1.6-1.65.28-.25.57-.5.86-.73.15-.12-.14.1.19-.14.17-.12.34-.24.51-.36.63-.43,1.28-.82,1.96-1.18.33-.17.66-.34,1-.49.62-.29.37-.18.91-.39,3.42-1.33,7.05-2.02,10.67-2.55,11.16-1.62,23.09-2.35,34.49-4.02,19.53-2.86,38.75-7.54,57.55-13.53,2.99-.95,5.97-1.94,8.93-2.95,1.82-.62,1.04-3.52-.8-2.89-19.98,6.81-40.42,12.29-61.27,15.68-12.24,1.99-24.57,2.89-36.86,4.44-7.13.9-14.94,2.07-20.43,7.15-2.65,2.46-4.46,5.63-5.82,8.94-.97,2.35-1.65,4.8-2.34,7.24-1.45,5.08-2.9,10.16-4.3,15.26-2.16,7.87-4.17,15.77-5.74,23.78-1.74,8.9-3,17.89-4.17,26.88-.39,2.99-.77,5.98-1.14,8.98-.24,1.91,2.76,1.89,3,0h0Z" fill="#fff"/></g><path id="l-lower-leg" d="M1337.07,1729.88h-250.93s-1-633.4,0-649.33c1-15.93,16.53-109.86,124.89-109.86s122.62,90.44,126.04,109.86c3.42,19.42,0,649.33,0,649.33Z" fill="#112d44"/><rect id="l-upperarm" x="1427.79" y="700.17" width="200.91" height="703.63" rx="92.12" ry="92.12" transform="translate(418.78 -435.06) rotate(18.73)" fill="#f45b69"/><path id="l-forearm" d="M1476.15,1195.85c54.74,13.88,96.38,171.58.27,196.93-96.11,25.35-439.58-30.23-501.21-31.39-60.86-4.24-112.32-139.19,3.74-168.88,168.89,71.97,400.71-25.35,497.2,3.34Z" fill="#efb6b6"/><g id="l-hand"><path d="M1056.96,1361.39s-101.67,70.78-280.41,46.42c-15.24,0-15.24-19.06-15.24-32.44s11.95-11.75,11.32-17.39-25.69,3.22-31.88-32.17c-6.2-35.39,22.82-30.92,22.82-30.92,0,0-35.03,1.23-35.03-36.4s24.75-32.95,24.75-32.95c0,0-18.06-6.85-17.39-30.18.67-23.33,11.42-26.73,23.77-32.72,12.35-5.99,71.77,3.68,71.77,3.68,0,0-30.82-13.36-18.62-39.11,14.88-26.42,97.66-18.06,131.77-9.36s112.37,96.99,112.37,96.99v146.55Z" fill="#efb6b6"/><path d="M753.75,1227.67c16.99,5.37,34.77,8.26,52.59,8.55,5.03.08,10.06-.05,15.07-.39,1.35-.09,2.5-1.08,2.5-2.5,0-1.28-1.15-2.59-2.5-2.5-17.43,1.16-34.98-.18-52.01-4.08-4.83-1.1-9.6-2.41-14.32-3.9-3.08-.97-4.39,3.85-1.33,4.82h0Z" fill="#cc9696"/><path d="M759.96,1297.21c16.87,3.71,34.3,4.59,51.44,2.47,1.34-.17,2.5-1.03,2.5-2.5,0-1.22-1.15-2.67-2.5-2.5-16.7,2.07-33.68,1.33-50.11-2.29-3.14-.69-4.48,4.13-1.33,4.82h0Z" fill="#cc9696"/><path d="M771.29,1360.22c12.65,1.76,25.43,2,38.13.55,1.34-.15,2.5-1.04,2.5-2.5,0-1.23-1.15-2.65-2.5-2.5-12.21,1.39-24.62,1.32-36.8-.37-1.34-.19-2.68.32-3.08,1.75-.32,1.17.4,2.89,1.75,3.08h0Z" fill="#cc9696"/><path d="M830.82,1167.6c28.11,2.73,56.32,4.33,84.56,4.78,7.93.13,15.85.16,23.78.11,3.22-.02,3.22-5.02,0-5-28.24.18-56.48-.76-84.64-2.86-7.9-.59-15.8-1.27-23.69-2.03-1.35-.13-2.5,1.24-2.5,2.5,0,1.46,1.15,2.37,2.5,2.5h0Z" fill="#cc9696"/></g><g id="head"><path d="M1448.32,683.4c-29.77,62.21-217.26,41.1-187.34-7.77,15.02-23.1,56.26-190.88,56.26-190.88,0,0,122.96-4.85,132.24.8,3.89,1.13-14.54,82.13-1.17,197.85Z" fill="#cc9696"/><path id="base-hair" d="M1176.1,422.77s-23.86-78.9-9.72-132.07c14.15-53.17,90.22-47.37,90.22-47.37l-16.1,142.59-64.4,36.86Z" fill="#3a2a28"/><path id="face" d="M1183.16,284.63l-8.73,82.31-3.34,85.1s.52,4.75-5.81,67.45c-1.53,12.84,26.97,109.76,94.27,123.7,124.45,25.38,187.76-111.86,187.76-111.86l45.09-97.33,23.32-118.84-86.79-200.92-170.79.13-74.99,170.25Z" fill="#efb6b6"/><g id="nose"><path d="M1236.78,350.35c5.8,32.03,1.68,65.95-11.04,95.88-3.13,7.37-6.84,14.5-11.04,21.32s-9.1,13.61-10.38,21.81c-2.12,13.6,6.68,27.4,20.7,28.94,7.03.77,6.97-10.23,0-11-6.04-.67-9.7-7.49-10.06-12.95-.48-7.4,4.65-13.93,8.36-19.86,7.72-12.32,13.8-25.66,18.24-39.49,9.04-28.2,11.09-58.44,5.81-87.57-1.26-6.96-11.86-4.01-10.61,2.92h0Z" fill="#cc9696"/></g><g id="mouth"><path d="M1217.4,551.53c24.42,7.18,50.52,5.37,74.18-3.75,6.54-2.52,3.7-13.16-2.92-10.61-21.95,8.46-45.63,10.42-68.33,3.75-6.81-2-9.71,8.61-2.92,10.61h0Z" fill="#cc9696"/></g><ellipse id="r-eye" cx="1208.25" cy="398.68" rx="13.11" ry="22.83" transform="translate(-4.7 14.54) rotate(-.69)"/><polygon id="r-eyebrow" points="1166.39 348.84 1201.89 352.82 1230.4 338.28 1191.19 325.88 1166.39 348.84" fill="#3a2a28"/><ellipse id="l-eye" cx="1308.52" cy="403.27" rx="16.42" ry="26.07" transform="translate(-4.75 15.75) rotate(-.69)"/><polygon id="l-eyebrow" points="1271.84 336.38 1323.3 313.94 1374.63 350.19 1321.58 347.34 1271.84 336.38" fill="#3a2a28"/><path d="M1492.52,145.54c-35.38-45.31-77.64-73.59-105.78-22.42-20.13-11.95-130.39-97.87-144.47,16.7-18.58-13.88-88.31-15.51-122.31,17.16,18.85-50.39,81.09-85.7,98.22-69.72,18.29-131,133.96-34.6,151.33-22.03,53.11-37.32,97.9,22.52,123.01,80.31Z" fill="#5b3b39"/><path d="M1577.24,308.38c-6.01,18.71-75.3,122.38-75.61,112.64-.1-3.08-2.74-1.91-6.69,1.07-8.54,6.42-23.2,21.25-31.51,19.59s-15.78-58-17.95-102.93c-1.01-21.08-.85-39.63.96-48.86-37.68,36.92-89.87,7.75-100.87-3.03-58.28,44.95-97.23-1.45-97.23-1.45-3.73,18.98-121.15,49.87-112.78-45.73-23.6-28.31-25.07-57.41-15.6-82.71,34-32.68,103.73-31.04,122.31-17.16,14.08-114.57,124.34-28.65,144.47-16.7,28.14-51.17,70.4-22.89,105.78,22.42,14.85,34.19,27.54,52.94,26.25,65.12,55.01-4.9,64.48,79.02,58.48,97.73Z" fill="#3a2a28"/><path id="l-ear" d="M1454.8,421.33s15.68-29.45,53.3-21.92c37.62,7.53,32.08,48.39,23.67,64.78-41.68,64.85-86.22,57.76-90.62,68.55l-12.05-78.8,25.7-32.6Z" fill="#efb6b6"/><path d="M1450.9,494.82c5.66-12.64,12.78-26.02,24.88-33.58,12.84-8.02,26.59-4.25,38.46,3.64,5.91,3.93,11.43-5.59,5.55-9.5-14.11-9.38-31.11-13.38-46.77-5.24s-24.79,23.85-31.63,39.13c-2.87,6.41,6.61,12.01,9.5,5.55h0Z" fill="#cc9696"/><path d="M1487.25,493.18c4.04-14.05,1.19-29.85-9.06-40.56-4.9-5.13-12.67,2.66-7.78,7.78,7.56,7.91,9.17,19.61,6.23,29.86-1.96,6.82,8.65,9.73,10.61,2.92h0Z" fill="#cc9696"/></g></svg>