<?xml version="1.0" encoding="UTF-8"?><svg xmlns="http://www.w3.org/2000/svg" viewBox="0 0 2000 2000"><g id="bg-circle"><circle cx="1011.4" cy="938.59" r="714.1" fill="#1ad8c6"/><rect x="533.23" y="554.94" width="1119.27" height="1119.27" fill="#f45b69"/></g><g id="fullbody-callus"><g id="upperbody_copy"><g id="r-arm_copy"><path d="M770.99,1715.86c6.18,14.34-21.84,133.59-72.48,171.35-56.28,49.58-72.45,30.06-96.95-12.28-24.51-42.34-69.98-118.61,29.93-169.14,99.91-50.53,133.32-4.27,139.51,10.07Z" fill="#efb6b6"/><path id="r-upper-arm" d="M891.34,1249.22s-50.27,45.01-109.57,95.66c-63.02,53.84-136.25,114.07-170.16,133.46-65.83,37.63-140.96,65.82-140.96,65.82,0,0-32.87,16.93-66.87,12.09-16.47-2.33-33.2-9.77-46.61-26.7-41.08-51.89,37.75-115.96,37.75-115.96l142.12-127.38,7.88-7.06c-2.64,2.82,212.08-183.8,212.08-183.8,0,0,30.64-22.36,69.63-27.46,28.02-3.67,60.35,1.56,88.73,30.39,67.89,68.96-24.02,150.95-24.02,150.95Z" fill="#d8a3a3"/><path id="r-sleeve" d="M538.14,1251.12c52.14-32.93,136.04-105.52,183.39-162.64,47.34-57.12,121.76-47.32,121.76-47.32l95.34,277.18-296.4,177.47c-36.35-11.99-131.58-161.35-104.09-244.68Z" fill="#c9b7ad"/><path id="r-forearm" d="M778.33,1791.87s34-20.91-39.25-109.5c-73.24-88.6-194.14-206.44-280.88-258.03-72-24.45-97.01,22.25-103.64,29.05-31.76,43.21,4.13,113.95,46.02,151.55,41.95,36.28,194.99,94.63,266.73,187.12,46.19,58.94,111.02-.19,111.02-.19Z" fill="#efb6b6"/></g><g id="torso_copy"><g id="shirt_copy"><path id="shirt" d="M1410,1301.71l-10.87,94.27-52.61,456.48s-247.37,36.41-405.13,14.94c-157.75-21.47-212.83-18.67-212.83-18.67,4.67-13.07,3.74-119.49,9.34-144.69.34-1.54.64-3.41.89-5.58,3.93-33.39-1.94-136.64-3.69-156.21-1.87-20.83-27.07-378.69-27.07-378.69,0,0-4.41-78.36,41.33-97.96,42.68-25.88,63.22-35.53,126.66-47.22,63.45-11.7,219.4-47.11,341.68-34.05,122.29,13.07,140.02,31.74,140.02,31.74l52.28,285.64Z" fill="#e8d6cb"/><path id="shadow" d="M1410,1301.71l-63.48,550.75s-247.37,36.41-405.13,14.94c-157.75-21.47-212.83-18.67-212.83-18.67,4.67-13.07,3.74-119.49,9.34-144.69.34-1.54.64-3.41.89-5.58,79.2,63.41,236.73,141.42,370.56,55.06-1.86.46-150.9,37.55-259.44-76.55,0,0,299.75,89.89,420.74-217.83,0,0-92.76-78.15-82.82-243.3,0,0,29.87,64.54,59.74,82.21,0,0-42.94-158.16,44.81-259.57l117.62,263.23Z" fill="#c9b7ad"/></g><g id="collar_copy"><path d="M874.81,1021.27c-2.88,61.16,39.47,120.94,99.73,134.94,63.59,14.77,124.09-22.69,163.94-69.49,23.26-27.32,42.08-57.9,60.62-88.51,5.02-8.29,2.1-20.7-6.64-25.31s-19.95-2.21-25.31,6.64c-7.68,12.68-15.37,25.36-23.43,37.81-3.54,5.46-7.14,10.87-10.85,16.22-2.01,2.9-4.06,5.79-6.13,8.64-1.04,1.43-2.08,2.84-3.13,4.26-.37.5-4.53,5.91-2.44,3.24-8.6,10.99-17.83,21.51-27.93,31.15-4.51,4.31-9.21,8.38-14.06,12.29-4.32,3.48,2.89-1.99-1.63,1.23-1.38.98-2.73,2-4.11,2.97-3.22,2.26-6.51,4.41-9.87,6.45-5.72,3.48-11.65,6.45-17.67,9.36-.59.29-3.26,1.43-.13.11-1.51.64-3.05,1.23-4.59,1.81-3.57,1.34-7.19,2.54-10.86,3.57-3.12.88-6.27,1.65-9.45,2.29-1.58.32-3.18.57-4.77.86-5.22.95,3.81-.21-1.47.18-6.47.49-12.84.79-19.32.31-1.62-.12-3.24-.27-4.85-.48,4.19.53-1.42-.31-1.87-.39-3.38-.64-6.73-1.45-10.03-2.42s-6.56-2.13-9.78-3.39c2.91,1.14.17.07-.36-.18-2.09-1.01-4.18-1.99-6.22-3.09-3.08-1.65-6.08-3.45-8.98-5.39-1.31-.88-2.58-1.8-3.87-2.71-4.03-2.83,2.75,2.49-.96-.77-4.54-4-8.93-8.03-12.92-12.6-1-1.15-1.96-2.32-2.93-3.49-1.29-1.63-1.26-1.59.1.13-.61-.82-1.2-1.64-1.79-2.48-2.06-2.93-3.99-5.95-5.78-9.05s-3.46-6.31-4.97-9.58c-.27-.58-2.19-5.34-.6-1.26-.56-1.44-1.13-2.89-1.66-4.34-2.47-6.87-4.12-13.88-5.43-21.05-.93-5.08.23,3.89-.16-1.27-.16-2.08-.37-4.15-.47-6.24-.17-3.66-.14-7.32.04-10.98.46-9.68-8.84-18.93-18.5-18.5-10.41.47-18.01,8.13-18.5,18.5h0Z" fill="#112d44"/></g></g><g id="l-arm_copy"><path id="l-undersleeve" d="M1509.88,1204.63l44.81,212.47s10.58,8.09,122.6-75.92,44.5-159.93,44.5-159.93l-211.9,23.39Z"/><path id="l-upper-arm" d="M1625.72,1164.36c25.53,15.93-254.39-153.02-254.39-153.02,0,0-69.13-28.78-115.56,38.5-19.82,29.5,66.34,117.4,66.34,117.4,0,0,91.29,127.78,166.53,155.21,75.25,27.43,210.09,82.45,210.09,82.45,0,0,92.03,29.29,122.58-32.73,30.55-62.02-69.07-128.84-69.07-128.84,0,0-152.05-94.9-126.52-78.97Z" fill="#d8a3a3"/><path id="l-sleeve" d="M1556.15,1417.31s-90.63-69.3-167.07-119.89c-73.14-60.9-82.15-80.82-121.16-146.7-31.91-57.02-49.65-104.02-11.27-128.47,57.57-32.21,112.49-19.44,155.9,3.34,43.41,22.78,118.51,43.83,206.51,91.25-87.73,90.45-62.92,300.48-62.92,300.48Z" fill="#e8d6cb"/><path id="l-forearm" d="M1479.76,828.27c22.49-12.95,82.71,47.66,140.72,113.95,86.03,114.88,164.63,239.81,205.4,357.99,26.11,86.63-22.46,97.98-60.83,112.25-43.02,8.84-129.14-27.75-161.19-87.74-43.02-94.01-32.07-249.36-155.09-390.96-42.13-53.19,8.49-92.53,30.98-105.48Z" fill="#efb6b6"/><g id="Layer_43"><path d="M1561.06,879.65c17.26-64.75-5.03-108.29-5.03-108.29,0,0-14.97-77.43,17.08-134.86-23.9-24.84-59.29,27.63-58.77,40.66.52,13.02-19.5,73.35-36.92,56.35-20.1-21.32-57.67-30.12-83.73-25.05-26.06,5.08-26.06,18.95-31.48,38.25-26.48,15.74-27.08,29.45-26.4,38.25.68,8.8-4.74,11.17-13.2,24.03s.68,26.74-7.45,37.99c-1.02,8.89-71.27,50.12-77.17,53.05-5.89,2.93-23.74,19.02-3.3,25.38,20.44,6.36,85.21-32.15,94.68-29.45s13.72,10.91,18.29,12.43,19.78,1.27,19.78,1.27c0,0,74.38,67.47,116.14,35.26s62.06-33.74,77.47-65.28Z" fill="#efb6b6"/></g></g></g><g id="head_copy"><path id="neck" d="M898.46,1014.12l44.81-9.54v-106.79l184.83-97.08,13.07,179.22,33.6,1.88s-83.8,154.96-174.76,153.09-101.54-120.78-101.54-120.78Z" fill="#dda4a4"/><g id="r-full-ear_copy"><path id="r-ear" d="M734.16,737.23c0,36.72,16.62,67.31,34.94,80.54,18.32,13.23,68.98,35.6,68.36,50.65s3.11-95.72,3.11-95.72c0,0-24.27-67.21-65.34-67.21s-41.07,25.51-41.07,31.74Z" fill="#e2a8a8"/><g id="r-ear-shadow_copy"><path d="M760.13,772.31c4.82-7.35,18.74-7.81,26.5-7.16,9.71.82,19.13,4.78,26.51,11.13l5.35-9.19c-10.5-4.18-20.49,3.08-25.66,11.87-6,10.22-9.83,22.23-7.71,34.07,1.24,6.96,11.85,4.01,10.61-2.92-1.39-7.8,1.6-15.8,5.04-22.68,2.84-5.7,7.55-12.61,14.8-9.72,5.09,2.03,9.38-5.72,5.35-9.19-10.07-8.67-22.5-13.77-35.81-14.46-11.92-.61-27.46,2.01-34.48,12.71-3.89,5.94,5.63,11.45,9.5,5.55h0Z" fill="#cc9696"/></g></g><path id="base-hair" d="M817.24,767.77s-49.47-80.68-44.81-141.62,101.75-71.21,101.75-71.21l14.94,158.69-71.88,54.14Z" fill="#3a2a28"/><path id="face" d="M792.04,615.88l9.33,91.48,16.8,93.35s1.83,5.05,9.33,74.68c1.24,14.31,60.99,113.58,149.04,114.1,162.74.51,208.48-162.64,208.48-162.64l32.67-115.75v-134.42l-158.69-199.76-214.7,37.34-52.27,201.63Z" fill="#efb6b6"/><g id="face-features_copy"><g id="nose-mouth_copy"><g id="nose"><path d="M939.94,667.28c15.1,33.34,18.37,71.74,9.58,107.23-2.2,8.9-5.12,17.63-8.82,26.01s-8.04,16.73-7.26,26.06c1.23,14.85,15.46,26.75,30.25,25.53,7.01-.58,7.07-11.58,0-11s-13.25-2.6-16.93-8.47c-4.72-7.52-1.31-15.94,1.97-23.31,6.96-15.64,12.2-31.61,14.65-48.6,4.88-33.69.1-67.99-13.95-99.01-2.92-6.44-12.4-.85-9.5,5.55h0Z" fill="#cc9696"/></g><g id="mouth"><path d="M974.79,914.82c30.78-4.81,59.47-19.2,81.97-40.71,5.13-4.9-2.66-12.67-7.78-7.78-21.23,20.29-48.13,33.36-77.11,37.88-6.97,1.09-4.01,11.69,2.92,10.61h0Z" fill="#cc9696"/></g></g><g id="r-full-eye_copy"><ellipse id="r-eye" cx="915.26" cy="751.1" rx="16.8" ry="25.34"/><polygon id="r-eyebrow" points="833.04 707.6 891.35 709.71 934 692.19 867.7 681.18 833.04 707.6" fill="#3a2a28"/></g><g id="l-full-eye_copy"><ellipse id="l-eye" cx="1054.34" cy="743.77" rx="15.87" ry="28.94"/><polygon id="l-eyebrow" points="996.21 647.4 1063.45 625.82 1125.75 659.61 1058.55 657.35 996.21 647.4" fill="#3a2a28"/></g></g><g id="main-hair_copy"><path d="M1146.67,397.12c-55.66-41.61-115.78-63.18-138.53-1.36-28.26-8.62-188.09-78.12-177.52,49.64-26.78-11.06-114.86,2.35-149.54,45.32,11.27-58.95,80.81-110.94,106.29-97.27-9.33-146.56,159.89-66.84,184.83-56.94,57.57-52.19,128.65,3.19,174.47,60.61Z" fill="#5b3b39"/><path d="M1246.64,539.07s-17.74,166.42-20.54,155.89c-.89-3.33-3.92-1.48-8.15,2.62-9.15,8.85-23.93,28.18-34.79,28.18s-34.15-59.69-47.96-108.11c-6.47-22.72-10.85-42.95-10.85-53.38-38.27,48.39-111.08,28.01-127.57,18.67-62.18,61.61-122.6,19.6-122.6,19.6,0,21.47-140.02,80.66-153.08-25.2-36.66-25.67-45.69-57.02-40.02-86.62,34.68-42.97,122.76-56.38,149.54-45.32-10.57-127.76,149.26-58.26,177.52-49.64,22.75-61.82,82.87-40.25,138.53,1.36,27.11,33.98,45.38,68.67,46.76,82.21,60.68-3.74,53.21,59.74,53.21,59.74Z" fill="#3a2a28"/></g><g id="l-full-ear_copy"><path id="l-ear" d="M1167.29,705.49s12.45-35.47,61.61-35.47,52.27,45.68,45.74,65.34c-36.41,79.66-94.16,81.65-97.02,94.34l-34.6-83.14,24.27-41.07Z" fill="#efb6b6"/><g id="l-ear-shadow_copy"><path d="M1179.18,785.81c4.33-16.29,11.1-33.27,25.32-43.43,14.72-10.52,32.95-8.7,49.15-2.9,6.68,2.39,9.55-8.23,2.92-10.61-18.83-6.74-40.57-7.99-57.63,4.01-16.75,11.79-25.26,30.76-30.37,50-1.82,6.85,8.79,9.77,10.61,2.92h0Z" fill="#cc9696"/><path d="M1224.3,776.19c1.7-16.58-6.84-32.86-21.02-41.41-6.08-3.66-11.61,5.84-5.55,9.5,11.12,6.71,16.89,19.09,15.57,31.91-.72,7.04,10.28,6.98,11,0h0Z" fill="#cc9696"/></g></g></g></g></svg>